<svg width="21" height="18" viewBox="0 0 21 18" fill="none" xmlns="http://www.w3.org/2000/svg">
<path fill-rule="evenodd" clip-rule="evenodd" d="M8.34426 17C4.30192 17 0.848877 16.5304 0.848877 14.6502C0.848877 12.7701 4.27967 11.0601 8.34426 11.0601C12.3865 11.0601 15.8396 12.7538 15.8396 14.6331C15.8396 16.5124 12.4088 17 8.34426 17Z" stroke="#49C2F9" stroke-linecap="round" stroke-linejoin="round"/>
<path fill-rule="evenodd" clip-rule="evenodd" d="M8.3442 8.37883C10.997 8.37883 13.1486 6.72661 13.1486 4.68941C13.1486 2.65141 10.997 1 8.3442 1C5.69136 1 3.53983 2.65141 3.53983 4.68941C3.53029 6.71928 5.66698 8.3715 8.31029 8.37883H8.3442Z" stroke="#49C2F9" stroke-linecap="round" stroke-linejoin="round"/>
<path d="M18.1045 5.86633V9.13007" stroke="#49C2F9" stroke-linecap="round" stroke-linejoin="round"/>
<path d="M20.2733 7.49811H15.9385" stroke="#49C2F9" stroke-linecap="round" stroke-linejoin="round"/>
</svg>
