<svg width="190" height="185" viewBox="0 0 190 185" fill="none" xmlns="http://www.w3.org/2000/svg">
<path d="M0 179.5V181V183L2 185H187L189 183L190 181L189 179L187 177.5H2L0 179.5Z" fill="#E5E5E5"/>
<path fill-rule="evenodd" clip-rule="evenodd" d="M116 37L115 30.5L112 25L90.5 0H86L74 11.5L64 7.5L59.5 10.5V38L63.5 45L67 49L73 54L79.5 56.5L84 57.5L94.5 57L100.5 55L107 50.5L111 46.5L113.5 41.5L116 37ZM84.5 8.5V7L87.5 4.5H90.5L92.5 5.5L94.5 8V10.5L93 12H88L84.5 8.5ZM106 22.5L103 18.5H99.5L98 19.5V21V23L100.5 25.5L102.5 28.5L103 31.5L105 33H108L109.5 31.5V28.5L108 25.5L106 22.5ZM81.5 33L88 27H89L96.5 34.5L100.5 39.5V45.5L98.5 49.5L96 52.5L92.5 54.5L88 55L84 54L81 52L78 49L76.5 45.5L76 42L77 39L78.5 36L81.5 33Z" fill="#FF9600"/>
<path d="M59.5 43.5L62 51L66.5 58L72 62.5L79.5 66L89.5 67L98 65L105 61L110.5 56L114 51L116 44.5V37L113.5 41.5L111 46.5L107 50.5L100.5 55L94.5 57L84 57.5L79.5 56.5L73 54L67 49L63.5 45L59.5 38V43.5Z" fill="#FF7516"/>
<path d="M88 27L81.5 33L78.5 36L77 39L76 42L76.5 45.5L78 49L81 52L84 54L88 55L92.5 54.5L96 52.5L98.5 49.5L100.5 45.5V39.5L96.5 34.5L89 27H88Z" fill="#FBE56D"/>
<path d="M103 18.5L106 22.5L108 25.5L109.5 28.5V31.5L108 33H105L103 31.5L102.5 28.5L100.5 25.5L98 23V21V19.5L99.5 18.5H103Z" fill="#FFBA06"/>
<path d="M84.5 7V8.5L88 12H93L94.5 10.5V8L92.5 5.5L90.5 4.5H87.5L84.5 7Z" fill="#FDEDC9"/>
<path d="M15.5 172L21 177.5H80.5L81.5 176.5L88 169L89.5 170L83 177.5H90.5L94 172L96.5 167.5L94 166L93.5 164L97.5 160.5V160L97 159L95.5 157.5L94 157L94.5 158L95 159V161L93 162.5H90.5V164.5L89 166H87L85 165.5L83.5 168L83 168.5H81L79 167V164L70.5 168.5L72.5 169.5V170.5V171.5H70L67.5 169.5L63.5 167L60 165.5L55.5 164L51.5 162.5H37.5V161H41.5L39 157L37.5 152.5L38.5 142L39.5 137.5L44 130L43 124.5L45 121L49.5 125.5L50 119L52.5 116.5L55 117L58 121.5L62 125.5L66.5 129L71 131.5H77.5L81.5 129.5L84 126L85.5 119L86.5 116H88.5L90 118L91 120.5L91.5 122.5L93 119L90.5 113L89.5933 111.187L88 108L84 103L78 98.5L71.5 96H65L61 97.5H57.5L53 96L44 93L38 92.5L32.5 93L26.5 96L23 99L21 102L20.5 104L19.5 109L18.5 117L17.5 124L15 133.5L12 142.5L10.5 150V159L12.5 166L15.5 172Z" fill="#56CD01"/>
<path d="M94 123.5L93 119L91.5 122.5L91 120.5L90 118L88.5 116H86.5L85.5 119L84 126L81.5 129.5L77.5 131.5H71L66.5 129L62 125.5L58 121.5L55 117L52.5 116.5L50 119L49.5 125.5L45 121L43 124.5L44 130L39.5 137.5L38.5 142L37.5 152.5L39 157L41.5 161H52.5L50.5 160L46.5 157.5L44.5 154L44 149L44.5 144.5L45.5 139.5L48.5 140L61 141H62H69V146L68 149L66 153.5L63.5 156.5L60.5 159L57.5 160L52.5 161L61.5 163.5L66.5 159.5V156.5V154.5L70.5 151.5H75.5L78 154.5V148L80.5 140L87 139L91.5 137.5V142L91 145L89 150.5L86.5 155L84.5 157H87.5L88.5 157.5L89.5 155V154L91.095 149.534L92 147L93.5 142L94 136.5V129V123.5Z" fill="#89E119"/>
<path d="M72.5 170.5V169.5L70.5 168.5L79 164V161L77 160L74.5 163L72.5 163.5H69.5L68 162.5L66.5 159.5L61.5 163.5L52.5 161H41.5H37.5V162.5H51.5L55.5 164L60 165.5L63.5 167L67.5 169.5L70 171.5H72.5V170.5Z" fill="#27B600"/>
<path d="M88 169L81.5 176.5L80.5 177.5H83L89.5 170L88 169Z" fill="#27B600"/>
<path d="M61 141L48.5 140L48 143.5V146.5L49.5 149.5L51.5 150.5H55L57 149.5L59 148L60 145.5L60.5 143.5L61 141Z" fill="#4B4B4D"/>
<path d="M80.5 140L78 148L81 149H83L85 147L86.5 144.5L87 141.5V139L80.5 140Z" fill="#4B4B4D"/>
<path d="M45.5 139.5L44.5 144.5L44 149L44.5 154L46.5 157.5L50.5 160L52.5 161L57.5 160L60.5 159L63.5 156.5L66 153.5L68 149L69 146V141H62H61L60.5 143.5L60 145.5L59 148L57 149.5L55 150.5H51.5L49.5 149.5L48 146.5V143.5L48.5 140L45.5 139.5Z" fill="white"/>
<path d="M78 148V154.5L80 156.5L83 157H84.5L86.5 155L89 150.5L91 145L91.5 142V137.5L87 139V141.5L86.5 144.5L85 147L83 149H81L78 148Z" fill="white"/>
<path d="M72.5 163.5L74.5 163L77 160L74 159.5L71.5 159L70.5 159.5V160.5L71 162L72.5 163.5Z" fill="#B06C00"/>
<path d="M66.5 159.5L68 162.5L69.5 163.5H72.5L71 162L70.5 160.5V159.5L71.5 159L69 158.5L66.5 156.5V159.5Z" fill="#EE9400"/>
<path d="M77 160L78 158.5V154.5L75.5 151.5H70.5L66.5 154.5V156.5L69 158.5L71.5 159L74 159.5L77 160Z" fill="url(#paint0_linear_636_329)"/>
<path d="M96.5 166.5L100.5 164.5L101 166L97.5 168L96.5 166.5Z" fill="#E79A80"/>
<path d="M88 158L89.5 162L91 161.5L89 157.5L88 158Z" fill="#E79A80"/>
<path d="M82.5 161.5L84 165L85 164L83 161L82.5 161.5Z" fill="#E79A80"/>
<path fill-rule="evenodd" clip-rule="evenodd" d="M92.5 155H89.5L88.5 157.5L87.5 157H84.5L83 158.5L82.5 160H80.5L79 161V164V167L81 168.5H83L83.5 168L85 165.5L87 166H89L90.5 164.5V162.5H93L95 161V159L94.5 158L94 157L92.5 155ZM84 165L82.5 161.5L83 161L85 164L84 165ZM89.5 162L88 158L89 157.5L91 161.5L89.5 162Z" fill="#FFC5B5"/>
<path fill-rule="evenodd" clip-rule="evenodd" d="M99.5 160L97.5 160.5L93.5 164L94 166L96.5 167.5L94 172L106 177.5H112.5V169.5L106.15 166.174L102 164V162L101 161L99.5 160ZM100.5 164.5L96.5 166.5L97.5 168L101 166L100.5 164.5Z" fill="#FFC5B5"/>
<path d="M90.5 113L93 119L94 123.5V129V136.5L93.5 142L92 147L91.095 149.534L98 152H104L111 151.5L117 150.5L127 148.5L134.5 146L132.5 141.5L127.5 143L118.5 144.5H110.5L105 143L101 139L98.5 134L97 129.5L96 122.833L95.5 119.5V115V104L96.5 96.5L97.5 91L98.5 93.5L101 96L103.5 97.5H107.5L110 96.8L119.5 94.14L145 87L149 89.5V94.5L146 97.5L141.5 98L141 147L151 146L159.5 143.5L168 140.5L177.5 135.5L181.5 131.5L179 117L176 106.5L171.5 95L166.5 86L161 79L153.5 72.5L144 68L136 66H124L113.5 69L104 75L98 81.5L92.5 92.5L90.5 101.5L89.5933 111.187L90.5 113Z" fill="#A56FFF"/>
<path d="M123 107L119.5 94.14L110 96.8L104.5 102.5V106V109.5L106 113.5L112.5 110L119.5 107.5L123 107Z" fill="#A56FFF"/>
<path d="M95.5 104V115V119.5L98.3418 118.174L103 116V114L101 109L99 105.5L95.5 104Z" fill="#A56FFF"/>
<path d="M112.5 169.5V177.5H146L140.5 162L142.5 161L148.5 177.5H170.5L151 146L141 147V131.5L135 133.5L131 137L132.5 141.5L134.5 146L137 150.5L128 171.5H126.5L110 162L107.5 163.5L106.15 166.174L112.5 169.5Z" fill="#5A4183"/>
<path d="M140.5 162L146 177.5H148.5L142.5 161L140.5 162Z" fill="#4A3570"/>
<path d="M103 118.5L102 120.5L101.5 122.5L104 124.5L106 124L106.5 122.833V120L105 117L103 118.5Z" fill="#E39581"/>
<path d="M111 126L113 125L114.5 123.5L115.5 121.5V118.5H118V122L116.5 124.5L114.5 127L112 128H111V126Z" fill="#E39581"/>
<path d="M119.5 107.5L112.5 110V112.5L115 113.5L117 114L119 113L119.5 111.5L120 109.5L119.5 107.5Z" fill="#4A4945"/>
<path d="M103 118.5V116L98.3418 118.174L99.5 120L102 120.5L103 118.5Z" fill="#4A4945"/>
<path d="M123 112V107L119.5 107.5L120 109.5L119.5 111.5L119 113L117 114L115 113.5L112.5 112.5V110L106 113.5V115.5L108 118L110.5 118.5L115 116L123 112Z" fill="white"/>
<path d="M101.5 122.5L102 120.5L99.5 120L98.3418 118.174L95.5 119.5L96 122.833L99 123.5L101.5 122.5Z" fill="white"/>
<path fill-rule="evenodd" clip-rule="evenodd" d="M141 147L141.5 98L146 97.5L149 94.5V89.5L145 87L119.5 94.14L123 107V112L115 116L110.5 118.5L108 118L106 115.5V113.5L104.5 109.5V106V102.5L110 96.8L107.5 97.5H103.5L101 96L98.5 93.5L97.5 91L96.5 96.5L95.5 104L99 105.5L101 109L103 114V116V118.5L105 117L106.5 120V122.833L106 124L104 124.5L101.5 122.5L99 123.5L96 122.833L97 129.5L98.5 134L101 139L105 143L110.5 144.5H118.5L127.5 143L132.5 141.5L131 137L135 133.5L141 131.5V147ZM113 125L111 126V128H112L114.5 127L116.5 124.5L118 122V118.5H115.5V121.5L114.5 123.5L113 125Z" fill="#FFC5B7"/>
<path d="M79 161L80.5 160H82.5L83 158.5L84.5 157H83L80 156.5L78 154.5V158.5L77 160L79 161Z" fill="#89E119"/>
<defs>
<linearGradient id="paint0_linear_636_329" x1="112.765" y1="144.05" x2="118.761" y2="154.013" gradientUnits="userSpaceOnUse">
<stop stop-color="#FFDF00"/>
<stop offset="1" stop-color="#FDC300"/>
</linearGradient>
</defs>
</svg>
