<svg width="60" height="60" viewBox="0 0 60 60" fill="none" xmlns="http://www.w3.org/2000/svg">
<circle cx="30" cy="30" r="26.5" fill="#884B08" stroke="#AD5E00" stroke-width="7"/>
<path fill-rule="evenodd" clip-rule="evenodd" d="M42.5 23L40.5 21.5H35.5L32 26V40.5L36 45H40.5L42.5 43.5L45 40V26.5L42.5 23ZM34 40V26.5L36 23.5H40.5L43 26.5V40L40.5 43H36.5L34 40Z" fill="#E1972E"/>
<path fill-rule="evenodd" clip-rule="evenodd" d="M34 26.5V40L36.5 43H40.5L43 40V26.5L40.5 23.5H36L34 26.5ZM37 29.5L38.5 28.5L40 29.5V36.5L38.5 37.5L37 36.5V29.5Z" fill="#F8B04E"/>
<path d="M38.5 28.5L37 29.5V36.5L38.5 37.5L40 36.5V29.5L38.5 28.5Z" fill="#E39729"/>
<path d="M26.5 21.5H19L17.5 22.5L14 26.5V41L17.5 44.5L19 45H36L32 40.5V26L35.5 21.5H32L33.5 18H29.5L26.5 21.5Z" fill="#BF7401"/>
<path d="M25.5 20V15.5L22.5 13H19.5V17L23.5 20H25.5Z" fill="#E1972E"/>
<path d="M36 45H40.5L42.5 43.5L45 40V26.5L42.5 23L40.5 21.5H35.5M36 45H19L17.5 44.5L14 41V26.5L17.5 22.5L19 21.5H26.5L29.5 18H33.5L32 21.5H35.5M36 45L32 40.5V26L35.5 21.5M34 26.5V40L36.5 43H40.5L43 40V26.5L40.5 23.5H36L34 26.5ZM38.5 28.5L37 29.5V36.5L38.5 37.5L40 36.5V29.5L38.5 28.5ZM25.5 20V15.5L22.5 13H19.5V17L23.5 20H25.5Z" stroke="#C8801A" stroke-linejoin="round"/>
</svg>
