<svg width="29" height="30" viewBox="0 0 29 30" fill="none" xmlns="http://www.w3.org/2000/svg">
<path d="M26.8632 20.8882C26.8632 20.8882 27.5791 20.3618 27.8632 19.8882C28.466 18.8836 28.1267 18.0298 27.8632 16.8882C27.2423 14.1975 24.284 14.2561 22.8632 11.8882C21.5925 9.77033 22.2364 7.94122 20.8632 5.88824C19.556 3.93386 18.4413 2.98837 16.3632 1.88824C15.4339 1.39625 14.8826 1.14631 13.8632 0.88824C11.9703 0.409024 10.7354 0.333523 8.86324 0.88824C7.35385 1.33547 6.60588 1.92174 5.36324 2.88824C4.27337 3.73592 3.71092 4.29837 2.86324 5.38824C1.89674 6.63088 1.31047 7.37885 0.863241 8.88824C0.308524 10.7604 0.454807 11.9788 0.863241 13.8882C1.2655 15.7688 2.86324 18.3882 2.86324 18.3882C2.86324 18.3882 1.1148 21.3003 0.863241 23.3882C0.746458 24.3575 0.491511 24.9855 0.863241 25.8882C1.46264 27.3439 2.79977 27.7043 4.36324 27.8882C5.98798 28.0794 8.36324 26.6438 8.36324 26.6438L17.8632 23.6882L26.8632 20.8882Z" fill="#FFC900"/>
<path d="M17.8632 25.8882V23.6882L8.36324 26.6438L9.86324 28.8882L11.8632 29.3882H14.8632L16.8632 27.8882L17.8632 25.8882Z" fill="#FE9901"/>
</svg>
