<svg width="107" height="125" viewBox="0 0 107 125" fill="none" xmlns="http://www.w3.org/2000/svg">
<path d="M16.5 22.5L28 29.5L50 5H57L93 48.5L99 57.5L101.5 68.5V79.5L99 89L95 96L88 104L78.5 112L70 117L61.5 120H52H43L34 117L25 112L16.5 104L10.5 96L7 89L5 79.5V29L10.5 22.5H16.5Z" fill="#38464F" stroke="#38464F" stroke-width="10" stroke-linecap="round"/>
<path d="M32 73.5L49.5 53L50.5 52L52.5 54L59.5 62.5L66.5 71L69 75L70.5 78.5V86.5L69 90.5L66.5 94L64 97L61 99.5L57.5 101L54 102H46L41 100.5L37.5 98.5L35.5 96.5L33.5 94.5L32 92L31 89.5L30 87V78.5L30.5 76L32 73.5Z" fill="#52656C" stroke="#52656C"/>
</svg>
