<svg width="39" height="33" viewBox="0 0 39 33" fill="none" xmlns="http://www.w3.org/2000/svg">
<path d="M21.5 5V7H35V5H21.5Z" fill="#D4E2E5"/>
<path d="M4.5 5V7H7V5H4.5Z" fill="#D4E2E5"/>
<path d="M17.5 5H14V7H17.5V5Z" fill="#D4E2E5"/>
<path d="M22 9.5V12H32.5V9.5H22Z" fill="#D4E2E5"/>
<path d="M22 14V16.5H35V14H22Z" fill="#D4E2E5"/>
<path d="M22 19V21H32.5V19H22Z" fill="#D4E2E5"/>
<path d="M17.5 14H14V16.5H17.5V14Z" fill="#D4E2E5"/>
<path d="M7 14H4.5V16.5H7V14Z" fill="#D4E2E5"/>
<path d="M7 9.5H4.5V12H7V9.5Z" fill="#D4E2E5"/>
<path d="M4.5 19H14.5V21H4.5V19Z" fill="#D4E2E5"/>
<path d="M2.5 28L3 29H16L16.5 30H22.5L23 29H36L36.5 28V25.5H21.5L19.5 28L17.5 25.5H2.5V28Z" fill="#D4E2E5"/>
<path d="M0 2V31L1 32H15.5V33H23.5V32H38L39 31V2L37 1H14V2.5H17.5L19.5 5L21.5 2.5H35.5L36.5 3V25.5V28L36 29H23L22.5 30H16.5L16 29H3L2.5 28V25.5V3L3.5 2.5H7V1H1.5L0 2Z" fill="#8E6BC9"/>
<path d="M14 1L13.5 0H7.5L7 1V2.5V5V7V9.5V12V14V16.5V18.5H9L10.5 17L12.5 18.5H14V16.5V14V7V5V2.5V1Z" fill="#FD4D4D"/>
<path fill-rule="evenodd" clip-rule="evenodd" d="M36.5 3L35.5 2.5H21.5L19.5 5L17.5 2.5H14V5H17.5V7H14V14H17.5V16.5H14V18.5H12.5L10.5 17L9 18.5H7V16.5H4.5V14H7V12H4.5V9.5H7V7H4.5V5H7V2.5H3.5L2.5 3V25.5H17.5L19.5 28L21.5 25.5H36.5V3ZM14.5 19H4.5V21H14.5V19ZM22 21V19H32.5V21H22ZM22 16.5V14H35V16.5H22ZM22 12V9.5H32.5V12H22ZM21.5 7V5H35V7H21.5Z" fill="white"/>
</svg>
