<svg width="39" height="37" viewBox="0 0 39 37" fill="none" xmlns="http://www.w3.org/2000/svg">
<path d="M14 3.5L14.5 6.5L16.5 8.5H20L22.5 6.5H24V8L21.5 10L20 11H16L12.5 8L12 3H14V3.5Z" fill="#E989C6"/>
<path d="M33 19.5L35 18.5L31 15.5V13L31.5 10H29L28.5 15L21 15.5V17.5H29.5L33 19.5Z" fill="#E989C6"/>
<path d="M5 26.6667L7 28L11.5 23.5L14 25.5H17.5L19 24.5V23.5L18 22.5L14.5 23.5L13 22L12.5 17.5H10.5V21.5L5 26.6667Z" fill="#E989C6"/>
<path fill-rule="evenodd" clip-rule="evenodd" d="M26 35.5V30L28.5 29.5L31.5 28L33.5 25V20L33 19.5L29.5 17.5H21V15.5L28.5 15L29 10H31.5L31 13V15.5L35 18.5L37 16.5L38.5 13.5V9.5L37.5 6.5L35.5 4L32.5 1.5L28.5 0H12.5L7.5 2L4 5.5L1.5 9L0 12.5V17L1 21.5L4 26L5 26.6667L10.5 21.5V17.5H12.5L13 22L14.5 23.5L18 22.5L19 23.5V24.5L17.5 25.5H14L11.5 23.5L7 28L9.5 29.5L11 32.5L15 34.5L17.5 35L21.5 33.5V36L22.5 37H25L26 35.5ZM14.5 6.5L14 3.5V3H12L12.5 8L16 11H20L21.5 10L24 8V6.5H22.5L20 8.5H16.5L14.5 6.5Z" fill="#FEAADE"/>
</svg>
