<svg width="37" height="40" viewBox="0 0 37 40" fill="none" xmlns="http://www.w3.org/2000/svg">
<path fill-rule="evenodd" clip-rule="evenodd" d="M5.5 0H32L33.5 0.5L35 2L36 3L37 4.5V24L36.5 26.5L35.5 29L34 31.5L32.5 34L30.5 36L28 38L25 39.5L22.5 40H14L12 39.5L9 38L6.5 36L4 34L2 31.5L0.5 29L0 26.5V24V4.5L0.5 3L1.5 2L3 0.5L5.5 0ZM31.5 4.5H5.5L4.5 5.5V23L5.5 26.5L6.5 28.5L8 30.5L10.5 32L13.5 33.5L15 34H21L23.5 33.5L26 32.5L28 31.5L29.5 30L30.5 28.5L31.5 26.5L32.5 23V5.5L31.5 4.5Z" fill="#E4AC7B"/>
<path d="M5.5 4.5H31.5L32.5 5.5V23L31.5 26.5L30.5 28.5L29.5 30L28 31.5L26 32.5L23.5 33.5L21 34H15L13.5 33.5L10.5 32L8 30.5L6.5 28.5L5.5 26.5L4.5 23V5.5L5.5 4.5Z" fill="#CD9D6F"/>
<path d="M25.5 0L0 25V26.5L0.5 29L1 30L4 34L9 38L10.5 38.5L37 12V4.5L36 3L33.5 0.5L32 0H25.5Z" fill="#D6AA83" fill-opacity="0.5"/>
</svg>
