<svg width="60" height="60" viewBox="0 0 60 60" fill="none" xmlns="http://www.w3.org/2000/svg">
<circle cx="30" cy="30" r="26.5" fill="#571CCC" stroke="#6A49CC" stroke-width="7"/>
<path d="M15 39.5L14 41.5L15 43H16.5L17 45L18 45.5L19 45L20 44.5L20.5 43L22 43.5L24 44.5L26.5 45H30H33.5L37 44L39 43L41 45H43.5V42.5L44.5 43L46 42V40.5L45 39L48 34V29.5L46.5 26.5L44.5 24.5L42 23L41 20.5L40 19.5L38 20L37.5 21.5H36.5L35.5 20.5H33.5V24.5L32.5 25L31 26.5L31.5 29.5L30.5 31L29.5 32H27.5L26.5 30.5L27 25.5L25 24.5V27.5L24.5 30L23 31H21.5L20.5 29.5V24.5L17.5 26L18 24.5L19.5 22L21.5 20L24.5 18H26.5H31H33.5L34.5 17V15L34 14L31 13H25.5L21 15L17 18L14 21.5L12 26.5V32.5L13 35.5L15 39.5Z" fill="#9473F8"/>
<path d="M23 24.5H20.5V29.5L21.5 31H23L24.5 30L25 27.5V24.5H23Z" fill="#6B4ACC"/>
<path d="M28.5 26.5L27 25.5L26.5 30.5L27.5 32H29.5L30.5 31L31.5 29.5L31 26.5H28.5Z" fill="#6B4ACC"/>
<path d="M20.5 24.5L17.5 26L18 24.5L19.5 22L21.5 20L24.5 18H26.5H31H33.5L34.5 17V15L34 14L31 13H25.5L21 15L17 18L14 21.5L12 26.5V32.5L13 35.5L15 39.5L14 41.5L15 43H16.5L17 45L18 45.5L19 45L20 44.5L20.5 43L22 43.5L24 44.5L26.5 45H30H33.5L37 44L39 43L41 45H43.5V42.5L44.5 43L46 42V40.5L45 39L48 34V29.5L46.5 26.5L44.5 24.5L42 23L41 20.5L40 19.5L38 20L37.5 21.5H36.5L35.5 20.5H33.5V24.5L32.5 25L31 26.5M20.5 24.5H23H25M20.5 24.5V29.5L21.5 31H23L24.5 30L25 27.5V24.5M25 24.5L27 25.5M27 25.5L28.5 26.5H31M27 25.5L26.5 30.5L27.5 32H29.5L30.5 31L31.5 29.5L31 26.5" stroke="#9473F8"/>
<path fill-rule="evenodd" clip-rule="evenodd" d="M37 30.5V31.5V33.5L38.5 34.5H41L44.5 33.5L46 32.5V31.5V29.5L44.5 28.5H43.25L44 29L43.5 30L42.5 30.5L41.5 29.5L42 28.5L39.5 29L38 29.5L37 30.5Z" fill="#D9D9D9"/>
<path d="M42 28.5L41.5 29.5L42.5 30.5L43.5 30L44 29L43.25 28.5H42Z" fill="#AC9BE1"/>
<path d="M38.5 27V25H40L40.5 25.5L41 25H42.5V27L41.5 27.5L41 27H40L39.5 27.5L38.5 27Z" fill="#6B4ACC"/>
</svg>
