<svg width="31" height="28" viewBox="0 0 31 28" fill="none" xmlns="http://www.w3.org/2000/svg">
<path d="M6.47355 5.37218L6.45386 7.79124L6.43388 10.2444H14.3636L15.5 9.5L16.6364 10.2444H24.5V5.37218H6.47355Z" fill="#AB572B"/>
<path d="M6.5 2.12406L6.47355 5.37218H15.3864H24.5V2.12406H6.5Z" fill="#AB572B"/>
<path d="M14.3636 10.2444H6.43388L6.43219 10.453V13.5H10.5V11.5L13.2273 11.0564L14.3636 10.2444Z" fill="#AB572B"/>
<path d="M24.5 10.2444H16.6364L17.7727 11.0564H21.1818V13.0865H24.5V10.2444Z" fill="#AB572B"/>
<path d="M11 20L10.5 18.5V18L6.5 17.9696V22.6278L15.5 21.5L13.4545 20.8008L11 20Z" fill="#AB572B"/>
<path d="M24.3636 22.6278V18.1617H21.4091L21.1818 18.5677V20.8008H18.2273L15.5 21.5L24.3636 22.6278Z" fill="#AB572B"/>
<path d="M6.5 24.8609H24.3636V22.6278L15.5 21.5L6.5 22.6278V24.8609Z" fill="#AB572B"/>
<path fill-rule="evenodd" clip-rule="evenodd" d="M0.5 1V26.891L0.954545 27.5H30.0455L30.5 26.891V1L30 0.5H25H24.5V2.12406V3.5V5.37218V10.2444V13.0865H21.1818V11.0564H17.7727L16.6364 10.2444H14.3636L13.2273 11.0564L10.5 11.5V13.5H6.43219V10.453L6.43388 10.2444L6.45386 7.79124L6.47355 5.37218L6.5 2.12406V1L5.5 0.5H1L0.5 1ZM24.3636 24.8609H6.5V22.6278V17.9696L10.5 18V18.5L11 20L13.4545 20.8008L15.5 21.5L18.2273 20.8008H21.1818V18.5677L21.4091 18.1617H24.3636V22.6278V24.8609Z" fill="#FCE66C"/>
<path d="M6.5 3.11021L0.5 7.5V0.872888L0.74 0.5H5.54L6.5 0.872888V3.11021Z" fill="#FDC800"/>
<path d="M30.5 4L24.5 8.5V0.5H25.2692H30L30.5 1V4Z" fill="#FDC800"/>
<path d="M10.5 18V13.5H6.5L0.5 18.4509V19.113V27.0586L0.9 27.4047L2.1 27.5L6.5 22.5V18H10.5Z" fill="#FDC800"/>
<path d="M22.5 27.5L30.5 20.5V26.8906L30 27.5H22.5Z" fill="#FDC800"/>
<rect x="10.5" y="9.5" width="11" height="12" rx="2" fill="#FEC502"/>
<ellipse cx="15.5" cy="14" rx="3" ry="2.5" fill="#DD8601"/>
<rect x="13.5" y="14.5" width="4" height="5" fill="#DD8601"/>
</svg>
