<svg width="29" height="35" viewBox="0 0 29 35" fill="none" xmlns="http://www.w3.org/2000/svg">
<path d="M7.86441 30.5V34L8.35593 35H18.1864L19.1695 34V30.5H7.86441Z" fill="#FF9500"/>
<path d="M19.1695 4.5V0H7.37288V4.5H19.1695Z" fill="#FF9500"/>
<path d="M26.5424 21H29V13.739H26.5424V21Z" fill="#FF9500"/>
<path fill-rule="evenodd" clip-rule="evenodd" d="M2.94915 25.5V9L5.8983 7H21.1356L23.5932 9V25.5L21.1356 28H5.8983L2.94915 25.5ZM11.3051 20.5V10.5H13.7627V19L17.2034 21V23L15.7288 23.5L11.3051 20.5Z" fill="#FEF5D8"/>
<path fill-rule="evenodd" clip-rule="evenodd" d="M0 9V25.5L1.47458 28L3.44068 30L5.40678 30.5H7.86441H19.1695H21.6271L24.0847 29L26.5424 25.5V21V13.739V9L24.5763 6.5L21.6271 4.5H19.1695H7.37288H4.42373L2.94915 5.5L0 9ZM2.94915 9V25.5L5.8983 28H21.1356L23.5932 25.5V9L21.1356 7H5.8983L2.94915 9Z" fill="#FEB903"/>
<path d="M11.3051 10.5V20.5L15.7288 23.5L17.2034 23V21L13.7627 19V10.5H11.3051Z" fill="#CC7702"/>
</svg>
