<svg width="39" height="32" viewBox="0 0 39 32" fill="none" xmlns="http://www.w3.org/2000/svg">
<path d="M20 25.5L15.5 21.7L16.3286 27.4091L20 25.5Z" fill="#FEC601"/>
<path d="M9.34211 16.5L11.5518 29.8931L14 28.62L12.419 19.0983L9.34211 16.5Z" fill="#FEC601"/>
<path d="M7.5 32L8.5 31.48L5.47368 16.5L4.73684 23.5L6.37921 32H7.5Z" fill="#FEC601"/>
<path d="M26.5 24.5L28.5 22.5L31 24.5L29 26.5L26.5 24.5Z" fill="#FEC601"/>
<path d="M31 3L32.5 1L34.5 2.5L33 4.5L31 3Z" fill="#FEC601"/>
<path d="M9.34211 16.5L5.78947 13.5L5.47368 16.5L8.5 31.48L11.5518 29.8931L9.34211 16.5Z" fill="#FFD900"/>
<path d="M8.5 11.5H6L5.78947 13.5L9.34211 16.5L12.419 19.0983L15.5 21.7L20 25.5L21.5 26L23 25V23L8.5 11.5Z" fill="#DFAD00"/>
<path d="M4 30.5L5.25842 32H6.37921L4.73684 23.5L4 30.5Z" fill="#FFD900"/>
<path d="M3.5 7.5L5.78947 9.5L7 8.5L7.5 6L5 5L4 5.5L3.5 7.5Z" fill="#C698FB"/>
<path d="M24 1L23 2L24.5 4.5L24 5.5L22 4.5L20 5L19 7L21 11.5H17L15.5 13V15.5L18 17.5L19.5 16.5L18 13.5L20.5 14L23 13V10L21.5 7.5L22.5 7L24 8L27 6.5V4L24 1Z" fill="#C698FB"/>
<path d="M34.5 13.5L36.5 11.5L38.5 13.5L36.5 15.5L34.5 13.5Z" fill="#C698FB"/>
<path d="M15 2L17 0L19 2L17 4L15 2Z" fill="#1ACEE7"/>
<path d="M22 20.5L23.5 18L26 16L28 15.5H32L35 17L37 19.5L36.5 20.5L35.5 21L32 17.5H28L26 18.5L24 21L23.2654 21.7L22 20.5Z" fill="#1ACEE7"/>
<path d="M0 15L1.5 13L4 14.5L3 17H1.5L0 15Z" fill="#FE83BC"/>
<path d="M7 0V2H9L11 4.5L12 6.5L11.5 10L11 12.5L12 13.5L13.5 13L14 8.5V5.5L12.419 2.5L10 0.5L7 0Z" fill="#FD86BE"/>
<path d="M30 12.5L27.5 10L30.5 7L33.5 10L30 12.5Z" fill="#FD86BE"/>
<path d="M12.419 19.0983L14 28.62L16.3286 27.4091L15.5 21.7L12.419 19.0983Z" fill="#FFD900"/>
</svg>
