<svg width="67" height="68" viewBox="0 0 67 68" fill="none" xmlns="http://www.w3.org/2000/svg">
<path d="M14 12.5V24.5H31L33.5 22L36 24.5H52.5V12.5H14Z" fill="#F7835E"/>
<path d="M14 4.5V12.5H33.25H52.5V4.5H14Z" fill="#F7835E"/>
<path d="M31 24.5H14V25V31.5H22V27V26.5H28.5L31 24.5Z" fill="#F7835E"/>
<path d="M52.5 24.5H36L38.5 26.5H46V31.5H52.5V24.5Z" fill="#F7835E"/>
<path d="M22 50.5V44.5L21.5 44H14V55H33.5L29 50.5H22Z" fill="#F7835E"/>
<path d="M53 55V44H46.5L46 45V50.5H39.5L34 55H53Z" fill="#F7835E"/>
<path d="M13.5 60.5H53V55H34H33.5H14H13.5V60.5Z" fill="#F7835E"/>
<path fill-rule="evenodd" clip-rule="evenodd" d="M0.5 2V65.5L1.5 67H65.5L66.5 65.5V2L65 0.5H55L52.5 2V4.5V8.5V12.5V24.5V31.5H46V26.5H38.5L36 24.5H31L28.5 26.5H22V27V31.5H14V25V24.5V12.5V4.5H13.5V2L11.5 0.5H1.5L0.5 2ZM53 60.5H13.5V55V44H14H21.5L22 44.5V50.5H29L33.5 55H34L39.5 50.5H46V45L46.5 44H53V55V60.5Z" fill="#FFD600"/>
<path d="M32.5 23L33 22.5L33.5 22L34 22.5L34.5 23L35 23.5L35.5 24L36 24.5L36.5 25L37 25.5L37.5 26L38.5 27H45.5V34L49.5 38.5L46 44.5L45.5 50L39 50.5L33.5 55L29 50.5L22.5 50V44.5L18 38.5L22.5 34V27H28.5L29.5 26L30 25.5L30.5 25L31 24.5L31.5 24L32 23.5L32.5 23Z" fill="#FFBB01" stroke="#FFBB01"/>
<circle cx="34" cy="38" r="10" fill="#FFD900"/>
<circle cx="33.5" cy="35.5" r="3.5" fill="#DD8601"/>
<rect x="31" y="38" width="5" height="6" fill="#DD8601"/>
<path d="M13.5 8L1 19.7724V2L1.5 1H11.5L13.5 2V8Z" fill="#FFBB01" stroke="#FFBB01"/>
<path d="M66 10L53 22V2L55 1H65L66 2V10Z" fill="#FFBB01" stroke="#FFBB01"/>
<path d="M13.5 60V44.5L7 48.4921L1 52.3333V53.381V65.9524L1.5 66.5L3 66.6508L13.5 60Z" fill="#FFBB01" stroke="#FFBB01"/>
<path d="M49 66L65.5 49.5V65L65 66H49Z" fill="#FFBB01" stroke="#FFBB01"/>
</svg>
