<svg width="24" height="22" viewBox="0 0 24 22" fill="none" xmlns="http://www.w3.org/2000/svg">
<path d="M0.263565 7.95984L11.1129 21.619C11.2078 21.7382 11.3265 21.8342 11.4606 21.9C11.5947 21.9658 11.7409 22 11.8889 22C12.037 22 12.1832 21.9658 12.3173 21.9C12.4514 21.8342 12.5701 21.7382 12.665 21.619L23.5194 7.95984H0.263565Z" fill="#299ACC"/>
<path d="M18.2615 1.45074e-06H5.5214C5.15522 -0.000447847 4.7958 0.103472 4.48149 0.300671C4.16719 0.497871 3.90979 0.780948 3.73677 1.11969L0.263565 7.95989H23.5194L20.0462 1.11969C19.8732 0.780948 19.6158 0.497871 19.3014 0.300671C18.9871 0.103472 18.6277 -0.000447847 18.2615 1.45074e-06Z" fill="#38B1E7"/>
<path d="M10.9208 21.2051L7.34145 7.95984H16.4415L12.8622 21.2263C12.7988 21.4461 12.6691 21.6384 12.4927 21.7743C12.3163 21.9102 12.1027 21.9824 11.8839 21.98C11.6651 21.9776 11.453 21.9008 11.2793 21.761C11.1056 21.6213 10.9799 21.4262 10.9208 21.2051Z" fill="#61C0EA"/>
<path d="M16.4415 7.95988H7.34144L6.83588 0H16.9471L16.4415 7.95988Z" fill="#89D0EF"/>
</svg>
