<svg width="110" height="97" viewBox="0 0 110 97" fill="none" xmlns="http://www.w3.org/2000/svg">
<path d="M21 40.5H15L15.5 38.5L3 34.5L0 44V49L3 53L5.5 54H17.5L19 62.5H33.5V47H32V45.5L34.5 40.5H21Z" fill="#FF4B4B"/>
<path d="M57 40.5H48H34.5L38 45.5V47H36.5V62.5H39L40.5 61L42.5 60L45 60.5L46 62.5H50L52 53.5H56.5L57.5 60L70 56.5L68 44L63.5 41L57 40.5Z" fill="#FF4B4B"/>
<path d="M17.5 12V15.5L18.5 16H24H45.5H50L51 15.5V12H49H40.2245L39 14L37 15H32.5L30.5 14L29 12H20H17.5Z" fill="#FF4B4B"/>
<path d="M27 96V93.5L30 93L34.5 90.5L37 92V94L33.5 96L32 96.5H27.5L27 96Z" fill="#FF4B4B"/>
<path d="M37 81V79.5L38 78.5H48L49 79.5V81.5L48 82.5H38L37 81Z" fill="#FF4B4B"/>
<path d="M102 61H103.5V55.5H101H90H85H73.5H72V61H73.5H76L78 58.5L78.5 57H79.5L80.5 58V56L82 56.5L86.5 61L89 60.5L92.5 56.5L93.5 56L95 57.5L96 57H97V58.5L99.5 61H102Z" fill="#FF4B4B"/>
<path d="M19 62.5L20 66L22 68.5L23.5 70H26.5V73.5H27.5H35H36.5V70L37 69.5H39V62.5H36.5H33.5H19Z" fill="#CF2225"/>
<path d="M50 62.5H46V69.5L50 65V62.5Z" fill="#CF2225"/>
<path d="M21 10L20 12H29L30.5 14L32.5 15H37L39 14L40.2245 12H49L46.5 9H41.5L41 6L39 3L36 2L32 2.5L29 5L28 3.5H26.5L25.5 7L26.5 9H23L21 10Z" fill="#FEB101"/>
<path d="M18.5 16V20.5L21.5 21.5L22.5 22.5L24 21V16H18.5Z" fill="#FEB101"/>
<path d="M19.5 26.5V29.5L21 33V26.5H19.5Z" fill="#FEB101"/>
<path d="M50.5 26.5H48V40.5H57L60.5 37L61 32.5H56.5L54 31L51.5 28L50.5 26.5Z" fill="#FEB101"/>
<path fill-rule="evenodd" clip-rule="evenodd" d="M18.5 20.5L17 22V24.5L19.5 26.5H21V33V40.5H34.5H48V26.5H50.5L52 24.5V22L50 20.5L46.5 22L45.5 20.5V16H24V21L22.5 22.5L21.5 21.5L18.5 20.5ZM33.5 25.5L35 24L36.5 25.5V27.5L36 28H34.5L33.5 27.5V25.5ZM31 30L28.5 28L27 28.5V30.5L28 31.5H29.5L31 30ZM34.5 19.5V23.5L33.5 23.75L32.5 24L30.5 22.5H28V18.5L30 17H32.5L34.5 19.5ZM36 19.5V24L38 26H41L42.5 24V20.5L42 18.5L41 17H38L36 19.5Z" fill="#FFC5B7"/>
<path d="M15.5 38.5L16.5 36L19 33L19.5 29.5L15 23.5H11.5L5.5 27L3 34.5L15.5 38.5Z" fill="#FFC5B7"/>
<path d="M57.5 60L56.5 62.5L57 66L63.5 71L66.5 70.5L71 64L70 56.5L57.5 60Z" fill="#FFC5B7"/>
<path d="M40.5 61L39 62.5V69.5V74.5L40.5 75.5L42.5 76.5H44.5L46 74.5V69.5V62.5L45 60.5L42.5 60L40.5 61Z" fill="#FFC5B7"/>
<path d="M35 86V73.5H27.5V86L29.5 88.5H33L35 86Z" fill="#FFC5B7"/>
<path d="M34.5 23.5V19.5L32.5 17H30L28 18.5V22.5H30.5V20.5L32 19L33.5 20V23.75L34.5 23.5Z" fill="white"/>
<path fill-rule="evenodd" clip-rule="evenodd" d="M36 24V19.5L38 17H41L42 18.5L42.5 20.5V24L41 26H38L36 24ZM38.5 20L39 19.5L40.2245 20.1645V23.2742L39 24.5H38L37 23.5V20.5L38.5 20Z" fill="white"/>
<path d="M34.5 40.5L32 45.5V47H33.5V62.5H36.5V47H38V45.5L34.5 40.5Z" fill="white"/>
<path d="M78 62L79 63L79.75 65L80.5 64.5L81 64V62.5H82.5L83 64V67L80.9014 68.4049L81.5 70.5L84.5 68V62.5L82 60H80L78 60.5L77.5 61.5L78 62Z" fill="white"/>
<path fill-rule="evenodd" clip-rule="evenodd" d="M91.5 68.5L92.5 70H96L98 68.5L98.5 67V62.5L97 61L95.5 60H93.5L92 61L90.5 62.5V67L91 67.75L91.5 68.5ZM93.5 64V62.5H94.5L95.5 63.5V67L95 68H93L92 67V64.5L93.5 64Z" fill="white"/>
<path d="M30.5 22.5L32.5 24L33.5 23.75V20L32 19L30.5 20.5V22.5Z" fill="#383D3A"/>
<path d="M39 19.5L38.5 20L37 20.5V23.5L38 24.5H39L40.2245 23.2742V20.1645L39 19.5Z" fill="#383D3A"/>
<path d="M28.5 28L31 30L29.5 31.5H28L27 30.5V28.5L28.5 28Z" fill="#6C2624"/>
<path d="M35 24L33.5 25.5V27.5L34.5 28H36L36.5 27.5V25.5L35 24Z" fill="#EFA577"/>
<path d="M73.5 64.5L68.5 70.5V75.5L69.5 78L72.5 80.5H76L81 74.5L81.25 72.5L81.5 70.5L80.9014 68.4049L80.5 67L79.75 65L79 63L78 62H76.5L73.5 64.5Z" fill="#59CB04"/>
<path fill-rule="evenodd" clip-rule="evenodd" d="M76 80.5L79 84L84 86.5H91L93.5 85.5L92.5 83.5V81L94.5 79L96.5 78.5L98.5 79L100 80.5L100.5 84L103 82.5L105 80V74L102 70.5V61H99.5L100 68L99 70.5L96.5 72H93.5L91.5 71L91 71.25L90.5 71.5H89.5H87.5L87 71L86 69.5L83.5 71.5L81.25 72.5L81 74.5L76 80.5ZM86.5 76.5H82.5V77.5L83.5 78.5H85.5L86.5 77.5V76.5ZM89 77.5V76.5H92.5V77.5L92 78.5H89.5L89 77.5ZM90 79.5H85.5V80.5L86.5 81.5H88.5L90 80.5V79.5Z" fill="#59CB04"/>
<path d="M85 55.5L78.5 52.5H76.5L73.5 55.5H85Z" fill="#59CB04"/>
<path d="M101 55.5L98.5 53H96L90 55.5H101Z" fill="#59CB04"/>
<path d="M73.5 61V64.5L76.5 62H78L77.5 61.5L78 60.5L80 60H82L84.5 62.5V68L81.5 70.5L81.25 72.5L83.5 71.5L86 69.5L85 67.5L85.5 66L86.5 65.5H89L90.5 67V62.5L92 61L93.5 60H95.5L97 61L98.5 62.5V67L98 68.5L96 70H92.5L91.5 68.5L91 71.25L91.5 71L93.5 72H96.5L99 70.5L100 68L99.5 61L97 58.5V57H96L95 57.5L93.5 56L92.5 56.5L89 60.5L86.5 61L82 56.5L80.5 56V58L79.5 57H78.5L78 58.5L76 61H73.5Z" fill="#88E31C"/>
<path d="M82.5 76.5H86.5V77.5L85.5 78.5H83.5L82.5 77.5V76.5Z" fill="#88E31C"/>
<path d="M89 76.5V77.5L89.5 78.5H92L92.5 77.5V76.5H89Z" fill="#88E31C"/>
<path d="M85.5 79.5H90V80.5L88.5 81.5H86.5L85.5 80.5V79.5Z" fill="#88E31C"/>
<path d="M81 64L80.5 64.5L79.75 65L80.5 67L80.9014 68.4049L83 67V64L82.5 62.5H81V64Z" fill="#484C4D"/>
<path d="M93.5 62.5V64L92 64.5V67L93 68H95L95.5 67V63.5L94.5 62.5H93.5Z" fill="#484C4D"/>
<path d="M93.5 85.5L95 86.5H98.5L100.5 84L100 80.5L98.5 79L96.5 78.5L94.5 79L92.5 81V83.5L93.5 85.5Z" fill="#F28E00"/>
<path d="M77.5 95L78.5 93H85.5L86.5 95L85.5 97H78.5L77.5 95Z" fill="#F28E00"/>
<path d="M86 69.5L87 71L87.5 71.5L88 70.5V69.5L89 68.5L91 67.75L90.5 67L89 65.5H86.5L85.5 66L85 67.5L86 69.5Z" fill="url(#paint0_linear_611_288)"/>
<path d="M87.5 71.5H89.5H90.5L91 71.25L91.5 68.5L91 67.75L89 68.5L88 69.5V70.5L87.5 71.5Z" fill="#B96C00"/>
<path d="M15.5 6V2.5L14 0H11L10 1.5V3.5L13.5 6H15.5Z" fill="#8CDBF9"/>
<path d="M54 11.5V8.5L56.5 5.5H58.5L60 7.5V9L56 12L54 11.5Z" fill="#8CDBF9"/>
<path d="M57 17.5V16L58 15H59L60 16V17.5L59 18.5H58L57 17.5Z" fill="#8CDBF9"/>
<path d="M105.5 52.5V50L107 48.5H108.5L109.5 50V51.5L107.5 53L105.5 52.5Z" fill="#8CDBF9"/>
<path d="M106.5 58V56.5L107.5 56H109.5L110 56.5V58.5L109 59.5H107.5L106.5 58Z" fill="#8CDBF9"/>
<defs>
<linearGradient id="paint0_linear_611_288" x1="90.619" y1="65.3474" x2="92.1235" y2="68.949" gradientUnits="userSpaceOnUse">
<stop stop-color="#F1C908"/>
<stop offset="1" stop-color="#EE9400"/>
</linearGradient>
</defs>
</svg>
