<svg width="43" height="51" viewBox="0 0 43 51" fill="none" xmlns="http://www.w3.org/2000/svg">
<path d="M6.07772 7.45652L12 10L19.5 0H23.5L41 21.5L42.5 27.5V33.5L41.5 38L40 41L38.5 43.5L36.5 45.5L35 46.5L32.5 48L30 49.5L25 51H20L15.5 50.5L10.5 48.5L5.5 44L2.90674 41L1.05699 35.7913L0 31.7435V10.2261L2.90674 7.45652H6.07772Z" fill="#FF9600"/>
<path d="M12.057 31.1609L21.3057 22.4261L21.8342 22L22.8912 22.8522L26.5907 26.4739L30.2902 30.0957L31.6114 31.8L32.4041 33.2913V36.7L31.6114 38.4043L30.2902 39.8957L28.9689 41.1739L27.3834 42.2391L25.5337 42.8783L23.6839 43.3043H19.456L16.8135 42.6652L14.9637 41.813L13.9067 40.9609L12.8497 40.1087L12.057 39.0435L11.5285 37.9783L11 36.913V33.2913L11.2642 32.2261L12.057 31.1609Z" fill="#FFC801"/>
</svg>
