<svg width="60" height="60" viewBox="0 0 60 60" fill="none" xmlns="http://www.w3.org/2000/svg">
<circle cx="30" cy="30" r="26.5" fill="#61C7FB" stroke="#00A2ED" stroke-width="7"/>
<path d="M28 14L23 18L35.5 19.5L37 17L36 15.5L34 16L32.5 14L30 15.5L28 14Z" fill="#1A8FD4"/>
<path d="M45.5 29L43.5 31V35.5L45.5 37H49V35L46.5 33L49 31V29H45.5Z" fill="#1A8FD4"/>
<path d="M13 32.5L16 37.5L14.5 41L15.5 43.5L18 45.5L22 47H27L32 46.5L37 44.5L39.5 42.5L41.5 40L43.5 35.5V31V30L42 25.5L39 21.5L35.5 19.5L23 18L16.5 21L13 26V32.5Z" fill="#01A1ED"/>
<path d="M23 18L16.5 21L13 26V32.5L16 37.5L14.5 41L15.5 43.5L18 45.5L22 47H27L32 46.5L37 44.5L39.5 42.5L41.5 40L43.5 35.5M23 18L28 14L30 15.5L32.5 14L34 16L36 15.5L37 17L35.5 19.5M23 18L35.5 19.5M35.5 19.5L39 21.5L42 25.5L43.5 30V31M43.5 31L45.5 29H49V31L46.5 33L49 35V37H45.5L43.5 35.5M43.5 31V35.5" stroke="#01A1ED"/>
<path d="M23 33V34.5L25.5 36.5H28L30.5 35V33L28 35H26L24.5 34V33H23Z" fill="#64CFFD"/>
<path d="M22.5 34.5V33L20 35L18.5 35.5L17 34.5V33H15V35L17.5 36.5H20L22.5 34.5Z" fill="#64CFFD"/>
<path d="M22.5 33H17V34.5L18.5 35.5L20 35L22.5 33Z" fill="#087EC6"/>
<path d="M30.5 33H24.5V34L26 35H28L30.5 33Z" fill="#087EC6"/>
<path fill-rule="evenodd" clip-rule="evenodd" d="M18 38.5L19.5 37H23.5L24.5 38V40L23.5 41.5H20L18 40.5V38.5ZM19.5 38.5V40L20 40.5H22L23 40V39L22.5 38H20.5L19.5 38.5Z" fill="#64CFFD"/>
<path d="M19.5 40V38.5L20.5 38H22.5L23 39V40L22 40.5H20L19.5 40Z" fill="#087EC6"/>
</svg>
