<svg width="27" height="28" viewBox="0 0 27 28" fill="none" xmlns="http://www.w3.org/2000/svg">
<path fill-rule="evenodd" clip-rule="evenodd" d="M4.36486 0.5H22.9865L24.0405 0.8375L25.0946 1.85L25.7973 2.525L26.5 3.5375V16.7L26.1486 18.3875L25.4459 20.075L24.3919 21.7625L23.3378 23.45L21.9324 24.8L20.1757 26.15L18.0676 27.1625L16.3108 27.5H10.3378L8.93243 27.1625L6.82432 26.15L5.06757 24.8L3.31081 23.45L1.90541 21.7625L0.851351 20.075L0.5 18.3875V16.7V3.5375L0.851351 2.525L1.55405 1.85L2.60811 0.8375L4.36486 0.5ZM22.6351 3.5375H4.36486L3.66216 4.2125V16.025L4.36486 18.3875L5.06757 19.7375L6.12162 21.0875L7.87838 22.1L9.98649 23.1125L11.0405 23.45H15.2568L17.0135 23.1125L18.7703 22.4375L20.1757 21.7625L21.2297 20.75L21.9324 19.7375L22.6351 18.3875L23.3378 16.025V4.2125L22.6351 3.5375Z" fill="#E4AC7B"/>
<path d="M4.36486 3.5375H22.6351L23.3378 4.2125V16.025L22.6351 18.3875L21.9324 19.7375L21.2297 20.75L20.1757 21.7625L18.7703 22.4375L17.0135 23.1125L15.2568 23.45H11.0405L9.98649 23.1125L7.87838 22.1L6.12162 21.0875L5.06757 19.7375L4.36486 18.3875L3.66216 16.025V4.2125L4.36486 3.5375Z" fill="#CD9D6F"/>
<path d="M18.4189 0.5L0.5 17.375V18.3875L0.851351 20.075L1.2027 20.75L3.31081 23.45L6.82432 26.15L7.87838 26.4875L26.5 8.6V3.5375L25.7973 2.525L24.0405 0.8375L22.9865 0.5H18.4189Z" fill="#D6AA83" fill-opacity="0.5"/>
</svg>
