<svg width="41" height="32" viewBox="0 0 41 32" fill="none" xmlns="http://www.w3.org/2000/svg">
<g clip-path="url(#clip0_853_323)">
<path d="M0 27.0877C0 28.3947 0.479959 29.6481 1.33429 30.5723C2.18862 31.4964 3.34735 32.0156 4.55556 32.0156H36.4444C37.6527 32.0156 38.8114 31.4964 39.6657 30.5723C40.52 29.6481 41 28.3947 41 27.0877V22.1599H0V27.0877Z" fill="#FFCD05"/>
<path d="M0 11.0721H41V22.1599H0V11.0721Z" fill="#ED1F24"/>
<path d="M36.4444 -0.015564H4.55556C3.34735 -0.015564 2.18862 0.503621 1.33429 1.42778C0.479959 2.35193 0 3.60536 0 4.91231L0 11.0722H41V4.91231C41 3.60536 40.52 2.35193 39.6657 1.42778C38.8114 0.503621 37.6527 -0.015564 36.4444 -0.015564Z" fill="#141414"/>
</g>
<defs>
<clipPath id="clip0_853_323">
<rect width="41" height="32" fill="white"/>
</clipPath>
</defs>
</svg>
