<svg width="60" height="60" viewBox="0 0 60 60" fill="none" xmlns="http://www.w3.org/2000/svg">
<circle cx="30" cy="30" r="26.5" fill="#0B97D4" stroke="#27AAE0" stroke-width="7"/>
<path fill-rule="evenodd" clip-rule="evenodd" d="M10 31.5V30.5H12.5V25.5L14 23.5L16 22L18 21H23L25 22L27 23.5L28.5 25.5V29H30.5V25.5L32 23.5L34 22L36 21H41L43.5 22L45 23.5L46.5 25.5V30.5H49V31.5V33H46.5L45 36L43.5 38L41 39H36L34 38L32 36.5L30.5 34.5V32H28.5V34.5L27 36.5L25.5 38L23.5 39H18L16 38L14 36L12 33H10V31.5ZM15 26.5V30.5V33.5L16 35L17 36L19 37H22L24 36L25.5 34.5L26.5 32.5V29.5V26.5L25 25L23 23H18L16 25L15 26.5ZM32.5 33.5V26.5L34 24.5L36 23H40.5L43.5 25.5L44.5 27.5V33L43 35.5L41 37H36.5L35 36L33.5 35L32.5 33.5Z" fill="#036592"/>
<path d="M15 30.5V26.5L16 25L18 23H23L25 25L26.5 26.5V29.5V32.5L25.5 34.5L24 36L22 37H19L17 36L16 35L15 33.5V30.5Z" fill="url(#paint0_linear_563_653)"/>
<path d="M32.5 26.5V33.5L33.5 35L35 36L36.5 37H41L43 35.5L44.5 33V27.5L43.5 25.5L40.5 23H36L34 24.5L32.5 26.5Z" fill="url(#paint1_linear_563_653)"/>
<path fill-rule="evenodd" clip-rule="evenodd" d="M10 31.5V30.5H12.5V25.5L14 23.5L16 22L18 21H23L25 22L27 23.5L28.5 25.5V29H30.5V25.5L32 23.5L34 22L36 21H41L43.5 22L45 23.5L46.5 25.5V30.5H49V31.5V33H46.5L45 36L43.5 38L41 39H36L34 38L32 36.5L30.5 34.5V32H28.5V34.5L27 36.5L25.5 38L23.5 39H18L16 38L14 36L12 33H10V31.5ZM15 26.5V30.5V33.5L16 35L17 36L19 37H22L24 36L25.5 34.5L26.5 32.5V29.5V26.5L25 25L23 23H18L16 25L15 26.5ZM32.5 33.5V26.5L34 24.5L36 23H40.5L43.5 25.5L44.5 27.5V33L43 35.5L41 37H36.5L35 36L33.5 35L32.5 33.5Z" stroke="#036592" stroke-linejoin="round"/>
<path d="M15 30.5V26.5L16 25L18 23H23L25 25L26.5 26.5V29.5V32.5L25.5 34.5L24 36L22 37H19L17 36L16 35L15 33.5V30.5Z" stroke="#036592" stroke-linejoin="round"/>
<path d="M32.5 26.5V33.5L33.5 35L35 36L36.5 37H41L43 35.5L44.5 33V27.5L43.5 25.5L40.5 23H36L34 24.5L32.5 26.5Z" stroke="#036592" stroke-linejoin="round"/>
<defs>
<linearGradient id="paint0_linear_563_653" x1="17.5" y1="24" x2="24" y2="36" gradientUnits="userSpaceOnUse">
<stop stop-color="#7CDEFB"/>
<stop offset="1" stop-color="#26A2D6"/>
</linearGradient>
<linearGradient id="paint1_linear_563_653" x1="36" y1="24" x2="41.5" y2="36" gradientUnits="userSpaceOnUse">
<stop stop-color="#7CDEFB"/>
<stop offset="1" stop-color="#26A2D6"/>
</linearGradient>
</defs>
</svg>
