<svg width="34" height="32" viewBox="0 0 34 32" fill="none" xmlns="http://www.w3.org/2000/svg">
<path d="M6.77003 5.77444L6.74771 8.64147L6.72507 11.5489H15.7121L17 10.6667L18.2879 11.5489H27.2V5.77444H6.77003Z" fill="#AB572B"/>
<path d="M6.8 1.92481L6.77003 5.77444H16.8712H27.2V1.92481H6.8Z" fill="#AB572B"/>
<path d="M15.7121 11.5489H6.72507L6.72314 11.7962V15.4074H11.3333V13.037L14.4242 12.5113L15.7121 11.5489Z" fill="#AB572B"/>
<path d="M27.2 11.5489H18.2879L19.5758 12.5113H23.4394V14.9173H27.2V11.5489Z" fill="#AB572B"/>
<path d="M11.9 23.1111L11.3333 21.3333V20.7407L6.8 20.7047V26.2256L17 24.8889L14.6818 24.0602L11.9 23.1111Z" fill="#AB572B"/>
<path d="M27.0455 26.2256V20.9323H23.697L23.4394 21.4135V24.0602H20.0909L17 24.8889L27.0455 26.2256Z" fill="#AB572B"/>
<path d="M6.8 28.8722H27.0455V26.2256L17 24.8889L6.8 26.2256V28.8722Z" fill="#AB572B"/>
<path fill-rule="evenodd" clip-rule="evenodd" d="M0 0.592593V31.2782L0.515152 32H33.4848L34 31.2782V0.592593L33.4333 0H27.7667H27.2V1.92481V3.55556V5.77444V11.5489V14.9173H24.9848H23.4394V12.5113H19.5758L18.2879 11.5489H15.7121L14.4242 12.5113L11.3333 13.037V15.4074H6.72314V11.7962L6.72507 11.5489L6.74771 8.64147L6.77003 5.77444L6.8 1.92481V0.592593L5.66667 0H0.566667L0 0.592593ZM27.0455 28.8722H6.8V26.2256V20.7047L11.3333 20.7407V21.3333L11.9 23.1111L14.6818 24.0602L17 24.8889L20.0909 24.0602H23.4394V21.4135L23.697 20.9323H27.0455V26.2256V28.8722Z" fill="#FCE66C"/>
<rect x="11.3333" y="10.6667" width="12.4667" height="14.2222" rx="2" fill="#FCE66C"/>
<ellipse cx="16.9999" cy="15.963" rx="3.4" ry="2.96296" fill="#ED7B40"/>
<rect x="14.7334" y="16.5557" width="4.53333" height="5.92593" fill="#ED7B40"/>
</svg>
