<svg width="17" height="18" viewBox="0 0 17 18" fill="none" xmlns="http://www.w3.org/2000/svg">
<path d="M12 5.5L15.5 2.5L13.5 1L11.5 0H6.5L4.5 1L2.5 2.5L1 5L4.5 7L5.5 5L7.5 4H10.5L12 5.5Z" fill="#E64236"/>
<path d="M1 5L0.5 7V12L0.880872 12.7617L4.5 11V7L1 5Z" fill="#F9BC0B"/>
<path d="M1.5 14L3 15.5L5.5 17L7 17.5H11L13.5 16.5L14.3069 15.6931L11 13.5H7.5L4.5 11L0.880872 12.7617L1.5 14Z" fill="#35A750"/>
<path d="M15.5 14.5L17 11.5V7H8.5V11H13.5L11 13.5L14.3069 15.6931L15.5 14.5Z" fill="#4084F3"/>
</svg>
