<svg width="33" height="33" viewBox="0 0 33 33" fill="none" xmlns="http://www.w3.org/2000/svg">
<path d="M23 10.3714L30 4.71429L26 1.88571L22 0H12L8 1.88571L4 4.71429L1 9.42857L8 13.2L10 9.42857L14 7.54286H20L23 10.3714Z" fill="#E64236"/>
<path d="M1 9.42857L0 13.2V22.6286L0.761744 24.065L8 20.7429V13.2L1 9.42857Z" fill="#F9BC0B"/>
<path d="M2 26.4L5 29.2286L10 32.0571L13 33H21L26 31.1143L27.6138 29.5927L21 25.4571H14L8 20.7429L0.761744 24.065L2 26.4Z" fill="#35A750"/>
<path d="M30 27.3429L33 21.6857V13.2H16V20.7429H26L21 25.4571L27.6138 29.5927L30 27.3429Z" fill="#4084F3"/>
</svg>
