<svg width="77" height="64" viewBox="0 0 77 64" fill="none" xmlns="http://www.w3.org/2000/svg">
<path d="M68 58L69 56V46.5H55V49.5V52.5V56L56.5 58H68Z" fill="#5E7887"/>
<path d="M7 0L6 1.5V12L20 8V3.5V1.5L18.5 0H7Z" fill="#5E7887"/>
<path d="M56 1.5V3.5V4.5L69.5 0.75L69 0H57.5L56 1.5Z" fill="#5E7887"/>
<path d="M56 19H70V13V8.5L56 12V14V19Z" fill="#5E7887"/>
<path d="M18.5 58L20 56V52.5V49.5V46.5H5.5V56L6.5 58H18.5Z" fill="#5E7887"/>
<path d="M72.5 13H70V19V32.5H73.5V26V14.5L72.5 13Z" fill="#5E7887"/>
<path d="M3.5 13L2.5 14.5V26V32.5H6V19V13H3.5Z" fill="#5E7887"/>
<path d="M46.5 30L48 32.5H56V29H48V27L46.5 25H32V30H46.5Z" fill="#5E7887"/>
<path d="M20 32.5H28L29.5 30H32V25H29.5L27.5 27V29H20V32.5Z" fill="#728DA0"/>
<path fill-rule="evenodd" clip-rule="evenodd" d="M72.5 43.5L73.5 42V32.5H70V19H56V22.5V29V32.5H48L46.5 30H32H29.5L28 32.5H20V29V22.5V19H6V32.5H2.5V42L3.5 43.5H5.5H20H27.5V45L29.5 46.5H46L48 45V43.5H55H69H72.5ZM34.5 41.5L35.5 39.5L33.5 37.5V35L36 32.5H39L41.5 35V37.5L39.5 39.5L40.5 41.5V42.5L40 43H35L34.5 42.5V41.5Z" fill="#4E6471"/>
<path d="M56 3.5H20V8V11.25H56V4.5V3.5Z" fill="#38464F"/>
<path d="M56 19V14H20V19V22.5H56V19Z" fill="#38464F"/>
<path d="M46 46.5H29.5H20V49.5H55V46.5H46Z" fill="#38464F"/>
<path d="M20 56H55V52.5H20V56Z" fill="#38464F"/>
<path d="M56 11.25H20V14H56V12V11.25Z" fill="#2B3D49"/>
<path d="M56 22.5H20V29H27.5V27L29.5 25H32H46.5L48 27V29H56V22.5Z" fill="#2B3D49"/>
<path d="M29.5 46.5L27.5 45V43.5H20V46.5H29.5Z" fill="#2B3D49"/>
<path d="M20 52.5H55V49.5H20V52.5Z" fill="#2B3D49"/>
<path d="M35.5 39.5L34.5 41.5V42.5L35 43H40L40.5 42.5V41.5L39.5 39.5L41.5 37.5V35L39 32.5H36L33.5 35V37.5L35.5 39.5Z" fill="#2B3D49"/>
<path d="M20 43.5H5.5V46.5H20V43.5Z" fill="#36505F"/>
<path d="M69 43.5H55V46.5H69V43.5Z" fill="#36505F"/>
<path d="M6 13V19H20V14V11.25V8L6 12V13Z" fill="#708B9E"/>
<path d="M56 11.25V12L70 8.5V1.5L69.5 0.75L56 4.5V11.25Z" fill="#708B9E"/>
<path d="M55 43.5H48V45L46 46.5H55V43.5Z" fill="#2B3D49"/>
<path d="M73.5 42L72.5 43.5H69V46.5V56L68 58H56.5L55 56H20L18.5 58H6.5L5.5 56V46.5V43.5H3.5L2.5 42V32.5V26H1L0 28V60.5L2 63.5H73.5L76.5 60.5V28L75 26H73.5V32.5V42Z" fill="#233539"/>
</svg>
