<svg width="107" height="109" viewBox="0 0 107 109" fill="none" xmlns="http://www.w3.org/2000/svg">
<path d="M60 55.5V56V58L64.5 62L69 64.5H77.5L80.5 63L84.5 60L86.5 57.5L87.5 55L89 49.5L89.5 44V36L88 33L86 30L83.5 28V23.5L82 20L80.5 19.5L76.5 23.5L76 20L75 16.5H73L66 24.5L61 29L57 31.5L53 32L49 31L45.5 28.5L34.5 16.5H33L31.5 19.5L31 23.5L26.5 19.5L24.5 22.5V27.5L21.5 30L18.5 34.5L18 39V44L18.5 48.5L19 52L20.5 56L22.5 59.5L26 62.5L31 64.5H38L41.5 63.5L45 60.5L48 57V56V55.5L46.5 54.5L46 56L43 58L39.5 59.5H32L28 58L25 56L22.5 52.5L21.5 50L21 47.5V42L21.5 39.5L23.5 36.5L26 33.5L29 31L32.5 30H39.5L43.5 32L47.5 35.5L50 39L50.6667 42V48.5L51.5 48H54.5L57.5 49V41.5L59 37.5L62.5 33.5L67.5 30H76L80 32L83.5 35L85.5 38L87 41V44V48L85.5 52L83.5 55L80 58L75.5 59.5H69L64.5 57.5L61.5 55.7857V54.5L60 55.5Z" fill="#90DE00"/>
<path d="M47.5 81.5L50.5 78.5L49 77.5L39 76.5V78.5L42 81.5H47.5Z" fill="#90DE00"/>
<path d="M48 84H58.5V85L55.5 87H51.5L47.5 85L48 84Z" fill="#90DE00"/>
<path d="M56.5 78L67.5 76.5V78.5L65.5 81L62 82L58.5 81.5L56.5 78Z" fill="#90DE00"/>
<path fill-rule="evenodd" clip-rule="evenodd" d="M15 15.5V40.5L2.5 41.5L0 44V49.5L2.5 57L10.5 66L13 68L18 70L24 80H30L35.5 85.5L37 89.5L47.5 93L54.5 93.5L63.5 92L68 90V86.5L71.5 82.5L75.5 79L80 79.5L82 80.5L86.5 75.5L89.5 70L93 67.5L96.5 64.6562L101 61L105 56L107 50V45L104.5 42L100.5 41.5L92.5 41V16L90.5 11L87 5L84 2.5L79 0H73L65 2.5L58 4.5H48.5L45 3.5L35 0H29L22.5 3L18 8.5L15 15.5ZM67.5 76.5L56.5 78L58.5 81.5L62 82L65.5 81L67.5 78.5V76.5ZM50.5 78.5L47.5 81.5H42L39 78.5V76.5L49 77.5L50.5 78.5ZM58.5 84H48L47.5 85L51.5 87H55.5L58.5 85V84ZM50 66L48 63V57L45 60.5L41.5 63.5L38 64.5H31L26 62.5L22.5 59.5L20.5 56L19 52L18.5 48.5L18 44V39L18.5 34.5L21.5 30L24.5 27.5V22.5L26.5 19.5L31 23.5L31.5 19.5L33 16.5H34.5L45.5 28.5L49 31L53 32L57 31.5L61 29L66 24.5L73 16.5H75L76 20L76.5 23.5L80.5 19.5L82 20L83.5 23.5V28L86 30L88 33L89.5 36V44L89 49.5L87.5 55L86.5 57.5L84.5 60L80.5 63L77.5 64.5H69L64.5 62L60 58V63L58 66L55.5 67.5H52.5L50 66Z" fill="#56CD02"/>
<path d="M36.5 92.5L37 89.5L35.5 85.5L30 80H24L20.5 84V87.5L28 96H32.5L35 94.5L36.5 92.5Z" fill="#F58F00"/>
<path d="M84 83.5L82 80.5L80 79.5L75.5 79L71.5 82.5L68 86.5V90L68.5 92L72.5 95.5H75.5L79.5 93.5L83.5 88.5L84 87V83.5Z" fill="#F58F00"/>
<path d="M48 63L50 66L52.5 67.5H55.5L58 66L60 63V58V56V55.5L58.5 55.7857V61L57.7872 61.7128L56.5 63L55 64H52.5L51 63L50.5 61.5L50 61V56L48 55.5V56V57V63Z" fill="#F39200"/>
<path d="M54 57L52 56.5L50 56V61L50.5 61.5L51.5 60.5L53 60H55L56.5 60.5L57.7872 61.7128L58.5 61V55.7857L56 56.5L54 57Z" fill="#A36705"/>
<path d="M55 64L56.5 63L57.7872 61.7128L56.5 60.5L55 60H53L51.5 60.5L50.5 61.5L51 63L52.5 64H55Z" fill="#FECAFE"/>
<path d="M93 67.5L89.5 70L86.5 75.5L82 80.5L84 83.5V87L83.5 88.5L79.5 93.5L75.5 95.5H72.5L68.5 92L68 90L63.5 92L54.5 93.5L47.5 93L37 89.5L36.5 92.5L35 94.5L32.5 96H28L20.5 87.5V84L24 80L18 70L13 68L10.5 66L9.5 69V78L10.5 82L12 86.5L14 90L18 95L22 98.5L27 102L34 105.5L42 108L50.5 109L63 108.5L70 106.5L81 102L87.5 97L95 88L98 80.5V70L96.5 64.6562L93 67.5Z" fill="#404B51"/>
<path fill-rule="evenodd" clip-rule="evenodd" d="M26.5 42.5L28 43.5H31L33 42L34 40V38L32.5 36L33.5 35H38.5L42.5 37.5L45 40L46.5 43V48.5L45 51L43 53L40 55L36.5 55.5L32.5 55L29.5 52.5L27 49.5L26 47.5L26.5 42.5ZM34.5 49.5L32 47L29.5 47.5L29 49.5L32.5 53L34.5 53.5L36 52.5V50.5L34.5 49.5ZM39.5 46L35.5 42.5L39 38.5L43 42.5L39.5 46Z" fill="#4B4B4B"/>
<path fill-rule="evenodd" clip-rule="evenodd" d="M68.5 35V36L70.5 37.5V40.5L67.5 43.5H63.5L62 42L61.5 43V48L64 52.5L68 55H74L79 51.5L81.5 46.5V40.5L78 37L75 34.5H70L68.5 35ZM71 50L66 46L64 47.5V49.5L67.5 53H69.5L71 52V50ZM75 46L71 42.5L75 38.5L79 42.5L75 46Z" fill="#4B4B4B"/>
<path fill-rule="evenodd" clip-rule="evenodd" d="M47 51.5L49 49.5L50.6667 48.5V42L50 39L47.5 35.5L43.5 32L39.5 30H32.5L29 31L26 33.5L23.5 36.5L21.5 39.5L21 42V47.5L21.5 50L22.5 52.5L25 56L28 58L32 59.5H39.5L43 58L46 56L46.5 54.5V53L47 51.5ZM28 43.5L26.5 42.5L26 47.5L27 49.5L29.5 52.5L32.5 55L36.5 55.5L40 55L43 53L45 51L46.5 48.5V43L45 40L42.5 37.5L38.5 35H33.5L32.5 36L34 38V40L33 42L31 43.5H28Z" fill="white"/>
<path fill-rule="evenodd" clip-rule="evenodd" d="M61.5 53V54.5V55.7857L64.5 57.5L69 59.5H75.5L80 58L83.5 55L85.5 52L87 48V44V41L85.5 38L83.5 35L80 32L76 30H67.5L62.5 33.5L59 37.5L57.5 41.5V49L59.5 50.5L61.5 53ZM68.5 36V35L70 34.5H75L78 37L81.5 40.5V46.5L79 51.5L74 55H68L64 52.5L61.5 48V43L62 42L63.5 43.5H67.5L70.5 40.5V37.5L68.5 36Z" fill="white"/>
<path d="M71 42.5L75 46L79 42.5L75 38.5L71 42.5Z" fill="white"/>
<path d="M66 46L71 50V52L69.5 53H67.5L64 49.5V47.5L66 46Z" fill="white"/>
<path d="M32 47L34.5 49.5L36 50.5V52.5L34.5 53.5L32.5 53L29 49.5L29.5 47.5L32 47Z" fill="white"/>
<path d="M35.5 42.5L39.5 46L43 42.5L39 38.5L35.5 42.5Z" fill="white"/>
<path d="M60 55.5L61.5 54.5V53L59.5 50.5L57.5 49L54.5 48H51.5L50.6667 48.5L49 49.5L47 51.5L46.5 53V54.5L48 55.5L50 56L52 56.5L54 57L56 56.5L58.5 55.7857L60 55.5Z" fill="url(#paint0_linear_711_517)"/>
<defs>
<linearGradient id="paint0_linear_711_517" x1="53.5" y1="49.5" x2="54" y2="56.5" gradientUnits="userSpaceOnUse">
<stop stop-color="#FFDD01"/>
<stop offset="1" stop-color="#F39200"/>
</linearGradient>
</defs>
</svg>
