<svg width="24" height="23" viewBox="0 0 24 23" fill="none" xmlns="http://www.w3.org/2000/svg">
<path d="M22.7952 7.23753L22.7832 7.56226C22.7816 7.58048 22.7799 7.59945 22.778 7.61914L22.7772 7.62696L22.7767 7.63479C22.7446 8.13257 22.6641 8.62425 22.5368 9.10055L22.5345 9.10948L22.5324 9.11849C21.9921 11.4899 20.3606 15.7398 15.3995 19.5441L15.3983 19.545C14.3649 20.3424 13.5918 20.9462 13.0172 21.3951C12.7517 21.6025 12.5286 21.7768 12.3417 21.9218C12.0429 22.1537 11.8405 22.3077 11.7014 22.4066C11.6913 22.4138 11.6817 22.4205 11.6726 22.4269C11.669 22.4244 11.6653 22.4217 11.6615 22.4191C11.5263 22.3232 11.3271 22.1717 11.0291 21.9404C10.8499 21.8014 10.6367 21.6349 10.3837 21.4373C9.80377 20.9843 9.01462 20.368 7.94677 19.5449L7.9457 19.5441C2.75374 15.5643 1.20931 11.0962 0.746278 8.80105L0.744871 8.79408L0.743265 8.78714C0.661041 8.43203 0.60467 8.0694 0.574808 7.70305L0.574855 7.70304L0.574199 7.69616C0.565324 7.60317 0.559291 7.524 0.555192 7.45956V7.25351C0.555192 7.21493 0.553162 7.17899 0.551914 7.1569L0.55171 7.15327C0.550269 7.12761 0.549799 7.11693 0.549799 7.10778L0.549799 7.10732C0.548506 5.71458 0.927301 4.3616 1.6261 3.23843C2.3246 2.11574 3.30366 1.2846 4.41695 0.847569C5.52857 0.411196 6.72808 0.385252 7.85212 0.772401C8.97775 1.1601 9.98229 1.9469 10.7166 3.037L10.9148 3.3313L10.9714 3.31646C11.0147 3.35283 11.0609 3.38618 11.1097 3.41607C11.268 3.51308 11.4483 3.56962 11.6361 3.57678L11.1697 3.80634C11.1847 3.83752 11.1997 3.86515 11.2099 3.88379C11.2126 3.88864 11.2149 3.89283 11.2169 3.89653C11.2241 3.90969 11.2279 3.91652 11.2317 3.92394L12.0976 3.49143C12.1384 3.47411 12.1782 3.45429 12.2168 3.4321C12.2528 3.41143 12.2874 3.38889 12.3206 3.36466L12.3937 3.39593L12.6245 3.05152C13.3574 1.95818 14.3616 1.16801 15.4879 0.777426C16.6125 0.3874 17.8134 0.411111 18.9266 0.846124C20.0416 1.28179 21.0225 2.11249 21.7227 3.23559C22.4231 4.35917 22.8031 5.7133 22.8023 7.10751V7.10778C22.8023 7.11649 22.8019 7.12767 22.8004 7.14948C22.7992 7.16688 22.7965 7.20307 22.7952 7.23753ZM11.9472 22.5847L11.9453 22.5833L11.9472 22.5847ZM11.3898 22.593L11.3884 22.594C11.3877 22.5945 11.3886 22.5939 11.3898 22.593Z" fill="#FF5245" stroke="#FFFEFE"/>
<path d="M9.6725 13.4746C8.37214 7.26172 10.0118 4.60002 10.875 3.68012C10.4461 3.03436 9.92071 2.50424 9.32956 2.12076C7.76632 1.68584 5.58188 2.21136 4.16896 7.31793C3.92846 8.36222 3.81831 10.9846 4.05063 14.2059C5.18787 16.2073 6.60496 17.9229 8.23048 19.2664C10.6937 21.3793 11.292 21.9518 11.4491 21.9899C11.4565 21.9917 11.4606 22 11.469 22C11.4774 22 11.483 21.9899 11.4916 21.9868C11.5566 21.96 11.6181 21.9215 11.6744 21.8722C11.1787 20.0991 10.4931 17.3892 9.6725 13.4746Z" fill="url(#paint0_linear_375_753)"/>
<defs>
<linearGradient id="paint0_linear_375_753" x1="12.0155" y1="2.1" x2="2.34376" y2="6.52005" gradientUnits="userSpaceOnUse">
<stop stop-color="#FF7471"/>
<stop offset="1" stop-color="#FF5245"/>
</linearGradient>
</defs>
</svg>
