<svg width="93" height="108" viewBox="0 0 93 108" fill="none" xmlns="http://www.w3.org/2000/svg">
<path d="M85.9239 41.3832L80.3641 35.3271L78.0897 39.6168L81.375 42.8972L84.4076 46.4299L86.9348 50.972L88.9565 56.0187L88.4511 61.0654L86.9348 66.6168L83.3967 71.6635L79.3533 76.7103L72.7826 83.271L74.8044 91.3458L82.3859 83.271L88.4511 75.7009L90.9783 71.6635L93 66.6168V56.0187L92.4946 52.9907L90.4728 48.4486L85.9239 41.3832Z" fill="url(#paint0_linear_611_286)"/>
<path fill-rule="evenodd" clip-rule="evenodd" d="M63.1794 13.6262L60.1467 12.1121H58.125L60.1467 13.6262L62.1685 15.6449V18.1682V20.6916L60.6522 22.2056L59.1359 23.215H55.5978L53.5761 22.7103L52.5652 23.7196H50.5435L49.5326 22.7103L48.0163 23.215H45.9946L43.4674 22.7103L40.9402 19.6822V16.1495L42.4565 14.1308L44.9837 12.1121L41.4457 13.1215L38.413 15.1402L39.4239 16.6542V21.7009L37.9076 23.7196L35.8859 24.729H34.875L35.8859 20.6916H34.3696L32.3478 22.2056V24.729L30.8315 26.7477V30.2804L34.875 30.785L36.8967 32.2991H48.5217L50.3467 34.8224L52.5652 35.3271L53.5761 34.3178L54.587 32.2991H70.2554L71.7717 33.3084L73.7935 28.2617L69.2446 25.2336L70.2554 24.2243V22.2056L69.2446 20.6916H67.2228L67.7283 23.215V24.2243H65.7065L63.6848 21.1963L64.0458 14.6355L63.1794 13.6262ZM50.5435 25.2336L51.5544 24.729L53.0707 25.2336V27.5912L52.5652 28.2617V30.2804L53.0707 30.785V32.8037L51.5544 33.8131L50.3467 32.8037V30.785L51.0489 30.2804V28.2617L50.3467 27.5912L50.5435 25.2336Z" fill="#FCD1CB"/>
<path d="M75.8152 21.1963V24.729L77.837 23.215H79.8587L81.8804 24.2243L83.3967 25.7383L83.9022 27.757L87.4402 23.7196V20.6916L86.4294 18.1682L83.3967 16.1495H79.8587L76.8261 18.6729L75.8152 21.1963Z" fill="#FCD1CB"/>
<path d="M18.7011 29.7757L19.712 31.7944L21.7337 33.3084L26.788 30.785L30.8315 30.2804V26.7477L29.8207 24.729L28.3043 23.215L25.7772 22.7103L23.25 23.215L20.7228 24.2243L18.7011 27.2523V29.7757Z" fill="#FCD1CB"/>
<path fill-rule="evenodd" clip-rule="evenodd" d="M75.8152 24.729L73.7935 28.2617L71.7717 33.3084L70.2554 32.2991H54.587L53.5761 34.3178L52.5652 35.3271L50.3467 34.8224L48.5217 32.2991H36.8967L37.1495 33.5607L37.4022 34.8224L35.8859 36.3364L31.337 38.3551L26.2826 40.3738L21.7337 40.8785L18.7011 40.3738L18.4484 38.8598L18.1957 37.3458L19.2065 35.3271L21.7337 33.3084L19.712 31.7944L15.6685 37.8505V41.8878L17.6902 45.9252L20.2174 48.4486H26.788L29.3152 45.9252H75.8152V43.9065L78.0897 39.6168L80.3641 35.3271L83.9022 27.757L83.3967 25.7383L81.8804 24.2243L79.8587 23.215H77.837L75.8152 24.729ZM45.4891 38.8598L42.962 40.3738V41.8878H45.4891L49.5326 38.3551V36.3364H47.5109L45.4891 38.8598ZM56.1033 36.8411H53.0707V41.8878L52.0598 42.3925V43.4019L53.0707 44.4112H54.587L56.1033 42.3925V36.8411Z" fill="#4BECE7"/>
<path fill-rule="evenodd" clip-rule="evenodd" d="M74.8044 94.8785V91.3458L72.7826 83.271L68.7391 80.243H63.6848L58.6304 82.7664L56.1033 80.7477V80.243H45.4891L41.9511 82.2617L38.413 80.243H32.3478L28.3043 82.2617L14.6576 66.1121L13.1413 62.0748V54.5047L14.6576 50.4673L17.6902 45.9252L15.6685 41.8878L11.625 46.4299L8.08696 55.0093V65.6075L11.1196 73.1776L24.2609 89.3271L28.8098 94.8785L25.7772 99.4206V104.972L27.7989 106.991L29.3152 108H40.9402L43.4674 105.477L47.5109 108H51.5544L54.0815 107.495L57.6196 104.467L59.1359 105.981L62.6739 108H66.7174L70.2554 106.486L72.7826 103.458L74.2989 99.4206L74.8044 94.8785ZM28.8098 85.2897V87.3084L29.3152 88.8224H31.8424L33.8641 86.2991H35.8859L36.8967 87.3084V89.3271L28.3043 99.4206V100.935L29.3152 101.944H40.9402V98.4112H34.3696L40.9402 90.3364V85.2897L37.4022 82.7664H31.8424L28.8098 85.2897ZM45.4891 82.7664H55.0924L55.5978 83.271V85.7944L55.0924 86.2991H48.0163V90.3364L49.5326 89.3271H52.5652L54.0815 90.3364L56.1033 92.3551V98.4112L55.0924 99.9252L53.5761 101.439L52.0598 102.449H48.0163L46.5 101.944L44.4783 99.9252V97.9065L44.9837 96.8972H47.0054L48.5217 98.9159H51.5544L52.0598 97.4019V94.3738L51.5544 92.8598H48.5217L48.0163 94.3738H45.4891L44.4783 93.3645V83.7757L45.4891 82.7664ZM67.7283 82.7664H62.6739L59.1359 85.7944V98.4112L62.6739 101.944H67.7283L71.2663 98.4112V85.7944L67.7283 82.7664Z" fill="#4BECE7"/>
<path fill-rule="evenodd" clip-rule="evenodd" d="M29.3152 45.9252L26.788 48.4486L24.7663 52.9907L23.7554 56.0187V61.0654L27.7989 68.1308L30.3261 72.1682L33.8641 75.7009L39.4239 78.2243H53.5761H56.1033H61.1576L63.9035 77.9197L65.7065 77.7196L69.2446 75.7009L72.7826 72.1682L75.8152 68.1308L79.3533 61.0654V56.0187L78.3424 52.9907L77.3315 49.4579L75.8152 45.9252H29.3152ZM32.8533 50.4673L34.875 49.9626H36.3913L37.9076 50.972L39.4239 52.9907V57.5327L40.4348 59.0467V63.0841L38.413 65.1028H35.8859L33.8641 64.0935L32.3478 60.5607L31.337 57.028V52.9907L32.8533 50.4673ZM63.1794 58.0374L60.6522 58.5421V60.0561L63.1794 60.5607L64.6957 61.0654L65.7065 63.0841L66.7174 66.1121H67.7283L68.7391 63.0841L70.2554 61.0654L72.2772 60.5607L74.2989 60.0561V58.5421H72.2772L70.2554 58.0374L68.7391 56.0187L67.7283 52.486H66.7174L65.2011 57.028L63.1794 58.0374Z" fill="#0084C2"/>
<path d="M20.2174 48.4486L17.6902 45.9252L14.6576 50.4673L13.1413 54.5047V62.0748L14.6576 66.1121L28.3043 82.2617L32.3478 80.243H38.413L41.9511 82.2617L45.4891 80.243H56.1033V78.2243H53.5761H39.4239L33.8641 75.7009L30.3261 72.1682L27.7989 68.1308L23.7554 61.0654V56.0187L24.7663 52.9907L26.788 48.4486H20.2174Z" fill="white"/>
<path d="M75.8152 43.9065V45.9252L77.3315 49.4579L78.3424 52.9907L79.3533 56.0187V61.0654L75.8152 68.1308L72.7826 72.1682L69.2446 75.7009L65.7065 77.7196L63.9035 77.9197L63.6848 80.243H68.7391L72.7826 83.271L79.3533 76.7103L83.3967 71.6635L86.9348 66.6168L88.4511 61.0654L88.9565 56.0187L86.9348 50.972L84.4076 46.4299L81.375 42.8972L78.0897 39.6168L75.8152 43.9065Z" fill="white"/>
<path d="M28.8098 87.3084V85.2897L31.8424 82.7664H37.4022L40.9402 85.2897V90.3364L34.3696 98.4112H40.9402V101.944H29.3152L28.3043 100.935V99.4206L36.8967 89.3271V87.3084L35.8859 86.2991H33.8641L31.8424 88.8224H29.3152L28.8098 87.3084Z" fill="white"/>
<path d="M55.0924 82.7664H45.4891L44.4783 83.7757V93.3645L45.4891 94.3738H48.0163L48.5217 92.8598H51.5544L52.0598 94.3738V97.4019L51.5544 98.9159H48.5217L47.0054 96.8972H44.9837L44.4783 97.9065V99.9252L46.5 101.944L48.0163 102.449H52.0598L53.5761 101.439L55.0924 99.9252L56.1033 98.4112V92.3551L54.0815 90.3364L52.5652 89.3271H49.5326L48.0163 90.3364V86.2991H55.0924L55.5978 85.7944V83.271L55.0924 82.7664Z" fill="white"/>
<path fill-rule="evenodd" clip-rule="evenodd" d="M62.6739 82.7664H67.7283L71.2663 85.7944V98.4112L67.7283 101.944H62.6739L59.1359 98.4112V85.7944L62.6739 82.7664ZM64.1902 86.2991L63.1794 87.3084V97.9065L64.1902 98.9159H66.212L67.2228 96.8972V87.3084L66.212 86.2991H64.1902Z" fill="white"/>
<path d="M60.6522 58.5421L63.1794 58.0374L65.2011 57.028L66.7174 52.486H67.7283L68.7391 56.0187L70.2554 58.0374L72.2772 58.5421H74.2989V60.0561L72.2772 60.5607L70.2554 61.0654L68.7391 63.0841L67.7283 66.1121H66.7174L65.7065 63.0841L64.6957 61.0654L63.1794 60.5607L60.6522 60.0561V58.5421Z" fill="white"/>
<path d="M42.962 40.3738L45.4891 38.8598L47.5109 36.3364H49.5326V38.3551L45.4891 41.8878H42.962V40.3738Z" fill="white"/>
<path d="M53.0707 36.8411H56.1033V42.3925L54.587 44.4112H53.0707L52.0598 43.4019V42.3925L53.0707 41.8878V36.8411Z" fill="white"/>
<path d="M49.5326 12.1121H44.9837L42.4565 14.1308L40.9402 16.1495V19.6822L43.4674 22.7103L45.9946 23.215H48.0163L49.5326 22.7103L50.038 21.7009H47.5109L44.4783 19.1776V17.1589H47.0054L47.5109 16.6542V14.6355H49.5326L52.0598 17.1589L53.0707 17.6636L54.587 17.1589L55.0924 15.1402V14.6355H57.1141L58.6304 16.6542V19.6822L57.1141 21.1963H53.5761V22.7103L55.5978 23.215H59.1359L60.6522 22.2056L62.1685 20.6916V18.1682V15.6449L60.1467 13.6262L58.125 12.1121H55.5978L52.0598 14.6355L49.5326 12.1121Z" fill="white"/>
<path d="M21.2283 13.6262L23.7554 12.6168L25.2717 10.0935H25.7772L27.7989 13.6262L29.3152 14.1308V15.1402L25.7772 16.6542L24.7663 18.6729H23.7554L23.25 16.1495L20.7228 14.1308L21.2283 13.6262Z" fill="white"/>
<path d="M50.038 21.7009L50.5435 20.6916L51.0489 19.1776L52.5652 20.1869L53.5761 21.1963H57.1141L58.6304 19.6822V16.6542L57.1141 14.6355H55.0924V15.1402L54.587 17.1589L53.0707 17.6636L52.0598 17.1589L49.5326 14.6355H47.5109V16.6542L47.0054 17.1589H44.4783V19.1776L47.5109 21.7009H50.038Z" fill="#38393D"/>
<path d="M34.875 49.9626L32.8533 50.4673L31.337 52.9907V57.028L32.3478 60.5607L33.8641 64.0935L35.8859 65.1028H38.413L40.4348 63.0841V59.0467L39.4239 57.5327V52.9907L37.9076 50.972L36.3913 49.9626H34.875Z" fill="#38393D"/>
<path d="M51.5544 24.729L50.5435 25.2336L50.3467 27.5912L51.0489 28.2617V30.2804L50.3467 30.785V32.8037L51.5544 33.8131L53.0707 32.8037V30.785L52.5652 30.2804V28.2617L53.0707 27.5912V25.2336L51.5544 24.729Z" fill="#CA4600"/>
<path d="M38.413 15.1402L36.3913 18.6729L35.8859 20.6916L34.875 24.729H35.8859L37.9076 23.7196L39.4239 21.7009V16.6542L38.413 15.1402Z" fill="#FFA95C"/>
<path d="M67.2228 20.6916L66.212 17.1589L64.0458 14.6355L63.6848 21.1963L65.7065 24.2243H67.7283V23.215L67.2228 20.6916Z" fill="#FFA95C"/>
<path d="M50.038 21.7009L49.5326 22.7103L50.5435 23.7196H52.5652L53.5761 22.7103V21.1963L52.5652 20.1869L51.0489 19.1776L50.5435 20.6916L50.038 21.7009Z" fill="#EA9882"/>
<path d="M61.1576 78.2243H56.1033V80.243V80.7477L58.6304 82.7664L63.6848 80.243L63.9035 77.9197L61.1576 78.2243Z" fill="#38393D"/>
<path d="M12.1304 3.53271L8.08696 8.07477V10.0935L14.6576 11.6075L19.712 7.57009H26.2826L31.0256 3.22179L29.8207 2.01869L22.7446 0L12.1304 3.53271Z" fill="#CB7900"/>
<path fill-rule="evenodd" clip-rule="evenodd" d="M13.1413 24.729L13.6467 24.9308L11.1196 20.1869L10.1087 20.6916L5.55978 16.1495H9.60326L10.551 18.6729L15.6685 21.1963L16.6793 21.7009H23.7554L27.2935 19.6822L30.3261 17.1589L33.4525 11.3837L32.8533 9.58878L36.3913 7.57009V10.5981L34.3696 14.1308L33.3948 20.1869L35.3804 17.6636L38.9185 11.6075V6.05607L39.9294 4.54206V2.52336L38.9185 1.51402L32.3478 6.56075L31.8424 4.03738L31.0256 3.22179L26.2826 7.57009H19.712L14.6576 11.6075L8.08696 10.0935V13.1215H0V14.6355L1.01087 16.6542H2.52717L5.55978 20.6916L9.60326 23.7196L13.1413 24.729ZM23.7554 12.6168L21.2283 13.6262L20.7228 14.1308L23.25 16.1495L23.7554 18.6729H24.7663L25.7772 16.6542L29.3152 15.1402V14.1308L27.7989 13.6262L25.7772 10.0935H25.2717L23.7554 12.6168Z" fill="#FCC802"/>
<path d="M15.6685 25.7383L18.7011 27.2523L20.7228 24.2243L23.25 23.215L25.7772 22.7103L28.3043 23.215L29.8207 24.729L33.3948 20.1869L34.3696 14.1308L33.4525 11.3837L30.3261 17.1589L27.2935 19.6822L23.7554 21.7009H16.6793L15.6685 21.1963L10.551 18.6729L11.1196 20.1869L13.6467 24.9308L15.6685 25.7383Z" fill="#FF9501"/>
<path d="M30.8315 30.2804L26.788 30.785L21.7337 33.3084L19.2065 35.3271L18.1957 37.3458L18.4484 38.8598L21.7337 36.8411L27.2935 34.8224L32.8533 33.3084L37.1495 33.5607L36.8967 32.2991L34.875 30.785L30.8315 30.2804Z" fill="#FCC802"/>
<path d="M18.7011 40.3738L21.7337 40.8785L26.2826 40.3738L31.337 38.3551L35.8859 36.3364L37.4022 34.8224L37.1495 33.5607L32.8533 33.3084L27.2935 34.8224L21.7337 36.8411L18.4484 38.8598L18.7011 40.3738Z" fill="#FF9501"/>
<path d="M43.4674 10.0935L44.9837 12.1121H49.5326H55.5978H58.125H60.1467L57.1141 9.08411H54.587V6.56075L53.0707 4.03738L50.5435 2.52336H46.5L43.4674 5.5514V10.0935Z" fill="#FF9501"/>
<path d="M63.1794 87.3084L64.1902 86.2991H66.212L67.2228 87.3084V96.8972L66.212 98.9159H64.1902L63.1794 97.9065V87.3084Z" fill="#4BECE7"/>
<defs>
<linearGradient id="paint0_linear_611_286" x1="80.8696" y1="38.8598" x2="75.3263" y2="87.3103" gradientUnits="userSpaceOnUse">
<stop stop-color="#FCD1CB"/>
<stop offset="0.492187" stop-color="#FCE9B1"/>
<stop offset="1" stop-color="#FCC5E2"/>
</linearGradient>
</defs>
</svg>
