<svg width="51" height="64" viewBox="0 0 51 64" fill="none" xmlns="http://www.w3.org/2000/svg">
<path d="M19.5 62L17.3333 59.6727V57.5932V55.5136V53.4341V51.3545V49.275V47.1955V45.1159V43.0364L15.2917 42.4818L13.25 41.9273L11.2083 41.3727L9.16667 40.8182L7.125 40.2636L5.08333 39.7091L3.04167 39.1545L1 38.6L0.5 37V35.5V33.5L1 31.9455L2.45833 30.0739L3.91667 28.2023L5.375 26.3307L6.83333 24.4591L8.29167 22.5875L9.75 20.7159L11.2083 18.8443L12.6667 16.9727L14.125 15.1011L15.5833 13.2295L17.0417 11.358L18.5 9.48636L19.9583 7.61477L21.4167 5.74318L22.875 3.87159L24.3333 2L26 1H27.5H29L30.1667 2L31.9167 3.66364L33.6667 5.32727V7.40682V9.48636V11.5659V13.6455V15.725V17.8045V19.8841V21.9636L35.7083 22.5182L37.75 23.0727L39.7917 23.6273L41.8333 24.1818L43.875 24.7364L45.9167 25.2909L47.9583 25.8455L50 26.4L50.5 28V29.5V31L50 31.9455L48.5417 33.8864L47.0833 35.8273L45.625 37.7682L44.1667 39.7091L42.7083 41.65L41.25 43.5909L39.7917 45.5318L38.3333 47.4727L36.875 49.4136L35.4167 51.3545L33.9583 53.2955L32.5 55.2364L31.0417 57.1773L29.5833 59.1182L28.125 61.0591L26.5 63L26 63.5H24H22L19.5 62Z" fill="#FFD900" stroke="#FFD900" stroke-linejoin="round"/>
</svg>
