<svg width="83" height="178" viewBox="0 0 83 178" fill="none" xmlns="http://www.w3.org/2000/svg">
<path d="M22.5286 150.332C23.6449 149.357 25.3967 149.893 25.7771 151.325L26.5342 154.176C26.668 154.68 26.9934 155.112 27.4409 155.379L29.9728 156.893C31.2449 157.653 31.2769 159.485 30.0321 160.289L27.5546 161.89C27.1166 162.173 26.8065 162.616 26.6904 163.125L26.0333 166C25.7031 167.445 23.9711 168.041 22.8214 167.106L20.5332 165.245C20.1286 164.916 19.6116 164.758 19.0922 164.804L16.1543 165.068C14.6781 165.2 13.5757 163.737 14.11 162.355L15.1732 159.603C15.3612 159.117 15.3518 158.576 15.1469 158.097L13.9883 155.384C13.4061 154.021 14.4568 152.521 15.9367 152.602L18.8821 152.763C19.4027 152.791 19.9139 152.615 20.3067 152.272L22.5286 150.332Z" fill="#38464F"/>
<path d="M65.364 151.439C65.7413 149.972 67.5194 149.411 68.6267 150.409L70.6834 152.263C71.0705 152.611 71.5803 152.79 72.1025 152.761L74.9094 152.603C76.3665 152.52 77.3912 153.996 76.8259 155.361L75.6913 158.103C75.4941 158.579 75.484 159.111 75.6631 159.59L76.6862 162.322C77.2075 163.714 76.0858 165.195 74.613 165.058L71.9119 164.808C71.3833 164.759 70.8542 164.926 70.4425 165.272L68.3387 167.038C67.1916 168.001 65.4595 167.421 65.1373 165.966L64.505 163.11C64.3944 162.61 64.0977 162.175 63.676 161.894L61.2499 160.276C60.0412 159.47 60.0915 157.655 61.344 156.883L63.7568 155.394C64.2057 155.117 64.5313 154.675 64.6632 154.162L65.364 151.439Z" fill="#38464F"/>
<path d="M43.9458 158.843C44.7233 157.553 46.5945 157.553 47.372 158.843L48.8064 161.224C49.0778 161.675 49.5159 162 50.0256 162.13L52.7573 162.826C54.1741 163.187 54.7373 164.897 53.8123 166.03L51.9386 168.324C51.6165 168.718 51.4569 169.22 51.4924 169.728L51.6974 172.658C51.8013 174.144 50.3021 175.219 48.9283 174.642L46.4328 173.595C45.9378 173.387 45.38 173.387 44.885 173.595L42.3895 174.642C41.0157 175.219 39.5165 174.144 39.6204 172.658L39.8254 169.728C39.8609 169.22 39.7013 168.718 39.3792 168.324L37.5055 166.03C36.5806 164.897 37.1437 163.187 38.5606 162.826L41.2922 162.13C41.8019 162 42.24 161.675 42.5114 161.224L43.9458 158.843Z" fill="#38464F"/>
<path fill-rule="evenodd" clip-rule="evenodd" d="M39.5 62L33 63V67H31.5L28 64.5L25 61.5L21.5 58V67.5L17 64V67.5L12.5 62.5V61H11V62.5L2 68.5L0 99.5L6 103.5H11L10.5 86.5H12L14.8298 87.5H17V106L25.5 109.5L28 109L27.3421 104L25.5 90L24 76L33 71.5L38 68.5L41 68L40.1446 75.2714L42.5 77L45 78L48.5 77.5L51.5 76.5L52.5 70.5L60 86H62.5L64 82V76L61.5 77.5H60L60.5 73.5L62 69L58.5 70L56.5 64.5H52H48L43.5 63.5L39.5 62ZM10.5 68.5L7.5 66.5L12 63L16.5 68V69H15L10.5 68.5Z" fill="#1F2E35"/>
<path fill-rule="evenodd" clip-rule="evenodd" d="M69.5 77.5L65.5 81.5L64 95L63.2273 103.5L63 106L65.25 106.75L67.5 107.5V113.5L70.5 114.5H76.5L76 86.5L69.5 77.5ZM71 81.5L67.5 81L69.5 79L71 81.5Z" fill="#1F2E35"/>
<path d="M51.5 105L48.5 108H43.5L41.1667 106L39.5 113L40 116L42.5 117L45 116.5L47.5 109.5L53 114H55.5L58 110L51.5 105Z" fill="#1F2E35"/>
<path d="M33 63V58V50.5V48.5V47V43.5V37.5L33.5 36.0834L36 29H36.5L38.5 33L40.5 37L44 40.5L47 43L42.5 47.5L43.5 47.8077L48.8072 49.4407L55.5 51.5L57.5 50.5L59 46.5L65.5 45.5L71 43.5L76.5 40L79 37L82 39V42L80.5 44L78.5 45.5L77 50L75.5 53.5L73.5 56.5L75 60.5V64L76.5 65L77.5 64L80 59.5L82 52.5L83 48V42.5V36L82.5 31L82 27L81 23L79.5 18L77.5 13L74.5 9L70 5L66 2.5L62 1L59 0.5H49L41 3.5L34 9L28.5 16L25 23L22 31.5L20.5 38V51L21.5 54L23 58L25 61.5L28 64.5L31.5 67H33V63Z" fill="#2C3D45"/>
<path fill-rule="evenodd" clip-rule="evenodd" d="M33 58L39.5 62L43.5 63.5L48 64.5H52H56.5L59 64L64 62.5L68.5 60.5L73.5 56.5L75.5 53.5L77 50L78.5 45.5L80.5 44L82 42V39L79 37L76.5 40L71 43.5L65.5 45.5L59 46.5L57.5 50.5L55.5 51.5V52.5L52.5 54H49.5L45 53.5L41.5 52.5V49.5L42.5 47.5L47 43L44 40.5L40.5 37L38.5 33L36.5 29H36L33.5 36.0834L34.5 37L36.5 38L38.5 39.5L39 42V44.5L38 45.5L39 47L37.5 49L35 49.5L33 48.5V50.5V58ZM36 51.5L39.5 48.5L40.5 53.5L39.5 54.5H37L36 53.5V51.5ZM38.5 56H36.5H36L36.5 57L37.5 57.5H38.5L39.5 58.5L40 59.5L41 60H42V59L41.5 58.5L41 58L40.5 57.5L40 57L39.5 56.5L38.5 56Z" fill="#3F515B"/>
<path d="M11 61H12.5H14.5L17 64L21.5 67.5V58L13.5 51L10 50.5L8 52.5L7 55V58L8 60L11 61Z" fill="#3F515B"/>
<path d="M66.5 67.5L62 69L60.5 73.5L60 77.5H61.5L64 76L66 77.5H69.5L71.5 76L73 74.5V71.5L72.5 70L70.5 67.5H66.5Z" fill="#3F515B"/>
<path d="M39.5 48.5L36 51.5V53.5L37 54.5H39.5L40.5 53.5L39.5 48.5Z" fill="#1F2E35"/>
<path d="M42.5 47.5L41.5 49.5V52.5L45 53.5L49.5 54H52.5L55.5 52.5V51.5L48.8072 49.4407L48 51L46.5 51.5H44.5L43.5 50.5V47.8077L42.5 47.5Z" fill="#4B5A61"/>
<path d="M33 37.5V43.5L38 45.5L39 44.5V42L38.5 39.5L36.5 38L34.5 37L33.5 36.0834L33 37.5Z" fill="#2C3D45"/>
<path d="M51.5 105L51.5 95.5L51.5 76.5L48.5 77.5L45 78L42.5 77L40.1446 75.2714L40 76.5L40 96L40 105L41.1667 106L43.5 108H48.5L51.5 105Z" fill="#2C3D45"/>
<path d="M36.5 56H38.5L39.5 56.5L40 57L40.5 57.5L41 58L41.5 58.5L42 59V60H41L40 59.5L39.5 58.5L38.5 57.5H37.5L36.5 57L36 56H36.5Z" fill="#1F2E35"/>
<path d="M43.5 47.8077V50.5L44.5 51.5H46.5L48 51L48.8072 49.4407L43.5 47.8077Z" fill="#131E24"/>
<path d="M38 45.5L33 43.5V47H34H36L37 46.5L38 45.5Z" fill="#131E24"/>
<path d="M33 48.5L35 49.5L37.5 49L39 47L38 45.5L37 46.5L36 47H34H33V48.5Z" fill="#4B5A61"/>
<path d="M41.1667 106L40 105L40 96L37.5 97L35.5 98L33 99.5L30.5 101L27.3421 104L28 109L25.5 109.5V115L27 118L29 121L32.5 124L36.5 126L41.5 127.5L47.5 128L53.5 127L58.5 124.5L62.5 121.5L65 118L66.5 114V109L65.25 106.75L63 106L63.2273 103.5L61 101L57.5 98.5L51.5 95.5L51.5 105L58 110L55.5 114H53L47.5 109.5L45 116.5L42.5 117L40 116L39.5 113L41.1667 106Z" fill="#1B2628"/>
</svg>
