<svg width="40" height="44" viewBox="0 0 40 44" fill="none" xmlns="http://www.w3.org/2000/svg">
<path fill-rule="evenodd" clip-rule="evenodd" d="M5.94595 0H34.5946L36.2162 0.55L37.8378 2.2L38.9189 3.3L40 4.95V26.4L39.4595 29.15L38.3784 31.9L36.7568 34.65L35.1351 37.4L32.973 39.6L30.2703 41.8L27.027 43.45L24.3243 44H15.1351L12.973 43.45L9.72973 41.8L7.02703 39.6L4.32432 37.4L2.16216 34.65L0.540541 31.9L0 29.15V26.4V4.95L0.540541 3.3L1.62162 2.2L3.24324 0.55L5.94595 0ZM34.0541 4.95H5.94595L4.86486 6.05V25.3L5.94595 29.15L7.02703 31.35L8.64865 33.55L11.3514 35.2L14.5946 36.85L16.2162 37.4H22.7027L25.4054 36.85L28.1081 35.75L30.2703 34.65L31.8919 33L32.973 31.35L34.0541 29.15L35.1351 25.3V6.05L34.0541 4.95Z" fill="#788991"/>
<path d="M5.94595 4.95H34.0541L35.1351 6.05V25.3L34.0541 29.15L32.973 31.35L31.8919 33L30.2703 34.65L28.1081 35.75L25.4054 36.85L22.7027 37.4H16.2162L14.5946 36.85L11.3514 35.2L8.64865 33.55L7.02703 31.35L5.94595 29.15L4.86486 25.3V6.05L5.94595 4.95Z" fill="#42535B"/>
<path d="M15.5 25L16.5 23H24L25 25V27.5L24 29H17L15.5 27.5V25Z" fill="#2B3C43" stroke="#2B3C43"/>
<circle cx="20" cy="18" r="6" fill="#2C3D44"/>
</svg>
