<svg width="22" height="27" viewBox="0 0 22 27" fill="none" xmlns="http://www.w3.org/2000/svg">
<path fill-rule="evenodd" clip-rule="evenodd" d="M0 8.5V14L0.5 15.5L1.5 17L3 19L4.5 20.5L6.5 21.5L9 22H12L14.5 21.5L16.5 20.5L18.5 19L19 18.3333L20 17L21 15.5L21.5 14V8.5L20.5 6.5L19 4.5L17.5 3L15.5 1.5L13 0.5H7L4.5 2L3 3L1.5 4.5L0.5 6.5L0 8.5Z" fill="#FFD703"/>
<path d="M3 19L1.5 17V26L2.5 27H4.5L10 24.5L17 27H18L19 26V18.3333L18.5 19L16.5 20.5L14.5 21.5L12 22H9L6.5 21.5L4.5 20.5L3 19Z" fill="#CD996A"/>
<path d="M3.5 13.4186V9.5814L3.84884 8.18605L4.54651 6.7907L5.59302 5.74419L6.63953 5.04651L8.38372 4H12.5698L14.314 4.69767L15.7093 5.74419L16.7558 6.7907L17.8023 8.18605L18.5 9.5814V13.4186L18.1512 14.4651L17.4535 15.5116L16.407 16.907L15.0116 17.9535L13.6163 18.6512L11.8721 19H9.77907L8.03488 18.6512L6.63953 17.9535L5.59302 16.907L4.54651 15.5116L3.84884 14.4651L3.5 13.4186Z" stroke="#FBCB11"/>
<path d="M14.8531 9.13339L12.927 5.35317L16.7072 3.42705L18.6333 7.20727L14.8531 9.13339Z" fill="white"/>
</svg>
