<svg width="60" height="60" viewBox="0 0 60 60" fill="none" xmlns="http://www.w3.org/2000/svg">
<circle cx="30" cy="30" r="26.5" fill="#E36D00" stroke="#FEA63C" stroke-width="7"/>
<path d="M13 39.5L14.5 41.5H41L30 29L27 23.5L24 26H22.5L21.5 24.5L20 28L16.5 30.5L13 39.5Z" fill="#FF9C03" stroke="#FF9C03"/>
<path d="M47 41.5H42L31.5 29.5L34 25.5H35L37.5 28.5H38.5L39 27H40L47 39V41.5Z" fill="#F6961E" stroke="#F6961E"/>
<path d="M38.5 26H39.5L37 20H35L29 13L27.5 22.5L31 29L33.5 24.5H35.5L38 28L38.5 26Z" fill="#F6B36C" stroke="#F6B36C"/>
<path d="M23 25L21.5 23L27 13L28.5 12V13L27 22.5L24 25H23Z" fill="#FFCC7B" stroke="#FFCC7B"/>
</svg>
