<svg width="35" height="27" viewBox="0 0 35 27" fill="none" xmlns="http://www.w3.org/2000/svg">
<path fill-rule="evenodd" clip-rule="evenodd" d="M17.5 1.54H19L19.5 1.02L20 0.5H20.5H23.5H28.5L29 1.02L30 1.54L30.5 2.06L31 2.58L31.5 3.1L32.5 4.14L33 4.66L33.5 5.7V6.22L34 6.74V7L34.5 7.78V9.34V12.46V13.5V14.54V15.58V16.62L34 17.14V17.66L33.5 18.18L33 18.7L32.5 19.22L32 19.74L31.5 20.26L31 20.78L30.5 21.3L30 21.82L29.5 22.34L29 22.86L28.5 23.38L28 23.9L27.5 24.42L25.5 25.46L23.5 25.98L21.5 26.5H12.5L11.5 25.98L10.5 25.46L9.5 24.94L8.5 24.42L7.5 23.9L6.5 23.38L5.5 22.86L4.5 21.82L3.5 20.78L2.5 19.74L2 18.7L1.5 17.66L1 16.62L0.5 15.58V7.26L1 6.22L1.5 5.18L2.5 4.14L4.5 1.54L5.5 1V1.02L6.5 0.5H8H10.5H14H14.5L15 1.02L15.5 1.54H17.5ZM13.5 23.38H17.5H21.5L22.5 22.86L24.5 21.82L25.6546 21.0995L27 20.26L28.5 18.7L30 16.62L31 14.54V11.68V8.82L30.5 7.78L30 7L29.5 6.22L28.5 5.18L27.5 4.14L26.5 3.62H24.5L23 4.14L20.5 4.66H15.5H13.5L12.5 4.14L11.5 3.62H8.5L6.78068 4.96107L6.5 5.18L4.5 8.3V14.5L5.5 17L6.5 18.5L8.5 20L10 21.196L13.5 23.38Z" fill="#DE9079"/>
<path d="M11.5 3.62H8.5L6.78068 4.96107V7.26L9 8.82H17.5H27L28.5 7.26V5.18L27.5 4.14L26.5 3.62H24.5L23 4.14L20.5 4.66H15.5H13.5L12.5 4.14L11.5 3.62Z" fill="white"/>
<path d="M13.5 23.38H17.5H21.5L22.5 22.86L24.5 21.82L25.6546 21.0995L25.0773 20.1598L24.5 19.22H11H10.5L10 20.26V21.196L13.5 23.38Z" fill="white"/>
<path fill-rule="evenodd" clip-rule="evenodd" d="M8.5 20L6.5 18.5L5.5 17L4.5 14.5V8.3L6.5 5.18L6.78068 4.96107V7.26L9 8.82H17.5H27L28.5 7.26V5.18L29.5 6.22L30 7L30.5 7.78L31 8.82V11.68V14.54L30 16.62L28.5 18.7L27 20.26L25.6546 21.0995L25.0773 20.1598L24.5 19.22L24 18.5L23.5 17.5L22.5 16L21 14.5L20 14H15.5L14 15L12.5 16.5L11.5 18L11 19.22H10.5L10 20.26V21.196L8.5 20Z" fill="#9F2D2D"/>
<path d="M11 19.22H24.5L24 18.5L23.5 17.5L22.5 16L21 14.5L20 14H15.5L14 15L12.5 16.5L11.5 18L11 19.22Z" fill="#E44444"/>
</svg>
