<svg width="66" height="66" viewBox="0 0 66 66" fill="none" xmlns="http://www.w3.org/2000/svg">
<path d="M13.2677 5.73242L0 19V47L13.2677 32.4988V31.5V24V22.5V13V10.6222V5.73242Z" fill="#74A2FA"/>
<path d="M52 59.2652H13.2677V55V54.5L2 66H48L66 46V8L52 22V22.5V24V31.5V44V52.5V55V59.2652Z" fill="#74A2FA"/>
<path d="M13.2677 3.5V1L12 0H1L0 1V2V19L13.2677 5.73242V3.5Z" fill="#5289E4"/>
<path d="M0 64L1 66H2L13.2677 54.5V52.5V44V32.4988L0 47V64Z" fill="#5289E4"/>
<path d="M66 2L65 0H53.5L52 2V3.5V10.5V13V22L66 8V2Z" fill="#5289E4"/>
<path d="M64.5 66L66 64V46L48 66H64.5Z" fill="#5289E4"/>
<path d="M52 3.5H13.2677V5.73242V10.6222L52 10.5V3.5Z" fill="#3567C0"/>
<path d="M52 22V13H13.2677V22.5H52V22Z" fill="#3567C0"/>
<path d="M52 24H13.2677V31.5H52V24Z" fill="#3567C0"/>
<path d="M13.2677 31.5V32.4988V44H52V31.5H13.2677Z" fill="#5289E4"/>
<path d="M52 44H13.2677V52.5H52V44Z" fill="#3567C0"/>
<path d="M13.2677 59.2652H52V55H13.2677V59.2652Z" fill="#3567C0"/>
<path d="M52 10.5L13.2677 10.6222V13H52V10.5Z" fill="#234585"/>
<path d="M52 22.5H13.2677V24H52V22.5Z" fill="#234585"/>
<path d="M13.2677 52.5V54.5V55H52V52.5H13.2677Z" fill="#234585"/>
<path d="M27.5 31.5L33 23L38 31.5L47 34L41.5 40.5V50L33 47.5L24.5 50.5V40.5L19 33.5L27.5 31.5Z" fill="#A2C2FF" stroke="#A2C2FF" stroke-linejoin="round"/>
<circle cx="32.5" cy="36.5" r="3.5" fill="#42629B"/>
<rect x="30" y="39" width="5" height="6" fill="#42629B"/>
</svg>
