<svg width="93" height="110" viewBox="0 0 93 110" fill="none" xmlns="http://www.w3.org/2000/svg">
<path fill-rule="evenodd" clip-rule="evenodd" d="M28 37.0408L27.5 47.1429L28.5 51.6327V46.0204L31.5 42.0918L33.5 40.9694L35 41.5306L36 43.2143H38.5L40 41.5306V39.2857H41H42L39.5 37.0408V35.9184L40 34.7959L43.5 34.2347H47L48.5 34.7959V37.0408L45.5 39.8469H44L50.5 44.3367L51 46.0204V49.3878L50.5 52.1939L49 53.3163L46.5 53.8775L44 53.3163L36.5 48.2653H35L34 48.8265V53.3163L33.5 53.8775H31.5L28.5 51.6327L29.0893 57.8061L34.5 63.4184L41 75.7653L45.5 62.8571L55.5 59.4898V57.8061L56.5 53.3163L59.5 49.3878L62.5 46.0204L66 44.898H68.5L71 46.5816L70 34.2347L67 35.3571V31.9898L66 30.3061L64.5 29.1837H63L61.5 30.3061L60.5 31.9898V35.3571L58.5 34.7959L55.5 32.551L54 29.7449L53.5 26.3775H35L35.5 29.1837L34.7138 30.3061H30L28 37.0408ZM40 27.5L41 28.6224L41.5 29.1837H46.2685L48 29.7449V31.9898L46.5 33.6735H40L38.5 31.9898L37.5 30.3061L38.5 28.0612L40 27.5ZM30 37.602V35.9184L31 34.7959H34H36.5H37.5V37.0408L36 39.8469L32.5 40.4082L30 37.602Z" fill="#DA8D73"/>
<path d="M58 63.4184L55.5 63.9796L51 67.3469L51.5 69.5918L53.5 70.7143V73.5204L56 76.8878L58.5 78.5714H62L64.5 78.0102L67.5 74.0816V67.9082L64.5 63.9796L63.5 61.1735L61.5 60.051L58.5 61.1735L58 63.4184Z" fill="#DA8D73"/>
<path d="M5 28.0612V31.9898L7.5 33.6735H10L11 32.551L10 30.8673V25.8163H12V30.8673L13.5 30.3061H15.5V26.9388L17.5 27.5L17 31.9898H17.5L19.5 35.3571L20 30.3061L19.5 25.8163L15.5 21.8878H10.5L6 25.8163L5 28.0612Z" fill="#DA8D73"/>
<path d="M16.5 33.6735V31.9898H13.5L12 33.6735V36.4796L13.5 38.1633H16L17.5 36.4796L16.5 33.6735Z" fill="#DA8D73"/>
<path d="M36.5 3.92857L32.5 11.2245L70 14.5918L67.5 8.41837L64 5.05102L55 0H52L36.5 3.92857Z" fill="#A56643"/>
<path d="M28.5 16.8367L14.5 12.9082H12.5V15.1531L17.5 19.0816L25 23.5714L26.5 24.1327L35 26.3775H53.5H72H79H84L85 24.6939L84 22.449H75.5H72L47.5 21.3265L28.5 16.8367Z" fill="#A56643"/>
<path d="M73.5 28.6224L72 26.3775V31.9898L70 34.2347L71 46.5816L68.5 44.898H66L62.5 46.0204L59.5 49.3878L56.5 53.3163L55.5 57.8061V59.4898V63.9796L58 63.4184L58.5 61.1735L61.5 60.051L63 54.4388L65.5 50.5102L70 49.949L73 52.1451V35.9184L75.5 32.551L79 31.9898L81 33.1122L82.5 36.4796L84.5 43.7755L85 46.5816L86 44.3367L85 38.7245L83 34.2347L78.5 28.6224H73.5Z" fill="#A56643"/>
<path d="M73 82.5L79.5 74.6429L79 69.5918L81.5 67.9082L83.5 65.6633L85 62.2959L84.5 57.2449L83.5 49.3878L81 35.9184L79.5 34.2347H76L74.5 36.4796L75 53.6091L81.5 58.3673L82 61.1735L81.5 64.5408L78.5 67.9082L70 79.1326L73 82.5Z" fill="#A56643"/>
<path d="M28.5 51.6327L26.5 61.1735L27 67.9082L30 73.5204L31.5 75.7653L36.5 78.5714L34 74.6429L31.5 67.3469H30L29.0893 57.8061L28.5 51.6327Z" fill="#A56643"/>
<path d="M87.5 47.1429L86 44.3367L85 46.5816L84.5 43.7755L82.5 36.4796L81 33.1122L79 31.9898L75.5 32.551L73 35.9184V52.1451L75 53.6091L74.5 36.4796L76 34.2347H79.5L81 35.9184L83.5 49.3878L84.5 57.2449L85 62.2959L83.5 65.6633L81.5 67.9082L79 69.5918L79.5 74.6429L84.5 67.9082L88.5 58.9286V51.0714L87.5 47.1429Z" fill="#7D4829"/>
<path d="M31 11.7857L28.5 16.8367L47.5 21.3265L72 22.449V19.0816L71.5 15.7143L70 14.5918L32.5 11.2245L31 11.7857Z" fill="#7D4829"/>
<path d="M23.5 67.9082L23 70.7143L20.75 72.398L28 80.8163L31 78.5714H36.5L31.5 75.7653L30 73.5204L27 67.9082L26.5 61.1735L21 53.3163L22.5 60.6122L23.5 67.9082Z" fill="#7D4829"/>
<path d="M25.5 31.9898L21.5 37.0408L27.5 47.1429L28 37.0408L25.5 31.9898Z" fill="#7D4829"/>
<path d="M34 74.6429L36.5 78.5714L42 79.1326L44 81.9388L47.5 79.1326H53.5L58 81.9388L62.5 79.1326H70L78.5 67.9082L67.5 74.0816L64.5 78.0102L62 78.5714H58.5L56 76.8878L53.5 73.5204V70.7143L51.5 69.5918L51 67.3469L55.5 63.9796V59.4898L45.5 62.8571L41 75.7653L34.5 63.4184L29.0893 57.8061L30 67.3469H31.5L34 74.6429Z" fill="#F2E6DA"/>
<path d="M63 54.4388L61.5 60.051L63.5 61.1735L64.5 63.9796L67.5 67.9082V74.0816L78.5 67.9082L81.5 64.5408L82 61.1735L81.5 58.3673L75 53.6091L73 52.1451L70 49.949L65.5 50.5102L63 54.4388Z" fill="#F2E6DA"/>
<path d="M20.5 51.6327L21 53.3163L26.5 61.1735L28.5 51.6327L27.5 47.1429L21.5 37.0408L19.5 35.3571V40.9694L18.5 42.6531L15.5 44.898L17.5 46.0204L18.5 49.3878L20.5 51.6327Z" fill="#F2E6DA"/>
<path d="M17.5 39.2857V36.4796L16 38.1633H13.5H10.5H9.8125L11.5 39.8469L13.5 40.4082V42.6531H14.5L17.5 39.2857Z" fill="#F2E6DA"/>
<path d="M31 34.7959L30 35.9184V37.602L32.5 40.4082L36 39.8469L37.5 37.0408V34.7959H36.5V36.4796L35.5 37.602L34 36.4796V34.7959H31Z" fill="white"/>
<path d="M43.5 34.2347L40 34.7959L39.5 35.9184V37.0408L42 39.2857L44 39.8469H45.5L48.5 37.0408V34.7959L47 34.2347V35.9184L46.2685 36.4796H44.5L43.5 35.3571V34.2347Z" fill="white"/>
<path d="M26.5 24.1327L25.5 25.8163V31.9898L28 37.0408L30 30.3061H34.7138L35.5 29.1837L35 26.3775L26.5 24.1327Z" fill="#3C3C3E"/>
<path d="M41 28.6224L40 27.5L38.5 28.0612L37.5 30.3061L38.5 31.9898L40 33.6735H46.5L48 31.9898V29.7449L46.2685 29.1837H41.5L41 28.6224Z" fill="#3C3C3E"/>
<path d="M72 26.3775H53.5L54 29.7449L55.5 32.551L58.5 34.7959L60.5 35.3571V31.9898L61.5 30.3061L63 29.1837H64.5L66 30.3061L67 31.9898V35.3571L70 34.2347L72 31.9898V26.3775Z" fill="#3C3C3E"/>
<path d="M36 43.2143L35 41.5306L33.5 40.9694L31.5 42.0918L28.5 46.0204V51.6327L31.5 53.8775H33.5L34 53.3163V48.8265L35 48.2653H36.5L44 53.3163L46.5 53.8775L49 53.3163L50.5 52.1939L51 49.3878V46.0204L50.5 44.3367L44 39.8469H43L42 39.2857H41H40V41.5306L38.5 43.2143H36Z" fill="#3C3C3E"/>
<path d="M36.5 36.4796V34.7959H34V36.4796L35.5 37.602L36.5 36.4796Z" fill="#3C3C3E"/>
<path d="M47 34.2347H43.5V35.3571L44.5 36.4796H46.2685L47 35.9184V34.2347Z" fill="#3C3C3E"/>
<path d="M86.5 35.9184L79 26.3775H72L73.5 28.6224H78.5L83 34.2347L85 38.7245L86 44.3367L87.5 47.1429L88.5 51.0714V58.9286L84.5 67.9082L79.5 74.6429L73 82.5L70 79.1326H62.5L58 81.9388L53.5 79.1326H47.5L44 81.9388L42 79.1326L36.5 78.5714H31L28 80.8163L20.75 72.398L18.5 74.0816L19 78.0102L16.5 78.5714L27 91.4796V105.51L29.5 108.316L33 110H37L40 108.316L43 105.51L45 108.316L47.5 110H52.5L55.5 108.316L57.5 105.51L59.5 108.316L62.5 110H67L70.5 108.316L73 104.949L74.5 100.459L75 90.9184L78.5 87.551L85.5 78.5714L91 70.1531L93 63.9796V48.8265L91 43.2143L86.5 35.9184Z" fill="#E6A45A"/>
<path d="M25 23.5714L20 30.3061L19.5 35.3571L21.5 37.0408L25.5 31.9898V25.8163L26.5 24.1327L25 23.5714Z" fill="#E6A45A"/>
<path d="M5 31.9898V33.1122L7 35.3571L10.5 35.9184V38.1633H13.5L12 36.4796V33.6735L13.5 31.9898H16.5H17L17.5 27.5L15.5 26.9388V30.3061H13.5L12 30.8673V25.8163H10V30.8673L11 32.551L10 33.6735H7.5L5 31.9898Z" fill="#D17961"/>
<path fill-rule="evenodd" clip-rule="evenodd" d="M5 78.5714H16.5L19 78.0102L18.5 74.0816L20.75 72.398L23 70.7143L23.5 67.9082L22.5 60.6122L21 53.3163L20.5 51.6327L18.5 49.3878L17.5 46.0204L15.5 44.898L18.5 42.6531L19.5 40.9694V35.3571L17.5 31.9898H17H16.5V33.6735L17.5 36.4796V39.2857L14.5 42.6531H13.5V40.4082L11.5 39.8469L10.5 40.9694L10 42.6531L7 39.8469V35.3571L5 33.1122L4 35.3571V40.9694L5.5 42.6531L8 44.898L5.5 46.0204V49.3878L2 52.7551L1.5 58.9286L0 66.2245V68.4694L1 70.7143L3 72.9592L5 74.0816L4 77.449L5 78.5714ZM6.5 70.1531L5 71.2755L3 68.4694V62.8571L4.5 53.8775L6.5 52.1939H17H18L19 53.8775L20 59.4898L21 65.102V69.0306L18.5 71.2755L17 70.7143L6.5 70.1531Z" fill="#CC7901"/>
<path d="M6.5 52.1939L5.5 57.8061L4.5 60.6122V65.102L6.5 70.1531L17 70.7143L18.5 66.7857L19 63.4184V60.051L17 52.1939H6.5Z" fill="#FFD900"/>
<path d="M31 82.5001H41L42 83.0613V85.3062L41 86.4286H34V90.3572L35.5 89.796H39.5L42 93.1633V99.898L41 101.582L37.5 104.388H33.5L31 102.704L30 101.582V99.3368L31.5 98.2144H33.5L35 99.898H36.5L37.5 98.7756V94.2858L36.5 93.7246H35L33.5 95.4082H31.5L30 94.2858V83.6225L31 82.5001Z" fill="white"/>
<path fill-rule="evenodd" clip-rule="evenodd" d="M48 81.9388H53.5L57 86.4286V99.3368L54 104.388H48L44.5 99.898V86.4286L48 81.9388ZM51.5 85.8674H50L48.5 87.5511V98.7756L50 100.459H51.5L52.5 98.7756V87.5511L51.5 85.8674Z" fill="white"/>
<path fill-rule="evenodd" clip-rule="evenodd" d="M63 81.9388H68.5L72 86.4286V99.3368L69 104.388H63L59.5 99.898V86.4286L63 81.9388ZM66.5 85.8674H65L63.5 87.5511V98.7756L65 100.459H66.5L67.5 98.7756V87.5511L66.5 85.8674Z" fill="white"/>
</svg>
