<svg width="113" height="92" viewBox="0 0 113 92" fill="none" xmlns="http://www.w3.org/2000/svg">
<path fill-rule="evenodd" clip-rule="evenodd" d="M42.5 27L44 35L47 26L49 27.5L50 22.5L61.5 30.5H65.5L74.5 18.5L75.5 19.5L77 22.5L79.5 19.5L81.5 22V23.5L85 25L87.5 28L89 31.5L89.5 35.5L90 40L89.5 44L87 47.5L83.5 49.5L81 50.5H76.5L73.5 49.5L70 46.5L70.5 49V52.5L70 53.5L68.5 55H65L64.5 54.5L63.5 53L62.5 50.5L62.4596 49.5L60 52.5L57 54.5H52L47.5 50.5L46 47L44.5 38L44 35L37 34V53.5L41.5 57L49.5 60.5L56.5 71.5L63.5 78L72 81.5L82.5 81L90.5 78L97 72.5L101.5 66.5L103.5 60.5L104 53.5L113 47.5L112.5 25.5L99 30L98 21.5L96.5 16L94 13L91 11.5L87 11L79 14.5L65 20H61L56 17.5L52 17L48 18L44 22L42.5 27ZM67.5 62L59.5 63V65L62 66.5H65L67.5 64V62ZM71 63L70.5 61.5L79 60V62.5L77 64.5H73L71 63ZM74 67L65.5 68.5L67.5 71.5H71.5L74 69V67Z" fill="#54CE01"/>
<path d="M29.5 43.5L32.5 48.5L33 42L35 41L35.5 38.5L35 35.5L32.5 33H30L27.5 36L27 41L29.5 43.5Z" fill="#54CE01"/>
<path fill-rule="evenodd" clip-rule="evenodd" d="M47 26L44 35L44.5 38L46 47L47.5 50.5L52 54.5H57L60 52.5L62.4596 49.5L62.3727 47.3509L62 47.5H61L58 50.5L54.5 51L51 49.5L48.5 44.5L48 39.5V35L49.5 32L53 30.5H56.5L59 32.5L60.5 36L61.5 42.6667L62.5 42H65H66.5L68 43L70.5 46L70 46.5L73.5 49.5L76.5 50.5H81L83.5 49.5L87 47.5L89.5 44L90 40L89.5 35.5L89 31.5L87.5 28L85 25L81.5 23.5V22L79.5 19.5L77 22.5L75.5 19.5L74.5 18.5L65.5 30.5H61.5L50 22.5L49 27.5L47 26ZM77.5 26.5L75 27L73.5 28L71.5 30L70.5 33.5V40L72 43L74 45.5L77 46.9255H81L84 45.5L86.5 42V38L85.5 32.5L83.5 28.5L81 27L77.5 26.5Z" fill="#8AE119"/>
<path d="M70.5 61.5L71 63L73 64.5H77L79 62.5V60L70.5 61.5Z" fill="#8AE119"/>
<path d="M59.5 63L67.5 62V64L65 66.5H62L59.5 65V63Z" fill="#8AE119"/>
<path d="M65.5 68.5L74 67V69L71.5 71.5H67.5L65.5 68.5Z" fill="#8AE119"/>
<path d="M70 46.5L70.5 46L68 43L66.5 42H65H62.5L61.5 42.6667L59.5 44L59 46.5V47.5H61H62L62.3727 47.3509L63.4363 46.9255L64.5 46.5H67.5H68.5H70Z" fill="url(#paint0_linear_611_289)"/>
<path d="M62.5 50.5L63.5 53L64.5 54.5L65 55H68.5L70 53.5L70.5 52.5V49L70 46.5H68.5V48L69 48.5V51L67.5 53L67 53.5H65.5L64.75 53L64 52.5L63.5 51.5L63.4363 46.9255L62.3727 47.3509L62.4596 49.5L62.5 50.5Z" fill="#E7930C"/>
<path d="M67.5 46.5H64.5L63.4363 46.9255L63.5 51.5L64 52.5L64.75 53L65 50.5L65.5 49.5L66.5 48.5L67.5 48H68.5V46.5H67.5Z" fill="#D96800"/>
<path d="M69 48.5L68.5 48H67.5L66.5 48.5L65.5 49.5L65 50.5L64.75 53L65.5 53.5H67L67.5 53L69 51V48.5Z" fill="#FFD2FD"/>
<path fill-rule="evenodd" clip-rule="evenodd" d="M59 46.5L59.5 44L61.5 42.6667L60.5 36L59 32.5L56.5 30.5H53L49.5 32L48 35V39.5L48.5 44.5L51 49.5L54.5 51L58 50.5L61 47.5H59V46.5ZM54 37V35.5H56.5L58 37L58.5 39.5L59 41.5V45L57.5 46.5H54.5L53 44.5L52.5 42V40L53.5 38.5L54 37Z" fill="white"/>
<path fill-rule="evenodd" clip-rule="evenodd" d="M75 27L77.5 26.5L81 27L83.5 28.5L85.5 32.5L86.5 38V42L84 45.5L81 46.9255H77L74 45.5L72 43L70.5 40V33.5L71.5 30L73.5 28L75 27ZM75.5 36H74.5V39.5L75 41L77 42.5L79 43L80.5 42.5L82 41V34.5L81 33L79.5 31.5H76V32L76.5 33V35L75.5 36Z" fill="white"/>
<path d="M54 35.5V37L53.5 38.5L52.5 40V42L53 44.5L54.5 46.5H57.5L59 45V41.5L58.5 39.5L58 37L56.5 35.5H54Z" fill="#4B4B4B"/>
<path d="M74.5 36H75.5L76.5 35V33L76 32V31.5H79.5L81 33L82 34.5V41L80.5 42.5L79 43L77 42.5L75 41L74.5 39.5V36Z" fill="#4B4B4B"/>
<path d="M53.5 78.5L62.5 81.5L63.5 83.5V86L60.5 88L51.5 85L50 82.5L51 80L53.5 78.5Z" fill="#F48F01"/>
<path d="M104 79H100.5L98.5 81.5V84.5L103 92H106L109 89V87L104 79Z" fill="#F48F01"/>
<path d="M37 56.5V53.5V34V28L32.5 28.5V33L35 35.5L35.5 38.5L35 41L33 42L32.5 48.5V56L33.5 57.5H35.5L37 56.5Z" fill="#D59531"/>
<path d="M37 23.5V8.5L37.5 8H32.5V14.5V17V20V23L37 23.5Z" fill="#D59531"/>
<path d="M33 1L32.8634 3H37L36.5 1.5L35 0.5L33 1Z" fill="#D59531"/>
<path fill-rule="evenodd" clip-rule="evenodd" d="M38 4L37 3H32.8634H15.5V6V9V11.75V14.5H32.5V8H37.5L38 7.5V4ZM20 8.5L19 8H18V6.5H17V5.5H18L18.5 4.5H19.5L20.5 5.5L21 6.5L20.5 7L20 8.5ZM23 5.5V4.5H24.5V5.5L26 6L25 6.5V8.5H24L23.5 7.5L22.5 8.5V6.5L22 6L23 5.5ZM26.5 6L28.5 4.5L30.5 6L30 7L29.5 8.5L28.5 7.5L27.5 8.5L27 7L26.5 6ZM19 9L17 11L17.5 11.5L18.5 13L19.5 12L20 13L20.5 11.5L21 11L19 9ZM22 11L23.5 9L25.5 11L25 11.5V13L23.5 12.5L22.5 13V11.5L22 11ZM28.5 9.5L26.5 11L27 11.5L27.5 13L28.5 12.5L29.5 13V11.5L30.5 11L28.5 9.5Z" fill="#18B2F2"/>
<path d="M19 8L20 8.5L20.5 7L21 6.5L20.5 5.5L19.5 4.5H18.5L18 5.5H17V6.5H18V8H19Z" fill="#F5FFFF"/>
<path d="M23 4.5V5.5L22 6L22.5 6.5V8.5L23.5 7.5L24 8.5H25V6.5L26 6L24.5 5.5V4.5H23Z" fill="#F5FFFF"/>
<path d="M28.5 4.5L26.5 6L27 7L27.5 8.5L28.5 7.5L29.5 8.5L30 7L30.5 6L28.5 4.5Z" fill="#F5FFFF"/>
<path d="M17 11L19 9L21 11L20.5 11.5L20 13L19.5 12L18.5 13L17.5 11.5L17 11Z" fill="#F5FFFF"/>
<path d="M23.5 9L22 11L22.5 11.5V13L23.5 12.5L25 13V11.5L25.5 11L23.5 9Z" fill="#F5FFFF"/>
<path d="M26.5 11L28.5 9.5L30.5 11L29.5 11.5V13L28.5 12.5L27.5 13L27 11.5L26.5 11Z" fill="#F5FFFF"/>
<path d="M15.5 6H0V9H15.5V6Z" fill="white"/>
<path d="M15.5 14.5V11.75H0V14.5H15.5Z" fill="white"/>
<path d="M32.5 17H0V20H32.5V17Z" fill="white"/>
<path d="M38 24.5L37 23.5L32.5 23H0V26H38V24.5Z" fill="white"/>
<path d="M3 3L0 6H15.5V3H3Z" fill="#FB4D4F"/>
<path d="M15.5 9H0V11.75H15.5V9Z" fill="#FB4D4F"/>
<path d="M32.5 14.5H15.5H0V17H32.5V14.5Z" fill="#FB4D4F"/>
<path d="M0 23H32.5V20H0V23Z" fill="#FB4D4F"/>
<path d="M2.5 28.5H32.5L37 28L38 27.5V26H0L2.5 28.5Z" fill="#FB4D4F"/>
<defs>
<linearGradient id="paint0_linear_611_289" x1="61.5" y1="44" x2="69" y2="46" gradientUnits="userSpaceOnUse">
<stop stop-color="#FFDC04"/>
<stop offset="1" stop-color="#FBA710"/>
</linearGradient>
</defs>
</svg>
