<svg width="38" height="35" viewBox="0 0 38 35" fill="none" xmlns="http://www.w3.org/2000/svg">
<path d="M27.5 19.5H29.5V22L29 23H28L27.5 22V19.5Z" fill="#7B482D"/>
<path d="M23 19.5V22L23.5 23H24.5L25 22V19.5H23Z" fill="#7B482D"/>
<path d="M14 11L13.25 11.5V14.5L14 15L15 14.5V11H14Z" fill="#7B482D"/>
<path d="M10 12.5H8.5V14.5L9.5 15L10.5 14.5V12.4L10 12.5Z" fill="#7B482D"/>
<path fill-rule="evenodd" clip-rule="evenodd" d="M19.5 19L18 21.5L15.5 23.5L16 24.5L18.5 25V27.5L20 30L22 32L24.5 33H28L30 32L32.5 30L34 27.5V25H36L37 24L37.5 23V21L37 20L36.25 19.5H33.5V18.5L30.5 14.5L27 18L19.5 19ZM23 22V19.5H25V22L24.5 23H23.5L23 22ZM29.5 19.5H27.5V22L28 23H29L29.5 22V19.5ZM30 24H22.5V26.5L25 29H28L30 26.5V24Z" fill="#9F633F"/>
<path fill-rule="evenodd" clip-rule="evenodd" d="M22 11.5L21 11H19V8L18 6.5H16.5L15.5 9L14 11H15V14.5L14 15L13.25 14.5V11.5L12.5 12L10.5 12.4V14.5L9.5 15L8.5 14.5V12.5H7H4.5L3 11L1 12.5V15L2.5 16.5H4.5V19L5.5 21.5L7.5 23.5L10 24.5H13.5L15.5 23.5L18 21.5L19.5 19V16.5H21.5L22.5 15.5L23.5 14.5V13L23 12L22 11.5ZM10.5 17L9.5 16H8.5V17.5L10 18.5H14L15.5 17.5V16H14.5L13.25 17H10.5Z" fill="#FDAE90"/>
<path d="M9.5 16L10.5 17H13.25L14.5 16H15.5V17.5L14 18.5H10L8.5 17.5V16H9.5Z" fill="#DE8A6E"/>
<path d="M22.5 24H30V26.5L28 29H25L22.5 26.5V24Z" fill="white"/>
<path d="M1 9L3 11L4.5 12.5H7H8.5H10L10.5 12.4L12.5 12L13.25 11.5L14 11L15.5 9L16.5 6.5H18L19 8V11H21V6L19 3.5L17 1.5L14.5 0H9.5L7 1L4 4H0V7L1 9Z" fill="#FEDA02"/>
<path d="M22 11.5L23 12L23.5 13V14.5L22.5 15.5L21.5 16.5H19.5V19L27 18L30.5 14.5L33.5 18.5V19.5H36.25L35.5 19L34.5 15L32 12.5L28.5 10H26L24 10.5L22 11.5Z" fill="#35363A"/>
<path d="M37 24L36 25H34V27.5L32.5 30L30 32L28 33H24.5L22 32L20 30L18.5 27.5V25L16 24.5L14.5 29.5V32L15.5 34L17.5 35H34.5L36.5 34L38 32V29.5L37.5 27L37 24Z" fill="#35363A"/>
</svg>
