<svg width="35" height="30" viewBox="0 0 35 30" fill="none" xmlns="http://www.w3.org/2000/svg">
<path d="M4.61636 10.2774C4.27749 11.8023 4.61636 12.7153 4.61636 14.2774C7.54529 14.2774 9.18743 14.2774 12.1164 14.2774C12.8974 14.0821 13.3353 13.9726 14.1164 13.7774C14.8974 13.3869 15.3353 13.1679 16.1164 12.7774C16.9358 12.4755 17.3832 12.2518 18.1164 11.7774C19.5074 10.8773 20.0763 10.0671 21.1164 8.77738C22.0003 7.68133 23.1164 5.77738 23.1164 5.77738L26.6164 9.77738V12.2774L27.1164 13.2774L29.6164 15.2774V17.2774V18.7774L28.1164 19.7774L26.6164 20.2774V22.7774L26.1164 24.2774L24.6164 26.2774C24.6164 26.2774 23.3974 27.4963 22.6164 28.2774C23.5916 28.3238 24.1412 28.3238 25.1164 28.2774C26.6888 28.2025 27.617 28.2572 29.1164 27.7774C30.3639 27.3782 31.1901 27.2036 32.1164 26.2774C33.0426 25.3512 33.2565 24.5368 33.6164 23.2774C34.1528 21.3999 34.2821 20.113 33.6164 18.2774C32.9086 16.3261 30.1164 14.2774 30.1164 14.2774C30.1164 14.2774 30.2887 12.4362 30.1164 11.2774C29.8709 9.62722 29.4768 8.7067 28.6164 7.27738C27.477 5.38472 26.4327 4.53484 24.6164 3.27738C23.1804 2.28327 22.2856 1.79099 20.6164 1.27738C17.6303 0.358598 15.522 0.129463 12.6164 1.27738C10.2907 2.19616 9.246 3.38076 7.61636 5.27738C5.98672 7.17399 5.11034 8.05448 4.61636 10.2774Z" fill="#8F69CC"/>
<path d="M4.61636 17.7774C4.61636 17.7774 4.61636 15.6442 4.61636 14.2774C3.50491 14.5244 2.85733 14.9129 2.11636 15.7774C1.54806 16.4404 1.41567 16.957 1.11636 17.7774C0.840407 18.5337 0.724175 18.9795 0.61636 19.7774C0.485614 20.7449 0.438584 21.3174 0.61636 22.2774C0.80783 23.3113 1.0967 23.8632 1.61636 24.7774C2.09885 25.6261 2.35863 26.1617 3.11636 26.7774C3.79409 27.328 4.33531 27.3869 5.11636 27.7774C5.50688 27.9726 5.71371 28.1085 6.11636 28.2774C8.45727 29.2591 10.078 28.2774 12.6164 28.2774C11.64 27.4963 10.1164 26.2774 10.1164 26.2774L8.61636 24.2774L8.11636 22.2774V19.7774H6.11636L4.61636 17.7774Z" fill="#8F69CC"/>
<path d="M18.1164 12.2774V16.7774C18.1164 16.7774 18.29 17.4873 18.6164 17.7774C19.2001 18.2963 20.0326 18.2963 20.6164 17.7774C20.9427 17.4873 21.1164 16.7774 21.1164 16.7774V12.2774H18.1164Z" fill="#BE7C32"/>
<path d="M14.1164 13.7774C13.7258 13.875 13.1164 14.0274 13.1164 14.0274V17.2774C13.1164 17.2774 13.5924 18.1027 14.1164 18.2774C14.4868 18.4009 14.7459 18.4009 15.1164 18.2774C15.6403 18.1027 16.1164 17.2774 16.1164 17.2774C16.1164 17.2774 16.1164 14.5347 16.1164 12.7774C15.3353 13.1679 14.8974 13.3869 14.1164 13.7774Z" fill="#BE7C32"/>
<path d="M12.6164 19.2774C12.6164 19.2774 12.205 21.1804 12.6164 22.2774C13.1012 23.5702 13.8396 24.2517 15.1164 24.7774C16.3802 25.2978 17.3525 25.2978 18.6164 24.7774C19.8931 24.2517 20.6316 23.5702 21.1164 22.2774C21.5277 21.1804 21.1164 19.2774 21.1164 19.2774H12.6164Z" fill="white"/>
<path fill-rule="evenodd" clip-rule="evenodd" d="M22.6164 28.2774C23.3974 27.4963 24.6164 26.2774 24.6164 26.2774L26.1164 24.2774L26.6164 22.7774V20.2774L28.1164 19.7774L29.6164 18.7774V17.2774V15.2774L27.1164 13.2774L26.6164 12.2774V9.77738L23.1164 5.77738C23.1164 5.77738 22.0003 7.68133 21.1164 8.77738C20.0763 10.0671 19.5074 10.8773 18.1164 11.7774C17.3832 12.2518 16.9358 12.4755 16.1164 12.7774C16.1164 14.5347 16.1164 17.2774 16.1164 17.2774C16.1164 17.2774 15.6403 18.1027 15.1164 18.2774C14.7459 18.4009 14.4868 18.4009 14.1164 18.2774C13.5924 18.1027 13.1164 17.2774 13.1164 17.2774V14.0274C13.1164 14.0274 12.5069 14.1797 12.1164 14.2774C9.18743 14.2774 7.54529 14.2774 4.61636 14.2774C4.61636 15.6442 4.61636 17.7774 4.61636 17.7774L6.11636 19.7774H8.11636V22.2774L8.61636 24.2774L10.1164 26.2774C10.1164 26.2774 11.64 27.4963 12.6164 28.2774C13.3429 28.7618 13.7929 28.9867 14.6164 29.2774C16.8259 30.0572 18.4068 30.0572 20.6164 29.2774C21.4398 28.9867 21.8353 28.6679 22.6164 28.2774ZM18.1164 16.7774V12.2774H21.1164V16.7774C21.1164 16.7774 20.9427 17.4873 20.6164 17.7774C20.0326 18.2963 19.2001 18.2963 18.6164 17.7774C18.29 17.4873 18.1164 16.7774 18.1164 16.7774ZM12.6164 22.2774C12.205 21.1804 12.6164 19.2774 12.6164 19.2774H21.1164C21.1164 19.2774 21.5277 21.1804 21.1164 22.2774C20.6316 23.5702 19.8931 24.2517 18.6164 24.7774C17.3525 25.2978 16.3802 25.2978 15.1164 24.7774C13.8396 24.2517 13.1012 23.5702 12.6164 22.2774Z" fill="#F6AD69"/>
</svg>
