<svg width="77" height="76" viewBox="0 0 77 76" fill="none" xmlns="http://www.w3.org/2000/svg">
<path d="M33 35.5V30.5L34.5 29.5L39.5 32.5L45 31L46 32L44.5 37.5L47 42.5L46 44H41L38 48H36L33.5 42.5L28.5 40.5V39L33 35.5Z" fill="white"/>
<path fill-rule="evenodd" clip-rule="evenodd" d="M14 36.5L13.5 35V33.5V32L33 12.5H35.5L37 13L63.5 39.5L64 41.5V43.5L63.5 44.5L45 63H40.5L14 36.5ZM34 15L16 33.5V35.5L41.5 61H43.5L61.5 43V41L35.5 15H34Z" fill="white"/>
<path fill-rule="evenodd" clip-rule="evenodd" d="M29 0L20 8.5V10L20.5 11.5L21 13V14.5V15.7546L20 17.5L18 19.5L16.5 20H14.5L12.5 19.5L10 18.5L0.5 28V31L45.5 76H48.5L58 67L57 64.5L56.5 62V60.5L57 59L58.5 57L60 56L61 55.5H62.5H63.5H64.5L65.5 56L66 56.5L66.5 57H67H68L68.5 56.5L76.5 48V44.5L31.5 0H29ZM13.5 35L14 36.5L40.5 63H45L63.5 44.5L64 43.5V41.5L63.5 39.5L37 13L35.5 12.5H33L13.5 32V33.5V35Z" fill="#EE4848"/>
<path fill-rule="evenodd" clip-rule="evenodd" d="M16 33.5L34 15H35.5L61.5 41V43L43.5 61H41.5L16 35.5V33.5ZM33 30.5V35.5L28.5 39V40.5L33.5 42.5L36 48H38L41 44H46L47 42.5L44.5 37.5L46 32L45 31L39.5 32.5L34.5 29.5L33 30.5Z" fill="#EE4848"/>
</svg>
