<svg width="349" height="134" viewBox="0 0 349 134" fill="none" xmlns="http://www.w3.org/2000/svg">
<rect width="349" height="134" fill="#A5ED6F"/>
<path d="M65.5 92.686C86.2018 92.686 103 75.954 103 55.2943C103 34.6345 86.2018 17.9026 65.5 17.9026C44.7982 17.9026 28 34.6345 28 55.2943C28 75.954 44.7982 92.686 65.5 92.686Z" fill="#FDE46D" stroke="#8FE34D" stroke-width="6"/>
<path fill-rule="evenodd" clip-rule="evenodd" d="M41.5 74.6101V80.7347L46 84.5036L50 86.3881L55.5 88.7437L60.5 90.1571H68.5L72 89.6859L76 88.7437L79.5 87.3303L85 84.5036L88.5 81.6769L90.5 79.7924V76.0235L89.5 72.7257L87.5 69.4278L85.5 67.5433L82 64.7166H80L79 64.2455H68.5L68 65.1877L66 66.13L64 65.6589L62.5 64.2455V62.8321L60 61.4188H55.5L52 64.7166L50 65.1877L46 68.0145L43.5 70.8412L41.5 74.6101ZM56.5 65.1877L58 64.7166H59.5L63.5 68.4856H67L69 71.3123V75.0812L67 76.9657H62.5L61 76.4946L58 75.0812L56.5 73.6679L55 71.7834L54 70.3701V67.5433L55 65.6589L56.5 65.1877Z" fill="#575143"/>
<path d="M69 61.4188L73.5 60.0054V56.2365L72 54.352H70.5L69.5 56.7076L68 57.1787V60.7121L69 61.4188Z" fill="#575143"/>
<path d="M57.5 58.5921L63 60.4766V55.7654L61.5 54.352H59.5V56.2365L57.5 56.7076V58.5921Z" fill="#575143"/>
<path d="M80 33.6228L78 32.4921L65.5 42.1029L67.6522 43.5163L80 33.6228Z" fill="#1778A3"/>
<path d="M43.5 64.2455L46 68.0145L50 65.1877V52.4675L65.5 42.1029L78 32.4921L75 30.796L70 29.3827H62L56.5 30.3249L50.5 33.6228L46 38.334L42.5 43.9874L41 48.6986V55.2942L41.5 59.5343L43.5 64.2455Z" fill="#1E8FB9"/>
<path d="M85 38.334L80 33.6228L67.6522 43.5163L82 52.9386V64.7166L85.5 67.5433L87 64.7166L89 60.4766L90 56.2365V51.0542L89.5 47.2852L88 43.9874L85 38.334Z" fill="#1E8FB9"/>
<path fill-rule="evenodd" clip-rule="evenodd" d="M50 65.1877L52 64.7166L55.5 61.4188H60L62.5 62.8321V64.2455L64 65.6589L66 66.13L68 65.1877L68.5 64.2455H79L80 64.7166H82V52.9386L67.6522 43.5163L65.5 42.1029L50 52.4675V65.1877ZM73.5 60.0054L69 61.4188L68 60.7121L67 60.0054V54.352L68 52.4675L71 50.5831H75L78.5 53.8809V60.0054H73.5ZM64.5 59.5343L63 60.4766L57.5 58.5921H53V53.8809L56.5 50.5831H61L63.5 52.4675L64.5 54.352V59.5343Z" fill="#CD835E"/>
<path d="M63 60.4766L64.5 59.5343V54.352L63.5 52.4675L61 50.5831H56.5L53 53.8809V58.5921H57.5V56.7076L59.5 56.2365V54.352H61.5L63 55.7654V60.4766Z" fill="white"/>
<path d="M73.5 60.0054H78.5V53.8809L75 50.5831H71L68 52.4675L67 54.352V60.0054L68 60.7121V57.1787L69.5 56.7076L70.5 54.352H72L73.5 56.2365V60.0054Z" fill="white"/>
<path d="M58 64.7166L56.5 65.1877L55 65.6589L54 67.5433V70.3701L55 71.7834L56.5 73.6679L58 75.0812L61 76.4946L62.5 76.9657H67L69 75.0812V71.3123L67 68.4856H63.5L59.5 64.7166H58Z" fill="white"/>
<path d="M292.5 74.7834C313.202 74.7834 330 58.0514 330 37.3917C330 16.7319 313.202 0 292.5 0C271.798 0 255 16.7319 255 37.3917C255 58.0514 271.798 74.7834 292.5 74.7834Z" fill="#D7FFB9" stroke="#8FE34D" stroke-width="6"/>
<path d="M235 65.1877L255 52.9386L258.5 59.0631L237 72.2545L235 65.1877Z" fill="#8FE34D"/>
<path d="M189 126.606C214.365 126.606 235 106.319 235 81.2057C235 56.092 214.365 35.8049 189 35.8049C163.635 35.8049 143 56.092 143 81.2057C143 106.319 163.635 126.606 189 126.606Z" fill="#DDF4FC" stroke="#8FE34D" stroke-width="6"/>
<path d="M165 59.0632L161 64.7167L161.5 65.1878L166 65.6589L168.5 65.1878L173 61.4188L177 59.0632L181 57.1788L184 56.2365H195L196 56.7076L199.5 58.121L203.5 60.4766L207 63.3033L211 68.0145L213 73.1968L214.5 76.0235V86.3881L213.5 90.6282L211 94.8683L206.5 100.051L206.488 100.058L204 103.348L194.5 109.237L185 111.829L174.75 112.535L177.5 113.713V117.482L179.5 119.838L196 120.309L194 123.607L199.5 122.664L205.5 120.78L203 112.771L205 111.829L210 108.531L214.5 103.82L217.5 99.5795L219.5 95.3394L220.5 90.6282L221.5 86.8593V75.5524L220.5 71.7834L218 66.13L214 60.0055L208.5 55.2943L203.5 51.9964L198.5 50.112L192.5 48.6986H184L176.5 51.0542L170 54.8232L165 59.0632Z" fill="#FCBBE5"/>
<path d="M162 101.464L167 107.117L169.5 109.237H181.5L192.5 106.175H183.5L177 103.82L171.5 100.051L167.5 94.8683L165 90.6282L163.5 86.3881V79.7925L164 75.0813L161 73.1968L158.5 70.3701L157 73.6679V75.366V89.686L159 95.8105L162 101.464Z" fill="#FCBBE5"/>
<path d="M182.5 123.135L185 123.607H188H194L196 120.309L179.5 119.838L178.5 122.193L182.5 123.135Z" fill="#29B3EF"/>
<path d="M157.5 65.1878L158.5 70.3701L161 73.1968L164 75.0813L170 75.5524L173.5 75.2526L175.5 75.0813L181.5 74.139L182 73.9371L188.5 71.3123L195 67.5434L199.5 63.7744L203.5 60.4766L199.5 58.121L196 56.7076L195 56.2365H184L181 57.1788L177 59.0632L173 61.4188L168.5 65.1878L166 65.6589L161.5 65.1878L161 64.7167L157.5 65.1878Z" fill="#464749"/>
<path d="M196.5 85.4459L199.5 83.5614L200 82.6192V78.8502L198 76.0235H194.5V78.3791L193.5 79.3214H192V83.0903L194.5 85.4459H196.5Z" fill="#464749"/>
<path d="M178.5 82.6192L181.5 83.5614L184.5 84.9748L186.5 83.5614V78.3791L184.5 76.0235H182V78.8502L181 79.3214H178.5V82.6192Z" fill="#464749"/>
<path fill-rule="evenodd" clip-rule="evenodd" d="M170 75.5524L164 75.0813L163.5 79.7925V86.3881L165 90.6282L167.5 94.8683L171.5 100.051L177 103.82L183.5 106.175H192.5L200.5 103.82L206.488 100.058L206.5 100.051L211 94.8683L213.5 90.6282L214.5 86.3881V76.0235L213 73.1968L211 68.0145L207 63.3033L203.5 60.4766L199.5 63.7744L195 67.5434L188.5 71.3123L182 73.9371L184.5 74.6102L187 76.9658L188.5 78.8502V83.5614L186.5 86.3881L184.5 84.9748L181.5 83.5614L178.5 82.6192L175.5 82.1481H173.5L172 80.7347V76.9658L173.5 75.2526L170 75.5524ZM196.5 85.4459L194 86.8593H192.5L190 83.5614V78.8502L191.5 76.9658L194.5 74.6102L197 73.1968H201.5L203.5 73.6679L206.5 76.9658V81.6769L203.5 82.6192L199.5 83.5614L196.5 85.4459ZM187 92.5127L186 91.0993H185V92.9838L185.5 93.926L187 94.8683L188 95.8105H190L191.5 95.3394L192.5 94.3972L194 92.9838V91.0993H192.5L191.5 92.5127L190 93.926H188L187 92.5127ZM187 87.8015L189 84.5037L191.5 87.8015V89.686L190.5 91.0993H188L187 89.686V87.8015Z" fill="#E09379"/>
<path d="M181.5 74.139L175.5 75.0813L173.5 75.2526L172 76.9658V80.7347L173.5 82.1481H175.5L178.5 82.6192V79.3214H181L182 78.8502V76.0235H184.5L186.5 78.3791V83.5614L184.5 84.9748L186.5 86.3881L188.5 83.5614V78.8502L187 76.9658L184.5 74.6102L182 73.9371L181.5 74.139Z" fill="#FDFFFD"/>
<path d="M194 86.8593L196.5 85.4459H194.5L192 83.0903V79.3214H193.5L194.5 78.3791V76.0235H198L200 78.8502V82.6192L199.5 83.5614L203.5 82.6192L206.5 81.6769V76.9658L203.5 73.6679L201.5 73.1968H197L194.5 74.6102L191.5 76.9658L190 78.8502V83.5614L192.5 86.8593H194Z" fill="#FDFFFD"/>
<path d="M200.5 103.82L192.5 106.175L181.5 109.237H169.5L172 111.357L174.75 112.535L185 111.829L194.5 109.237L204 103.348L206.488 100.058L200.5 103.82Z" fill="#F8A1D6"/>
<path d="M189 84.5037L187 87.8015V89.686L188 91.0993H190.5L191.5 89.686V87.8015L189 84.5037Z" fill="#A1553D"/>
<path d="M186 91.0993L187 92.5127L188 93.926H190L191.5 92.5127L192.5 91.0993H194V92.9838L192.5 94.3972L191.5 95.3394L190 95.8105H188L187 94.8683L185.5 93.926L185 92.9838V91.0993H186Z" fill="#A1553D"/>
<path d="M273.5 20.9026L271.5 23.7293H285L285.5 24.6715L287 26.0849L289 27.4983L292 28.4405H296L299 26.556L301 24.6715L301.5 23.7293H315.5V23.2582L314.5 21.8448L311 19.4892H303V16.1914L301.5 13.3647L299.5 10.538H287.5L285 13.3647L282 11.0091L280.5 13.8358V17.6048L281.5 19.4892H276.5L273.5 20.9026Z" fill="#F2C32B"/>
<path d="M316.5 35.9784V29.3827H309V35.9784L310.5 38.334L312.5 36.9206L314.5 35.9784H316.5Z" fill="#F2C32B"/>
<path d="M316.5 53.8809V44.4585H312.5V65.6589H313L318.5 60.4766L322 56.2365L323.5 53.8809H316.5Z" fill="#F2C32B"/>
<path d="M270 53.8809H263L262.5 54.352L263.5 56.2365L265 58.121L266.5 60.0055L267.5 61.4188L270 63.7744L272.5 65.6589H273V44.4585H270V53.8809Z" fill="#F2C32B"/>
<path d="M270 29.3827V35.9784H273L275.5 38.334L277 35.9784V29.3827H270Z" fill="#F2C32B"/>
<path fill-rule="evenodd" clip-rule="evenodd" d="M267 42.5741L270 44.4585H273V65.6589H291.5H295.5H312.5V44.4585H316.5L317 43.9874L319 42.1029V38.334L318 37.3918L316.5 35.9784H314.5L312.5 36.9206L310.5 38.334L309 35.9784V29.3827H277V35.9784L275.5 38.334L273 35.9784H270L267 37.8629V42.5741ZM282 41.1607V34.565L284 32.2094L285.5 30.7961H288L290.5 31.7383L292.5 34.565V41.1607L290 43.9874L286.5 44.4585L284 43.5163L282 41.1607ZM294.5 41.1607V34.565L295 33.1517L297.5 30.7961H301L302.5 31.7383L304.5 34.565V41.1607L301.5 44.4585H298L296 43.5163L294.5 41.1607ZM291.5 43.5163L293.5 40.2185L295.5 43.5163V45.8719L294.5 46.8141H292.5L291.5 45.8719V43.5163ZM282.5 44.9297H286L290.5 48.6986H291H293L295 51.0542V51.9964V54.352L292.5 56.2365H288L286.25 55.5298L284.5 54.8232L282 52.4676L280.5 50.112V47.2853L282.5 44.9297Z" fill="#F7D2B7"/>
<path fill-rule="evenodd" clip-rule="evenodd" d="M282 34.565V41.1607L284 43.5163L286.5 44.4585L290 43.9874L292.5 41.1607V34.565L290.5 31.7383L288 30.7961H285.5L284 32.2094L282 34.565ZM288 34.0939V35.5073V35.9784H286.5V40.2185L288 41.6318H290L291 40.2185V35.5073L290 34.0939H288Z" fill="white"/>
<path fill-rule="evenodd" clip-rule="evenodd" d="M294.5 34.565V41.1607L296 43.5163L298 44.4585H301.5L304.5 41.1607V34.565L302.5 31.7383L301 30.7961H297.5L295 33.1517L294.5 34.565ZM295.5 39.7474V35.9784H297L297.5 35.5073V33.6228H299L300.5 35.9784V39.7474L299 41.6318H297.5L295.5 39.7474Z" fill="white"/>
<path d="M286 44.9297H282.5L280.5 47.2853L282 49.1697H285.5L286.5 47.7564L287.5 49.1697H290.5L291 48.6986H290.5L286 44.9297Z" fill="white"/>
<path d="M290 71.7835H297L295.5 65.6589H291.5L290 71.7835Z" fill="white"/>
<path d="M268.5 28.4405L270 29.3827H277H309H316.5L318 28.4405V23.7293H315.5H301.5L301 24.6715L299 26.556L296 28.4405H292L289 27.4983L287 26.0849L285.5 24.6715L285 23.7293H271.5H270L268.5 24.2004V28.4405Z" fill="#F87266"/>
<path d="M283.5 70.8412L290 71.7835L291.5 65.6589H273H272.5L276.5 68.0145L283.5 70.8412Z" fill="#F87266"/>
<path d="M305.5 69.4279L313 65.6589H312.5H295.5L297 71.7835L305.5 69.4279Z" fill="#F87266"/>
<path d="M288 35.5073V34.0939H290L291 35.5073V40.2185L290 41.6318H288L286.5 40.2185V35.9784H288V35.5073Z" fill="#5E6A56"/>
<path d="M295.5 35.9784V39.7474L297.5 41.6318H299L300.5 39.7474V35.9784L299 33.6228H297.5V35.5073L297 35.9784H295.5Z" fill="#5E6A56"/>
<path d="M280.5 47.2853V50.112L282 52.4676L284.5 54.8232L286.25 55.5298L289.5 52.9387L291.5 51.9964H295V51.0542L293 48.6986H291L290.5 49.1697H287.5L286.5 47.7564L285.5 49.1697H282L280.5 47.2853Z" fill="#895349"/>
<path d="M288 56.2365H292.5L295 54.352V51.9964H291.5L289.5 52.9387L286.25 55.5298L288 56.2365Z" fill="#BA6350"/>
<path d="M293.5 40.2185L291.5 43.5163V45.8719L292.5 46.8141H294.5L295.5 45.8719V43.5163L293.5 40.2185Z" fill="#ECB889"/>
<path d="M105 61.4188L141 71.3123L140.5 78.3791L103.5 68.0145L105 61.4188Z" fill="#8FE34D"/>
<path d="M223 115.126L246 133.5H258L228 110.886L223 115.126Z" fill="#8FE34D"/>
</svg>
