<svg width="65" height="50" viewBox="0 0 65 50" fill="none" xmlns="http://www.w3.org/2000/svg">
<g clip-path="url(#clip0_367_305)">
<path fill-rule="evenodd" clip-rule="evenodd" d="M0 32.353H65V16.1765H0V32.353Z" fill="#0C47B7"/>
<path fill-rule="evenodd" clip-rule="evenodd" d="M0 16.1765H65V0H0V16.1765Z" fill="#F5F5F5"/>
<path fill-rule="evenodd" clip-rule="evenodd" d="M0 50H65V32.3529H0V50Z" fill="#E53B35"/>
<g clip-path="url(#clip1_367_305)">
<path d="M503.154 -233.75H-16.6923V92.0833H503.154V-233.75Z" fill="#D8D8D8"/>
<path d="M62 25H31V27.5492H62V25Z" fill="#DC4437"/>
<path d="M62 30.1176H31V32.6667H62V30.1176Z" fill="#DC4437"/>
<path d="M62 40.3334H31V42.8825H62V40.3334Z" fill="#DC4437"/>
<path d="M62 45.4508H31V48H62V45.4508Z" fill="#DC4437"/>
<path d="M62 35.2158H31V37.765H62V35.2158Z" fill="#DC4437"/>
<path d="M62 27.5492H31V30.0984H62V27.5492Z" fill="white"/>
<path d="M62 32.6666H31V35.2158H62V32.6666Z" fill="white"/>
<path d="M62 42.8824H31V45.4316H62V42.8824Z" fill="white"/>
<path d="M62 37.7842H31V40.3333H62V37.7842Z" fill="white"/>
<path d="M47.6923 25H31V37.7842H47.6923V25Z" fill="#2A66B7"/>
<path d="M34.2192 25.7667L34.7677 26.7059L36.0077 26.8592L35.1015 27.6067L35.3161 28.6417L34.2192 28.1434L33.1223 28.6417L33.3369 27.6067L32.4308 26.8592L33.6708 26.7059L34.2192 25.7667Z" fill="white"/>
<path d="M39.1077 25.7667L39.6562 26.7059L40.8962 26.8592L40.0139 27.6067L40.2046 28.6417L39.1077 28.1434L38.0108 28.6417L38.2016 27.6067L37.3192 26.8592L38.5592 26.7059L39.1077 25.7667Z" fill="white"/>
<path d="M43.9962 25.7667L44.5446 26.7059L45.7846 26.8592L44.8785 27.6067L45.0931 28.6417L43.9962 28.1434L42.8992 28.6417L43.1139 27.6067L42.2077 26.8592L43.4477 26.7059L43.9962 25.7667Z" fill="white"/>
<path d="M36.7231 29.6L37.2715 30.5391L38.5115 30.6925L37.6292 31.44L37.82 32.475L36.7231 31.9766L35.6261 32.475L35.8169 31.44L34.9346 30.6925L36.1746 30.5391L36.7231 29.6Z" fill="white"/>
<path d="M41.6116 29.6L42.16 30.5391L43.4 30.6925L42.4939 31.44L42.7085 32.475L41.6116 31.9766L40.5146 32.475L40.7292 31.44L39.8231 30.6925L41.0631 30.5391L41.6116 29.6Z" fill="white"/>
<path d="M34.2192 33.6633L34.7677 34.6025L36.0077 34.7558L35.1015 35.4842L35.3161 36.5383L34.2192 36.04L33.1223 36.5383L33.3369 35.4842L32.4308 34.7558L33.6708 34.6025L34.2192 33.6633Z" fill="white"/>
<path d="M39.1077 33.6633L39.6562 34.6025L40.8962 34.7558L40.0139 35.4842L40.2046 36.5383L39.1077 36.04L38.0108 36.5383L38.2016 35.4842L37.3192 34.7558L38.5592 34.6025L39.1077 33.6633Z" fill="white"/>
<path d="M43.9962 33.6633L44.5446 34.6025L45.7846 34.7558L44.8785 35.4842L45.0931 36.5383L43.9962 36.04L42.8992 36.5383L43.1139 35.4842L42.2077 34.7558L43.4477 34.6025L43.9962 33.6633Z" fill="white"/>
</g>
<rect x="30" y="24" width="33" height="25" rx="4" stroke="black" stroke-width="2"/>
</g>
<defs>
<clipPath id="clip0_367_305">
<rect width="65" height="50" rx="8" fill="white"/>
</clipPath>
<clipPath id="clip1_367_305">
<rect x="31" y="25" width="31" height="23" rx="3" fill="white"/>
</clipPath>
</defs>
</svg>
