<svg width="62" height="69" viewBox="0 0 62 69" fill="none" xmlns="http://www.w3.org/2000/svg">
<path fill-rule="evenodd" clip-rule="evenodd" d="M9.21622 0H53.6216L56.1351 0.8625L58.6486 3.45L60.3243 5.175L62 7.7625V41.4L61.1622 45.7125L59.4865 50.025L56.973 54.3375L54.4595 58.65L51.1081 62.1L46.9189 65.55L41.8919 68.1375L37.7027 69H23.4595L20.1081 68.1375L15.0811 65.55L10.8919 62.1L6.7027 58.65L3.35135 54.3375L0.837838 50.025L0 45.7125V41.4V7.7625L0.837838 5.175L2.51351 3.45L5.02703 0.8625L9.21622 0ZM52.7838 7.7625H9.21622L7.54054 9.4875V39.675L9.21622 45.7125L10.8919 49.1625L13.4054 52.6125L17.5946 55.2L22.6216 57.7875L25.1351 58.65H35.1892L39.3784 57.7875L43.5676 56.0625L46.9189 54.3375L49.4324 51.75L51.1081 49.1625L52.7838 45.7125L54.4595 39.675V9.4875L52.7838 7.7625Z" fill="#D6E4EF"/>
<path d="M9.21622 7.7625H52.7838L54.4595 9.4875V39.675L52.7838 45.7125L51.1081 49.1625L49.4324 51.75L46.9189 54.3375L43.5676 56.0625L39.3784 57.7875L35.1892 58.65H25.1351L22.6216 57.7875L17.5946 55.2L13.4054 52.6125L10.8919 49.1625L9.21622 45.7125L7.54054 39.675V9.4875L9.21622 7.7625Z" fill="#C3D1DE"/>
<path d="M16 36.5L18 45L28.5 47L32.5 44L29 41H36L47.5 28V21.5L42 15H36.5L28 21V28L25 25L16 34.5V36.5Z" fill="#92A7BA"/>
<path d="M15 48L37.5 25.5" stroke="#728CA3" stroke-width="2" stroke-linecap="round"/>
</svg>
