<svg width="25" height="28" viewBox="0 0 25 28" fill="none" xmlns="http://www.w3.org/2000/svg">
<path fill-rule="evenodd" clip-rule="evenodd" d="M3.66537 0.5H21.3258L22.3254 0.8375L23.3251 1.85L23.9915 2.525L24.658 3.5375V16.7L24.3247 18.3875L23.6583 20.075L22.6587 21.7625L21.659 23.45L20.3262 24.8L18.6601 26.15L16.6608 27.1625L14.9947 27.5H9.33004L7.99718 27.1625L5.99788 26.15L4.3318 24.8L2.66573 23.45L1.33286 21.7625L0.333216 20.075L0 18.3875V16.7V3.5375L0.333216 2.525L0.999647 1.85L1.99929 0.8375L3.66537 0.5ZM20.9926 3.5375H3.66537L2.99894 4.2125V16.025L3.66537 18.3875L4.3318 19.7375L5.33145 21.0875L6.99753 22.1L8.99682 23.1125L9.99647 23.45H13.9951L15.6611 23.1125L17.3272 22.4375L18.6601 21.7625L19.6597 20.75L20.3262 19.7375L20.9926 18.3875L21.659 16.025V4.2125L20.9926 3.5375Z" fill="#D6E4EF"/>
<path d="M3.66537 3.5375H20.9926L21.659 4.2125V16.025L20.9926 18.3875L20.3262 19.7375L19.6597 20.75L18.6601 21.7625L17.3272 22.4375L15.6611 23.1125L13.9951 23.45H9.99647L8.99682 23.1125L6.99753 22.1L5.33145 21.0875L4.3318 19.7375L3.66537 18.3875L2.99894 16.025V4.2125L3.66537 3.5375Z" fill="#C3D1DE"/>
<path d="M6.36328 14.7824L7.1587 18.1085L11.3346 18.8911L12.9255 17.7172L11.5335 16.5433H14.3175L18.8911 11.4563V8.91286L16.7037 6.36938H14.5163L11.1358 8.71721V11.4563L9.94266 10.2824L6.36328 13.9998V14.7824Z" fill="#92A7BA"/>
<path d="M5.96582 19.2826L14.9143 10.4782" stroke="#728CA3" stroke-width="2" stroke-linecap="round"/>
</svg>
