<svg width="106" height="74" viewBox="0 0 106 74" fill="none" xmlns="http://www.w3.org/2000/svg">
<path fill-rule="evenodd" clip-rule="evenodd" d="M4 66.5L6 69H23.1411L24 66L25.5 63.5H40L42 66L43 69H67V67.5L68 65L70.5 63H83L84.5 64L85.5 65L86 66L86.5 67V69H104.5L105.5 68.5L106 67V64.5L82.5 59L79.5 52L76 47L71 42H64L63 41.5L60.5 40L59.5 38H51L50.5 39.5L49 41L47 42H40.7L36.5 45L31.5 51.5L29.5 56L29 59L5.5 64L4 66.5ZM53.5 46H44.5L45.5 48L47.5 50H51L52.5 48L53.5 46ZM67.5 46H58.5L59 48L61.5 50H65.5L67 48L67.5 46ZM60.5 53H51.5V54.5L52.5 56L54.5 57H57.5L59 56L60.5 54.5V53Z" fill="#7AC601"/>
<path d="M51.5 53H60.5V54.5L59 56L57.5 57H54.5L52.5 56L51.5 54.5V53Z" fill="#8EE000"/>
<path d="M58.5 46H67.5L67 48L65.5 50H61.5L59 48L58.5 46Z" fill="#8EE000"/>
<path d="M44.5 46H53.5L52.5 48L51 50H47.5L45.5 48L44.5 46Z" fill="#8EE000"/>
<path d="M49.5 38L43.5 40L40.7 42H47L49 41L50.5 39.5L51 38H49.5Z" fill="#8DDF01"/>
<path d="M62.5 38H59.5L60.5 40L63 41.5L64 42H71L66 39.5L62.5 38Z" fill="#8DDF01"/>
<path d="M59.5 36L56.5 33L53.5 34.5L52 36.5L51 38H59.5V36Z" fill="#F49004"/>
<path d="M49.5 36V38H51L52 36.5L53.5 34.5L56.5 33H52.5L49.5 36Z" fill="#F8BC10"/>
<path d="M23.1411 69L24 71L26 73L27.5 73.5H39L40.5 73L42 71L43 69L42 66L40 63.5H25.5L24 66L23.1411 69Z" fill="#F48F00"/>
<path d="M86.5 70.5V69V67L86 66L85.5 65L84.5 64L83 63H70.5L68 65L67 67.5V69L67.5 70.5L68.5 72L69.5 73L70.5 73.5H82L83.5 73L85 72L86.5 70.5Z" fill="#F48F00"/>
<g filter="url(#filter0_d_631_321)">
<path d="M18 0H5.5L4 1.5V4L5.5 5.5H12.5L4 17.5V21L5.5 22.5H18L20 20.5V18.5L18 17H11L20 4V2L18 0Z" fill="#D9D9D9"/>
<path d="M25 22.5H28.5L23.5 30.5V33.5L25 35H35L37 33V30.5L35 29H31.5L37 21V18.5L35 17H25.5L23.5 18.5V21L25 22.5Z" fill="#D9D9D9"/>
</g>
<defs>
<filter id="filter0_d_631_321" x="0" y="0" width="41" height="43" filterUnits="userSpaceOnUse" color-interpolation-filters="sRGB">
<feFlood flood-opacity="0" result="BackgroundImageFix"/>
<feColorMatrix in="SourceAlpha" type="matrix" values="0 0 0 0 0 0 0 0 0 0 0 0 0 0 0 0 0 0 127 0" result="hardAlpha"/>
<feOffset dy="4"/>
<feGaussianBlur stdDeviation="2"/>
<feComposite in2="hardAlpha" operator="out"/>
<feColorMatrix type="matrix" values="0 0 0 0 0 0 0 0 0 0 0 0 0 0 0 0 0 0 0.25 0"/>
<feBlend mode="normal" in2="BackgroundImageFix" result="effect1_dropShadow_631_321"/>
<feBlend mode="normal" in="SourceGraphic" in2="effect1_dropShadow_631_321" result="shape"/>
</filter>
</defs>
</svg>
