<svg width="30" height="24" viewBox="0 0 30 24" fill="none" xmlns="http://www.w3.org/2000/svg">
<path d="M29.0698 20.3077C29.0698 21.287 28.7295 22.2261 28.1237 22.9185C27.518 23.611 26.6964 24 25.8398 24H3.22997C2.37333 24 1.55178 23.611 0.946038 22.9185C0.3403 22.2261 0 21.287 0 20.3077V3.69231C0 2.71305 0.3403 1.77389 0.946038 1.08145C1.55178 0.38901 2.37333 0 3.22997 0H25.8398C26.6964 0 27.518 0.38901 28.1237 1.08145C28.7295 1.77389 29.0698 2.71305 29.0698 3.69231V20.3077Z" fill="#C60A1D"/>
<path d="M0 6.46155H29.0698V17.5385H0V6.46155Z" fill="#FFC400"/>
<path d="M7.26733 11.0769V13.8461C7.26733 14.5806 7.52256 15.2849 7.97686 15.8043C8.43116 16.3236 9.04733 16.6154 9.68981 16.6154C10.3323 16.6154 10.9485 16.3236 11.4028 15.8043C11.8571 15.2849 12.1123 14.5806 12.1123 13.8461V11.0769H7.26733Z" fill="#EA596E"/>
<path d="M9.68994 10.1538H12.1124V12.923H9.68994V10.1538Z" fill="#F4A2B2"/>
<path d="M7.26733 10.1538H9.68981V12.923H7.26733V10.1538Z" fill="#DD2E44"/>
<path d="M9.68981 10.1538C11.0277 10.1538 12.1123 9.5339 12.1123 8.7692C12.1123 8.0045 11.0277 7.38458 9.68981 7.38458C8.35192 7.38458 7.26733 8.0045 7.26733 8.7692C7.26733 9.5339 8.35192 10.1538 9.68981 10.1538Z" fill="#EA596E"/>
<path d="M9.68981 8.7692C11.0277 8.7692 12.1123 8.45924 12.1123 8.07689C12.1123 7.69454 11.0277 7.38458 9.68981 7.38458C8.35192 7.38458 7.26733 7.69454 7.26733 8.07689C7.26733 8.45924 8.35192 8.7692 9.68981 8.7692Z" fill="#FFAC33"/>
<path d="M5.65234 10.1538H6.45984V16.6153H5.65234V10.1538ZM12.9198 10.1538H13.7273V16.6153H12.9198V10.1538Z" fill="#99AAB5"/>
<path d="M4.84497 15.6923H7.26745V16.6154H4.84497V15.6923ZM12.1124 15.6923H14.5349V16.6154H12.1124V15.6923ZM5.65246 9.23077H6.45996V10.1539H5.65246V9.23077ZM12.9199 9.23077H13.7274V10.1539H12.9199V9.23077Z" fill="#66757F"/>
</svg>
