<svg width="31" height="24" viewBox="0 0 31 24" fill="none" xmlns="http://www.w3.org/2000/svg">
<g clip-path="url(#clip0_340_600)">
<path d="M472.154 -270H-47.6924V70H472.154V-270Z" fill="#D8D8D8"/>
<path d="M31 0H0V2.66H31V0Z" fill="#DC4437"/>
<path d="M31 5.34003H0V8.00003H31V5.34003Z" fill="#DC4437"/>
<path d="M31 16H0V18.66H31V16Z" fill="#DC4437"/>
<path d="M31 21.34H0V24H31V21.34Z" fill="#DC4437"/>
<path d="M31 10.66H0V13.32H31V10.66Z" fill="#DC4437"/>
<path d="M31 2.65997H0V5.31997H31V2.65997Z" fill="white"/>
<path d="M31 8H0V10.66H31V8Z" fill="white"/>
<path d="M31 18.66H0V21.32H31V18.66Z" fill="white"/>
<path d="M31 13.34H0V16H31V13.34Z" fill="white"/>
<path d="M16.6923 0H0V13.34H16.6923V0Z" fill="#2A66B7"/>
<path d="M3.21913 0.799988L3.76759 1.77999L5.00759 1.93999L4.10143 2.71999L4.31605 3.79999L3.21913 3.27999L2.1222 3.79999L2.33682 2.71999L1.43066 1.93999L2.67066 1.77999L3.21913 0.799988Z" fill="white"/>
<path d="M8.1078 0.799988L8.65626 1.77999L9.89626 1.93999L9.01395 2.71999L9.20472 3.79999L8.1078 3.27999L7.01087 3.79999L7.20164 2.71999L6.31934 1.93999L7.55934 1.77999L8.1078 0.799988Z" fill="white"/>
<path d="M12.9962 0.799988L13.5447 1.77999L14.7847 1.93999L13.8785 2.71999L14.0931 3.79999L12.9962 3.27999L11.8993 3.79999L12.1139 2.71999L11.2078 1.93999L12.4478 1.77999L12.9962 0.799988Z" fill="white"/>
<path d="M5.72303 4.79999L6.27149 5.77999L7.51149 5.93999L6.62919 6.71999L6.81996 7.79999L5.72303 7.27999L4.62611 7.79999L4.81688 6.71999L3.93457 5.93999L5.17457 5.77999L5.72303 4.79999Z" fill="white"/>
<path d="M10.6115 4.79999L11.1599 5.77999L12.3999 5.93999L11.4938 6.71999L11.7084 7.79999L10.6115 7.27999L9.51454 7.79999L9.72915 6.71999L8.823 5.93999L10.063 5.77999L10.6115 4.79999Z" fill="white"/>
<path d="M3.21913 9.03998L3.76759 10.02L5.00759 10.18L4.10143 10.94L4.31605 12.04L3.21913 11.52L2.1222 12.04L2.33682 10.94L1.43066 10.18L2.67066 10.02L3.21913 9.03998Z" fill="white"/>
<path d="M8.1078 9.03998L8.65626 10.02L9.89626 10.18L9.01395 10.94L9.20472 12.04L8.1078 11.52L7.01087 12.04L7.20164 10.94L6.31934 10.18L7.55934 10.02L8.1078 9.03998Z" fill="white"/>
<path d="M12.9962 9.03998L13.5447 10.02L14.7847 10.18L13.8785 10.94L14.0931 12.04L12.9962 11.52L11.8993 12.04L12.1139 10.94L11.2078 10.18L12.4478 10.02L12.9962 9.03998Z" fill="white"/>
</g>
<defs>
<clipPath id="clip0_340_600">
<rect width="31" height="24" rx="3" fill="white"/>
</clipPath>
</defs>
</svg>
