<svg width="41" height="32" viewBox="0 0 41 32" fill="none" xmlns="http://www.w3.org/2000/svg">
<path d="M41 27.0769C41 28.3826 40.52 29.6348 39.6657 30.5581C38.8114 31.4813 37.6527 32 36.4444 32H4.55556C3.34735 32 2.18862 31.4813 1.33429 30.5581C0.479959 29.6348 0 28.3826 0 27.0769V4.92308C0 3.6174 0.479959 2.36519 1.33429 1.44194C2.18862 0.51868 3.34735 0 4.55556 0H36.4444C37.6527 0 38.8114 0.51868 39.6657 1.44194C40.52 2.36519 41 3.6174 41 4.92308V27.0769Z" fill="#C60A1D"/>
<path d="M0 8.61523H41V23.3845H0V8.61523Z" fill="#FFC400"/>
<path d="M10.2498 14.7693V18.4616C10.2498 19.4409 10.6097 20.38 11.2505 21.0725C11.8912 21.7649 12.7603 22.1539 13.6664 22.1539C14.5726 22.1539 15.4416 21.7649 16.0824 21.0725C16.7231 20.38 17.0831 19.4409 17.0831 18.4616V14.7693H10.2498Z" fill="#EA596E"/>
<path d="M13.6667 13.5385H17.0834V17.2308H13.6667V13.5385Z" fill="#F4A2B2"/>
<path d="M10.2498 13.5385H13.6664V17.2308H10.2498V13.5385Z" fill="#DD2E44"/>
<path d="M13.6664 13.5384C15.5534 13.5384 17.0831 12.7118 17.0831 11.6922C17.0831 10.6726 15.5534 9.84607 13.6664 9.84607C11.7794 9.84607 10.2498 10.6726 10.2498 11.6922C10.2498 12.7118 11.7794 13.5384 13.6664 13.5384Z" fill="#EA596E"/>
<path d="M13.6664 11.6922C15.5534 11.6922 17.0831 11.2789 17.0831 10.7691C17.0831 10.2593 15.5534 9.84607 13.6664 9.84607C11.7794 9.84607 10.2498 10.2593 10.2498 10.7691C10.2498 11.2789 11.7794 11.6922 13.6664 11.6922Z" fill="#FFAC33"/>
<path d="M7.97217 13.5385H9.11106V22.1538H7.97217V13.5385ZM18.2222 13.5385H19.3611V22.1538H18.2222V13.5385Z" fill="#99AAB5"/>
<path d="M6.8335 20.923H10.2502V22.1538H6.8335V20.923ZM17.0835 20.923H20.5002V22.1538H17.0835V20.923ZM7.97239 12.3076H9.11127V13.5384H7.97239V12.3076ZM18.2224 12.3076H19.3613V13.5384H18.2224V12.3076Z" fill="#66757F"/>
</svg>
