<svg width="105" height="108" viewBox="0 0 105 108" fill="none" xmlns="http://www.w3.org/2000/svg">
<path d="M46.6121 77.1429V79.1336L51.028 81.1244L53.972 80.6267L56.9159 77.6406V75.6498L52.9907 76.6452L46.6121 77.1429Z" fill="#89E119"/>
<path fill-rule="evenodd" clip-rule="evenodd" d="M26.0047 63.2074L28.9486 65.6959H30.4206L32.3832 64.7005L34.3458 63.2074L36.3084 61.2166L37.2897 59.2258V57.7327H35.8178L35.3271 56.7373V55.7419L37.2897 52.7558L40.7243 50.765H46.6121L48.5748 52.7558L50.5374 55.7419V56.7373L50.0467 57.7327H49.0654V60.2212L52.9907 64.2028L56.9159 66.6912L60.8411 67.1889L66.729 66.6912L71.1449 64.2028L74.0888 61.2166L76.5421 56.7373L77.5234 49.7696L78.014 42.8018V39.318L76.0514 35.3364L74.0888 32.3502L72.1262 30.3594V25.3825L70.1636 22.3963H68.6916L65.257 26.3779V21.4009L63.2944 19.4101H61.8224L50.5374 31.8525L46.6121 33.8433L44.6495 34.8387H39.743L37.2897 33.8433L34.8364 31.8525L29.4393 25.3825L24.0421 19.4101H22.0794L20.6075 26.3779L17.1729 22.3963H15.2103L14.229 30.3594L10.7944 33.3456L8.34112 38.3226V48.7742L8.83178 53.2535L9.81308 57.7327L12.2664 61.2166L15.7009 65.1152L18.1542 65.6221L19.1355 63.7051L21.0981 62.7097H24.0421L26.0047 63.2074ZM14.229 53.7512L13.7383 40.3134L14.229 38.3226L16.1916 36.3318L18.6449 34.341L21.5888 32.8479H25.514L27.9673 33.3456L31.4019 36.3318L34.3458 40.8111V54.2488L31.4019 59.2258L26.4953 61.7143L21.0981 61.2166L16.1916 58.2304L14.229 53.7512ZM51.5187 52.2581V41.8065V40.3134L52.9907 37.8249L55.4439 35.3364L59.3692 33.3456L63.785 32.8479L67.2196 34.341L70.6542 37.3272L72.6168 41.8065V50.2673L71.6355 54.7465L69.1822 58.7281L65.257 61.7143H60.8411L58.3879 61.2166L54.4626 58.7281L52.5 55.2442L51.5187 52.2581Z" fill="#89E119"/>
<path d="M49.0654 83.1152H38.3692L38.4564 85.106L40.7243 86.1014H45.6308L47.5935 85.106L49.0654 83.1152Z" fill="#89E119"/>
<path d="M40.7243 77.1429H38.1075L38.2383 80.129L40.7243 78.1383V77.1429Z" fill="#89E119"/>
<path fill-rule="evenodd" clip-rule="evenodd" d="M8.83178 87.5945L12.757 88.5899H15.7009L20.1168 87.5945L23.0607 84.1106L23.5514 80.6267L22.5701 78.1383L10.7944 70.1751L10.3037 66.1936L11.285 64.2028L15.7009 65.1152L12.2664 61.2166L9.81308 57.7327L8.83178 53.2535L8.34112 48.7742V38.3226L10.7944 33.3456L14.229 30.3594L15.2103 22.3963H17.1729L20.6075 26.3779L22.0794 19.4101H24.0421L29.4393 25.3825L34.8364 31.8525L37.2897 33.8433L39.743 34.8387H44.6495L46.6121 33.8433L50.5374 31.8525L61.8224 19.4101H63.2944L65.257 21.4009V26.3779L68.6916 22.3963H70.1636L72.1262 25.3825V30.3594L74.0888 32.3502L76.0514 35.3364L78.014 39.318V42.8018L77.5234 49.7696L76.5421 56.7373L74.0888 61.2166L71.1449 64.2028L66.729 66.6912L60.8411 67.1889L56.9159 66.6912L52.9907 64.2028L49.0654 60.2212V65.6959L47.7632 67.8525L46.1215 69.1797L44.6495 70.1751H41.215L39.743 69.1797L38.7617 67.8525L37.2897 65.6959V59.2258L36.3084 61.2166L34.3458 63.2074L32.3832 64.7005L30.4206 65.6959H28.9486V67.8525L37.7804 69.6774L38.1075 77.1429H40.7243V78.1383L38.2383 80.129L38.3692 83.1152H49.0654L47.5935 85.106L45.6308 86.1014H40.7243L38.4564 85.106L38.7617 92.0737H47.1028L52.5 91.0783L57.4065 89.0876L57.8972 85.106L64.7664 79.1336L68.6916 78.6359L71.1449 80.129L75.5607 74.6544L78.9953 67.1889L84.8832 64.2943L92.1558 60.7189L92.0685 58.7281L91.9377 55.7419L91.2617 40.3134L80.9579 37.8249V17.4194L79.486 10.9493L75.5607 4.47926L69.1822 0.497696L62.3131 0L48.5748 4.47926H37.2897L28.4579 1.49309L21.0981 0L12.757 2.48848L6.86916 9.95392L4.90654 16.424V53.7512L1.47196 64.2028V78.1383L4.90654 84.1106L8.83178 87.5945ZM46.6121 79.1336V77.1429L52.9907 76.6452L56.9159 75.6498V77.6406L53.972 80.6267L51.028 81.1244L46.6121 79.1336Z" fill="#57CC02"/>
<path d="M73.1075 83.1152L71.1449 80.129L68.6916 78.6359L64.7664 79.1336L57.8972 85.106L57.4065 89.0876L57.8972 91.576L61.3318 94.5622L64.7664 95.0599L68.6916 92.5714L73.1075 88.5899V83.1152Z" fill="#F58E05"/>
<path d="M37.2897 57.7327V59.2258V65.6959L38.7617 67.8525L39.743 69.1797L41.215 70.1751H44.6495L46.1215 69.1797L47.7632 67.8525L49.0654 65.6959V60.2212V57.7327L47.4708 58.2304L47.1028 64.2028L44.6495 66.6912H42.1963L39.743 64.7005L39.2523 63.2074V58.4566L37.2897 57.7327Z" fill="#F58E05"/>
<path d="M42.6869 59.7235L39.2523 58.4566V63.2074L39.743 64.7005L41.215 62.7097H44.6495L47.1028 64.2028L47.4708 58.2304L42.6869 59.7235Z" fill="#A76705"/>
<path d="M39.743 64.7005L42.1963 66.6912H44.6495L47.1028 64.2028L44.6495 62.7097H41.215L39.743 64.7005Z" fill="#FAC8FB"/>
<path d="M12.757 92.0737L13.7383 94.0645L36.3084 99.0415H38.7617V92.0737L38.4564 85.106L38.3692 83.1152L38.2383 80.129L38.1075 77.1429L37.7804 69.6774L28.9486 67.8525L18.1542 65.6221L15.7009 65.1152L11.285 64.2028L10.3037 66.1936L10.7944 70.1751L22.5701 78.1383L23.5514 80.6267L23.0607 84.1106L20.1168 87.5945L15.7009 88.5899H12.757V92.0737Z" fill="#CC7900"/>
<path d="M103.528 64.2028L105 62.7097L104.855 58.7281H92.0685L92.1558 60.7189L92.243 62.7097L93.2243 64.2028H103.528Z" fill="#FBBEE7"/>
<path d="M104.746 55.7419H91.9377L92.0685 58.7281H104.855L104.746 55.7419Z" fill="#C4C4C0"/>
<path fill-rule="evenodd" clip-rule="evenodd" d="M91.2617 35.8341V40.3134L91.9377 55.7419H104.746L104.019 35.8341L100.584 37.8249L97.6402 36.3318L94.2056 38.3226L91.2617 35.8341ZM94.6963 52.7558L94.2056 40.8111L94.9982 40.3134L95.6776 40.8111L96.1682 52.7558L95.6776 53.2535L94.6963 52.7558ZM99.6028 40.8111L100.584 40.3134L101.565 40.8111V51.7604L100.584 52.7558L99.6028 51.7604V40.8111Z" fill="#FFDF32"/>
<path d="M100.584 40.3134L99.6028 40.8111V51.7604L100.584 52.7558L101.565 51.7604V40.8111L100.584 40.3134Z" fill="#F6C306"/>
<path d="M94.2056 40.8111L94.6963 52.7558L95.6776 53.2535L96.1682 52.7558L95.6776 40.8111L94.9982 40.3134L94.2056 40.8111Z" fill="#F6C306"/>
<path d="M91.2617 35.8341L94.2056 38.3226L97.6402 36.3318L100.584 37.8249L104.019 35.8341L99.9425 31.3548L98.6215 32.8479H96.1682L94.9982 31.3548L91.2617 35.8341Z" fill="#FFECBD"/>
<path d="M98.1308 29.3641H96.6589L94.9982 31.3548L96.1682 32.8479H98.6215L99.9425 31.3548L98.1308 29.3641Z" fill="#4B4B4B"/>
<path d="M57.4065 37.8249V38.8203L58.3879 39.8157V41.8065L56.9159 43.7972H54.4626V49.7696L55.9346 52.2581L58.3879 53.7512H61.8224L64.7664 50.2673L65.257 46.2857V41.3088L62.3131 37.8249H57.4065Z" fill="#4B4B4B"/>
<path d="M24.0421 37.8249L23.5514 38.8203L24.5327 39.8157V42.3041L22.5701 43.7972H21.0981L21.5888 49.2719L22.5701 52.2581L24.5327 53.7512H28.9486L31.8925 50.765V41.3088L29.9299 38.3226L27.9673 37.3272L24.0421 37.8249Z" fill="#4B4B4B"/>
<path d="M13.7383 94.0645L12.757 92.0737V88.5899L8.83178 87.5945L4.90654 84.1106L1.47196 78.1383V64.2028L0 67.6866V80.129L4.41589 89.5853L10.7944 97.0507L19.6262 103.023L27.4766 106.009L36.3084 108H49.5561L56.9159 106.507L65.7477 103.521L73.1075 99.0415L78.5047 94.5622L80.9579 91.0783L83.9019 86.5991L85.8645 82.1198L86.8458 77.6406V70.1751L85.8645 67.1889L84.8832 64.2943L78.9953 67.1889L75.5607 74.6544L71.1449 80.129L73.1075 83.1152V88.5899L68.6916 92.5714L64.7664 95.0599L61.3318 94.5622L57.8972 91.576L57.4065 89.0876L52.5 91.0783L47.1028 92.0737H38.7617V99.0415H36.3084L13.7383 94.0645Z" fill="#4B4B4B"/>
<path fill-rule="evenodd" clip-rule="evenodd" d="M13.7383 40.3134L14.229 53.7512L16.1916 58.2304L21.0981 61.2166L26.4953 61.7143L31.4019 59.2258L34.3458 54.2488V40.8111L31.4019 36.3318L27.9673 33.3456L25.514 32.8479H21.5888L18.6449 34.341L16.1916 36.3318L14.229 38.3226L13.7383 40.3134ZM23.5514 38.8203L24.0421 37.8249L27.9673 37.3272L29.9299 38.3226L31.8925 41.3088V50.765L28.9486 53.7512H24.5327L22.5701 52.2581L21.5888 49.2719L21.0981 43.7972H22.5701L24.5327 42.3041V39.8157L23.5514 38.8203Z" fill="white"/>
<path fill-rule="evenodd" clip-rule="evenodd" d="M51.5187 41.8065V52.2581L52.5 55.2442L54.4626 58.7281L58.3879 61.2166L60.8411 61.7143H65.257L69.1822 58.7281L71.6355 54.7465L72.6168 50.2673V41.8065L70.6542 37.3272L67.2196 34.341L63.785 32.8479L59.3692 33.3456L55.4439 35.3364L52.9907 37.8249L51.5187 40.3134V41.8065ZM57.4065 38.8203V37.8249H62.3131L65.257 41.3088V46.2857L64.7664 50.2673L61.8224 53.7512H58.3879L55.9346 52.2581L54.4626 49.7696V43.7972H56.9159L58.3879 41.8065V39.8157L57.4065 38.8203Z" fill="white"/>
<path d="M28.9486 67.8525V65.6959L26.0047 63.2074L24.0421 62.7097H21.0981L19.1355 63.7051L18.1542 65.6221L28.9486 67.8525Z" fill="#DED4D2"/>
<path d="M35.8178 57.7327H37.2897L39.2523 58.4566L42.6869 59.7235L47.4708 58.2304L49.0654 57.7327H50.0467L50.5374 56.7373V55.7419L48.5748 52.7558L46.6121 50.765H40.7243L37.2897 52.7558L35.3271 55.7419V56.7373L35.8178 57.7327Z" fill="url(#paint0_linear_717_520)"/>
<defs>
<linearGradient id="paint0_linear_717_520" x1="42.6869" y1="50.2673" x2="42.6869" y2="58.7281" gradientUnits="userSpaceOnUse">
<stop stop-color="#FFDE00"/>
<stop offset="1" stop-color="#F58E05"/>
</linearGradient>
</defs>
</svg>
