<svg width="80" height="96" viewBox="0 0 80 96" fill="none" xmlns="http://www.w3.org/2000/svg">
<path fill-rule="evenodd" clip-rule="evenodd" d="M61 55.0976L63.5 53.3902L67 51L68.382 52.6782L70 50.5L71 46.5L71.5 42V34.5L70.5 31.5L68 29L66 27.5V22.5L64.5 19.5H63L59.5 24V18.5L57.5 17L53.5 21L46 28.5L42.5 30.5H37.5L34 29.5L22.5 17.5L21 17L19.5 19.5L19 23.5L15 19.5L13 22.5V26.5L9.5 29.5L7.5 34L8 49L10.5 53.5L14.5 57.9184L16.5879 58.3445L19 56H23L25 56.5L26.6363 58.3445H28.7782L31 56.5L34.5 51.5L33 51V49L36.5 45.5H42.5L46.5 49V50.5L45 51V52L44.7654 52.5864L46.5 55L49.5 57.5L54.5 59.5366L61 55.0976ZM12.5 48V36L13.5 34L15.5 31.5L18.5 29.5H24L26 30L30 33.5L31.5 36.5V48.5L28.7782 52.23L25 54.5H19L15.5 52L12.5 48ZM47 37V47L48 50L50.5 53L54 54.5H59L62.5 53L65 50L66.5 46.2216V36.5L64.5 32.5L60.5 29.5H54.5L49 33L47 37Z" fill="#87E218"/>
<path d="M34.7211 70.8459L37.5 70V68H34.65L34.7211 70.8459Z" fill="#87E218"/>
<path d="M42.5 68V70L45.6875 71.5L45.8125 70.5L46.1562 67.75L42.5 68Z" fill="#87E218"/>
<path d="M44.2108 73.7137H34.7928L36.5 76.5H42L44.2108 75V73.7137Z" fill="#87E218"/>
<path d="M8 77.5L11.5 79L17 78.5L18.5 77L21 74V70.5L10 62.5V57L14.5 57.9184L10.5 53.5L8 49L7.5 34L9.5 29.5L13 26.5V22.5L15 19.5L19 23.5L19.5 19.5L21 17L22.5 17.5L34 29.5L37.5 30.5H42.5L46 28.5L53.5 21L57.5 17L59.5 18.5V24L63 19.5H64.5L66 22.5V27.5L68 29L70.5 31.5L71.5 34.5V42L71 46.5L70 50.5L68.382 52.6782L74 59.5V50V12L71.5 7.5L68.5 3.5L63.5 0H57L52 1.5L43.5 3.5H36.5L33 3L23.5 0H15L9.5 4L6.5 8.5L4.5 14V47.5L1 58.5V66L2 72L5 75.5L8 77.5Z" fill="#57CC02"/>
<path fill-rule="evenodd" clip-rule="evenodd" d="M12.5 36V48L15.5 52L19 54.5H25L28.7782 52.23L31.5 48.5V36.5L30 33.5L26 30L24 29.5H18.5L15.5 31.5L13.5 34L12.5 36ZM21.5 35V34H25.5L27.5 35L29 37.5L28.7782 45.5L26.5 48H22L20 45.5L19.5 43L19 39.5H21L22.5 38V36L21.5 35Z" fill="white"/>
<path fill-rule="evenodd" clip-rule="evenodd" d="M47 47V37L49 33L54.5 29.5H60.5L64.5 32.5L66.5 36.5V46.2216L65 50L62.5 53L59 54.5H54L50.5 53L48 50L47 47ZM49.5 45V39.5H51.5L53 38V36L52 35L52.5 34H57L59.5 36.5V44.5L56.5 48H52L49.5 45Z" fill="white"/>
<path d="M49.5 39.5V45L52 48H56.5L59.5 44.5V36.5L57 34H52.5L52 35L53 36V38L51.5 39.5H49.5Z" fill="#4B4B4B"/>
<path d="M21.5 34V35L22.5 36V38L21 39.5H19L19.5 43L20 45.5L22 48H26.5L28.7782 45.5L29 37.5L27.5 35L25.5 34H21.5Z" fill="#4B4B4B"/>
<path d="M67 78.5V76.5L63 77.5H58L52 77V79.5L52.5 81L56 84H59L61.5 83.5L67 78.5Z" fill="#F88E00"/>
<path d="M34.5 51.5L35 54.5L36.5 56L38.5 56.5H42L44 54.5L44.7654 52.5864L45 52V51L41 53H38L34.5 51.5Z" fill="#F88E00"/>
<path d="M52 64.5L60.5 59H61.5V60L53 66H52V64.5Z" fill="#F3C206"/>
<path d="M55 70V68.5L63 63H64V64.5L56 70H55Z" fill="#F3C206"/>
<path fill-rule="evenodd" clip-rule="evenodd" d="M46.5 65L50 66V70L54 71.5L53.5 74.5L67.85 64L61 55.0976L54.5 59.5366L46.5 65ZM60.5 59L52 64.5V66H53L61.5 60V59H60.5ZM55 68.5V70H56L64 64.5V63H63L55 68.5Z" fill="#FEDC34"/>
<path d="M67 51L63.5 53.3902L70 62.4268L74 59.5L68.382 52.6782L67 51Z" fill="#FDBFE3"/>
<path d="M61 55.0976L67.85 64L70 62.4268L63.5 53.3902L61 55.0976Z" fill="#C5C4C0"/>
<path d="M48.5 74.1667L53.5 74.5L54 71.5L50 70V66L46.5 65L46.1562 67.75L45.8125 70.5L48.5 74.1667Z" fill="#FFECBB"/>
<path d="M45.5 73L46 74L48.5 74.1667L45.8125 70.5L45.6875 71.5L45.5 73Z" fill="#4B4B4B"/>
<path d="M11.5 79V83L35 88.5V82L34.7928 73.7137L34.7211 70.8459L34.65 68L34.5 62L26.6363 60.3952L16.5879 58.3445L14.5 57.9184L10 57V62.5L21 70.5V74L18.5 77L17 78.5L11.5 79Z" fill="#CC7903"/>
<path d="M26.6363 60.3952V58.3445L25 56.5L23 56H19L16.5879 58.3445L26.6363 60.3952Z" fill="#C5C4C0"/>
<path d="M11.5 83V79L8 77.5L5 75.5L2 72L1 66V58.5L0 61.5V69L1.5 74.5L5 80L9 85L15 89.5L21.5 93L28.5 95L35 96H46L55.5 94L65 89L73 82L77 75.5L79.5 69.5V61L76.5 53.5L74 50V59.5L73.5 65.5L72 70L70 74L67 76.5V78.5L61.5 83.5L59 84H56L52.5 81L52 79.5L45 82H35V88.5L11.5 83Z" fill="#414B4D"/>
<path d="M45 51L46.5 50.5V49L42.5 45.5H36.5L33 49V51L34.5 51.5L38 53H41L45 51Z" fill="url(#paint0_linear_715_518)"/>
<path d="M73.5 65.5L74 59.5L70 62.4268L67.85 64L53.5 74.5L48.5 74.1667L46 74L45.5 73L45.6875 71.5L42.5 70V68L46.1562 67.75L46.5 65L54.5 59.5366L49.5 57.5L46.5 55L44.7654 52.5864L44 54.5L42 56.5H38.5L36.5 56L35 54.5L34.5 51.5L31 56.5L28.7782 58.3445H26.6363V60.3952L34.5 62L34.65 68H37.5V70L34.7211 70.8459L34.7928 73.7137H44.2108V75L42 76.5H36.5L34.7928 73.7137L35 82H45L52 79.5V77L58 77.5H63L67 76.5L70 74L72 70L73.5 65.5Z" fill="#57CC02"/>
<defs>
<linearGradient id="paint0_linear_715_518" x1="40.5" y1="46.5" x2="40.5" y2="54" gradientUnits="userSpaceOnUse">
<stop stop-color="#FFE001"/>
<stop offset="1" stop-color="#F88E00"/>
</linearGradient>
</defs>
</svg>
