<svg width="31" height="36" viewBox="0 0 31 36" fill="none" xmlns="http://www.w3.org/2000/svg">
<path d="M25 7L24 5.5L23.5 2L21.5 1.5V3.5L22.5 5.5L24 7H25Z" fill="#D92757"/>
<path d="M7.5 34.5L10.5 35.5H15L18 34L20.5 31.5L22.5 29L23 26.5V13.5L26 15L28 16H31V9.5H29.5V14H27L21.5 11.5H21L20.5 26.5L19.5 29L17 31.5L14.5 33H6L7.5 34.5Z" fill="#D92757"/>
<path d="M13.5 14H12V18.5H9L7.5 19.5L6 21.5V25L7 26.5L8 27.5V23L9.5 20.5H13.5V14Z" fill="#D92757"/>
<path d="M21.5 1.5V0H15V25L13.5 27L11.5 28L8 27.5L10.5 29.5H13.5L15.5 28.5L17 26V2L21.5 1.5Z" fill="#38F1EB"/>
<path d="M12 14V12.5H8.5L6 13.5L3 15.5L1.5 17.5L0 20V25.5L1 28.5L3 30.5L1.5 26.5V23L2.5 20.5L3.5 18.5L5 17L7 15.5L9 14.5L12 14Z" fill="#38F1EB"/>
<path d="M29.5 9.5V8H27L25 7L26 8.5L27 9.5H29.5Z" fill="#38F1EB"/>
<path d="M3 30.5L5 32.5L6 33H14.5L17 31.5L19.5 29L20.5 26.5L21 11.5H21.5L27 14H29.5V9.5H27L26 8.5L25 7H24L22.5 5.5L21.5 3.5V1.5L17 2V26L15.5 28.5L13.5 29.5H10.5L8 27.5L7 26.5L6 25V21.5L7.5 19.5L9 18.5H12V14L9 14.5L7 15.5L5 17L3.5 18.5L2.5 20.5L1.5 23V26.5L3 30.5Z" fill="white"/>
</svg>
