<svg width="65" height="50" viewBox="0 0 65 50" fill="none" xmlns="http://www.w3.org/2000/svg">
<g clip-path="url(#clip0_367_271)">
<path d="M57.7778 0.378784H7.22222C5.30677 0.378784 3.46977 1.17694 2.11534 2.59767C0.760911 4.0184 0 5.94533 0 7.95454L0 25H65V7.95454C65 5.94533 64.2391 4.0184 62.8847 2.59767C61.5302 1.17694 59.6932 0.378784 57.7778 0.378784Z" fill="#005BBB"/>
<path d="M65 42.0455C65 44.0547 64.2391 45.9816 62.8847 47.4023C61.5302 48.8231 59.6932 49.6212 57.7778 49.6212H7.22222C5.30677 49.6212 3.46977 48.8231 2.11534 47.4023C0.760911 45.9816 0 44.0547 0 42.0455V25H65V42.0455Z" fill="#FFD500"/>
<g clip-path="url(#clip1_367_271)">
<path d="M500.154 -233.75H-19.6923V92.0833H500.154V-233.75Z" fill="#D8D8D8"/>
<path d="M59 25H28V27.5492H59V25Z" fill="#DC4437"/>
<path d="M59 30.1176H28V32.6667H59V30.1176Z" fill="#DC4437"/>
<path d="M59 40.3334H28V42.8825H59V40.3334Z" fill="#DC4437"/>
<path d="M59 45.4508H28V48H59V45.4508Z" fill="#DC4437"/>
<path d="M59 35.2158H28V37.765H59V35.2158Z" fill="#DC4437"/>
<path d="M59 27.5492H28V30.0984H59V27.5492Z" fill="white"/>
<path d="M59 32.6666H28V35.2158H59V32.6666Z" fill="white"/>
<path d="M59 42.8824H28V45.4316H59V42.8824Z" fill="white"/>
<path d="M59 37.7842H28V40.3333H59V37.7842Z" fill="white"/>
<path d="M44.6923 25H28V37.7842H44.6923V25Z" fill="#2A66B7"/>
<path d="M31.2192 25.7667L31.7677 26.7059L33.0077 26.8592L32.1016 27.6067L32.3162 28.6417L31.2192 28.1434L30.1223 28.6417L30.3369 27.6067L29.4308 26.8592L30.6708 26.7059L31.2192 25.7667Z" fill="white"/>
<path d="M36.1077 25.7667L36.6561 26.7059L37.8961 26.8592L37.0138 27.6067L37.2046 28.6417L36.1077 28.1434L35.0108 28.6417L35.2015 27.6067L34.3192 26.8592L35.5592 26.7059L36.1077 25.7667Z" fill="white"/>
<path d="M40.9962 25.7667L41.5446 26.7059L42.7846 26.8592L41.8785 27.6067L42.0931 28.6417L40.9962 28.1434L39.8992 28.6417L40.1139 27.6067L39.2077 26.8592L40.4477 26.7059L40.9962 25.7667Z" fill="white"/>
<path d="M33.7231 29.6L34.2716 30.5391L35.5116 30.6925L34.6292 31.44L34.82 32.475L33.7231 31.9766L32.6262 32.475L32.8169 31.44L31.9346 30.6925L33.1746 30.5391L33.7231 29.6Z" fill="white"/>
<path d="M38.6115 29.6L39.16 30.5391L40.4 30.6925L39.4938 31.44L39.7084 32.475L38.6115 31.9766L37.5146 32.475L37.7292 31.44L36.8231 30.6925L38.0631 30.5391L38.6115 29.6Z" fill="white"/>
<path d="M31.2192 33.6633L31.7677 34.6025L33.0077 34.7558L32.1016 35.4842L32.3162 36.5383L31.2192 36.04L30.1223 36.5383L30.3369 35.4842L29.4308 34.7558L30.6708 34.6025L31.2192 33.6633Z" fill="white"/>
<path d="M36.1077 33.6633L36.6561 34.6025L37.8961 34.7558L37.0138 35.4842L37.2046 36.5383L36.1077 36.04L35.0108 36.5383L35.2015 35.4842L34.3192 34.7558L35.5592 34.6025L36.1077 33.6633Z" fill="white"/>
<path d="M40.9962 33.6633L41.5446 34.6025L42.7846 34.7558L41.8785 35.4842L42.0931 36.5383L40.9962 36.04L39.8992 36.5383L40.1139 35.4842L39.2077 34.7558L40.4477 34.6025L40.9962 33.6633Z" fill="white"/>
</g>
<rect x="27" y="24" width="33" height="25" rx="4" stroke="black" stroke-width="2"/>
</g>
<defs>
<clipPath id="clip0_367_271">
<rect width="65" height="50" fill="white"/>
</clipPath>
<clipPath id="clip1_367_271">
<rect x="28" y="25" width="31" height="23" rx="3" fill="white"/>
</clipPath>
</defs>
</svg>
