<svg width="60" height="60" viewBox="0 0 60 60" fill="none" xmlns="http://www.w3.org/2000/svg">
<circle cx="30" cy="30" r="26.5" fill="#5D006F" stroke="#A725BD" stroke-width="7"/>
<path d="M17.5 41L15.5 41.5L14 41L13.5 39.5V38L14.5 37H16L17 35H13.5L12.5 33L12 31.5V28.5L14.5 26L17 25.5L18 24H20L21 22.5H23.5L27 19H33.5L37.5 22.5H40L41 24H43L44 25.5L46 26L48.5 28.5V31.5L48 33L46.5 35H44L44.5 37L47 38V40L45.5 41H43.5L42.5 39L43 37.5L41.5 35.5H19.5L17.5 38L18.5 39L17.5 41Z" fill="#C119EB" stroke="#C119EB"/>
<path d="M40 22H21L20 23L21.5 25H25L26.5 23H27.5L29 25H32.5L34 23H35L36.5 25H40.5L41 23L40 22Z" fill="#F17EFF" stroke="#F17EFF"/>
</svg>
