<svg width="31" height="23" viewBox="0 0 31 23" fill="none" xmlns="http://www.w3.org/2000/svg">
<g clip-path="url(#clip0_376_896)">
<path d="M472.155 -258.75H-47.6914V67.0833H472.155V-258.75Z" fill="#D8D8D8"/>
<path d="M31 0H0V2.54917H31V0Z" fill="#DC4437"/>
<path d="M31 5.11719H0V7.66635H31V5.11719Z" fill="#DC4437"/>
<path d="M31 15.334H0V17.8832H31V15.334Z" fill="#DC4437"/>
<path d="M31 20.4512H0V23.0003H31V20.4512Z" fill="#DC4437"/>
<path d="M31 10.2168H0V12.766H31V10.2168Z" fill="#DC4437"/>
<path d="M31 2.54883H0V5.09799H31V2.54883Z" fill="white"/>
<path d="M31 7.66602H0V10.2152H31V7.66602Z" fill="white"/>
<path d="M31 17.8828H0V20.432H31V17.8828Z" fill="white"/>
<path d="M31 12.7832H0V15.3324H31V12.7832Z" fill="white"/>
<path d="M16.6923 0H0V12.7842H16.6923V0Z" fill="#2A66B7"/>
<path d="M3.2201 0.767578L3.76856 1.70674L5.00856 1.86008L4.10241 2.60758L4.31703 3.64258L3.2201 3.14424L2.12318 3.64258L2.33779 2.60758L1.43164 1.86008L2.67164 1.70674L3.2201 0.767578Z" fill="white"/>
<path d="M8.10682 0.767578L8.65528 1.70674L9.89528 1.86008L9.01297 2.60758L9.20374 3.64258L8.10682 3.14424L7.0099 3.64258L7.20067 2.60758L6.31836 1.86008L7.55836 1.70674L8.10682 0.767578Z" fill="white"/>
<path d="M12.9955 0.767578L13.544 1.70674L14.784 1.86008L13.8778 2.60758L14.0924 3.64258L12.9955 3.14424L11.8986 3.64258L12.1132 2.60758L11.207 1.86008L12.447 1.70674L12.9955 0.767578Z" fill="white"/>
<path d="M5.72401 4.59961L6.27247 5.53878L7.51247 5.69211L6.63016 6.43961L6.82093 7.47461L5.72401 6.97628L4.62709 7.47461L4.81785 6.43961L3.93555 5.69211L5.17555 5.53878L5.72401 4.59961Z" fill="white"/>
<path d="M10.6107 4.59961L11.1592 5.53878L12.3992 5.69211L11.493 6.43961L11.7076 7.47461L10.6107 6.97628L9.5138 7.47461L9.72842 6.43961L8.82227 5.69211L10.0623 5.53878L10.6107 4.59961Z" fill="white"/>
<path d="M3.2201 8.66406L3.76856 9.60323L5.00856 9.75656L4.10241 10.4849L4.31703 11.5391L3.2201 11.0407L2.12318 11.5391L2.33779 10.4849L1.43164 9.75656L2.67164 9.60323L3.2201 8.66406Z" fill="white"/>
<path d="M8.10682 8.66406L8.65528 9.60323L9.89528 9.75656L9.01297 10.4849L9.20374 11.5391L8.10682 11.0407L7.0099 11.5391L7.20067 10.4849L6.31836 9.75656L7.55836 9.60323L8.10682 8.66406Z" fill="white"/>
<path d="M12.9955 8.66406L13.544 9.60323L14.784 9.75656L13.8778 10.4849L14.0924 11.5391L12.9955 11.0407L11.8986 11.5391L12.1132 10.4849L11.207 9.75656L12.447 9.60323L12.9955 8.66406Z" fill="white"/>
</g>
<defs>
<clipPath id="clip0_376_896">
<rect width="31" height="23" rx="3" fill="white"/>
</clipPath>
</defs>
</svg>
