<svg width="41" height="33" viewBox="0 0 41 33" fill="none" xmlns="http://www.w3.org/2000/svg">
<g clip-path="url(#clip0_946_67)">
<path d="M41 0H0V3.6575H41V0Z" fill="#DC4437"/>
<path d="M41 7.34253H0V11H41V7.34253Z" fill="#DC4437"/>
<path d="M41 22H0V25.6575H41V22Z" fill="#DC4437"/>
<path d="M41 29.3425H0V33H41V29.3425Z" fill="#DC4437"/>
<path d="M41 14.6575H0V18.315H41V14.6575Z" fill="#DC4437"/>
<path d="M41 3.65747H0V7.31497H41V3.65747Z" fill="white"/>
<path d="M41 11H0V14.6575H41V11Z" fill="white"/>
<path d="M41 25.6575H0V29.315H41V25.6575Z" fill="white"/>
<path d="M41 18.3425H0V22H41V18.3425Z" fill="white"/>
<path d="M22.0769 0H0V18.3425H22.0769V0Z" fill="#2A66B7"/>
<path d="M8.5 1L9.26667 2.30667L11 2.52L9.73333 3.56L10.0333 5L8.5 4.30667L6.96667 5L7.26667 3.56L6 2.52L7.73333 2.30667L8.5 1Z" fill="white"/>
<path d="M3.5 1L4.26667 2.30667L6 2.52L4.73333 3.56L5.03333 5L3.5 4.30667L1.96667 5L2.26667 3.56L1 2.52L2.73333 2.30667L3.5 1Z" fill="white"/>
<path d="M13.5 1L14.2667 2.30667L16 2.52L14.7667 3.56L15.0333 5L13.5 4.30667L11.9667 5L12.2333 3.56L11 2.52L12.7333 2.30667L13.5 1Z" fill="white"/>
<path d="M18.5 1L19.2667 2.30667L21 2.52L19.7333 3.56L20.0333 5L18.5 4.30667L16.9667 5L17.2667 3.56L16 2.52L17.7333 2.30667L18.5 1Z" fill="white"/>
<path d="M3.5 7L4.26667 8.30667L6 8.52L4.76667 9.56L5.03333 11L3.5 10.3067L1.96667 11L2.23333 9.56L1 8.52L2.73333 8.30667L3.5 7Z" fill="white"/>
<path d="M8.5 7L9.26667 8.30667L11 8.52L9.76667 9.56L10.0333 11L8.5 10.3067L6.96667 11L7.23333 9.56L6 8.52L7.73333 8.30667L8.5 7Z" fill="white"/>
<path d="M18.5 7L19.2667 8.30667L21 8.52L19.7333 9.56L20.0333 11L18.5 10.3067L16.9667 11L17.2667 9.56L16 8.52L17.7333 8.30667L18.5 7Z" fill="white"/>
<path d="M13.5 7L14.2667 8.30667L16 8.52L14.7333 9.56L15.0333 11L13.5 10.3067L11.9667 11L12.2667 9.56L11 8.52L12.7333 8.30667L13.5 7Z" fill="white"/>
<path d="M3.5 13L4.26667 14.3067L6 14.52L4.73333 15.5333L5.03333 17L3.5 16.3067L1.96667 17L2.26667 15.5333L1 14.52L2.73333 14.3067L3.5 13Z" fill="white"/>
<path d="M8.5 13L9.26667 14.3067L11 14.52L9.76667 15.5333L10.0333 17L8.5 16.3067L6.96667 17L7.23333 15.5333L6 14.52L7.73333 14.3067L8.5 13Z" fill="white"/>
<path d="M13.5 13L14.2667 14.3067L16 14.52L14.7667 15.5333L15.0333 17L13.5 16.3067L11.9667 17L12.2333 15.5333L11 14.52L12.7333 14.3067L13.5 13Z" fill="white"/>
<path d="M18.5 13L19.2667 14.3067L21 14.52L19.7333 15.5333L20.0333 17L18.5 16.3067L16.9667 17L17.2667 15.5333L16 14.52L17.7333 14.3067L18.5 13Z" fill="white"/>
</g>
<defs>
<clipPath id="clip0_946_67">
<rect width="41" height="33" rx="8" fill="white"/>
</clipPath>
</defs>
</svg>
