<svg width="65" height="50" viewBox="0 0 65 50" fill="none" xmlns="http://www.w3.org/2000/svg">
<g clip-path="url(#clip0_366_244)">
<path d="M990 -562.5H-100V145.833H990V-562.5Z" fill="#D8D8D8"/>
<path d="M65 0H0V5.54167H65V0Z" fill="#DC4437"/>
<path d="M65 11.125H0V16.6667H65V11.125Z" fill="#DC4437"/>
<path d="M65 33.3334H0V38.875H65V33.3334Z" fill="#DC4437"/>
<path d="M65 44.4584H0V50H65V44.4584Z" fill="#DC4437"/>
<path d="M65 22.2084H0V27.75H65V22.2084Z" fill="#DC4437"/>
<path d="M65 5.54163H0V11.0833H65V5.54163Z" fill="white"/>
<path d="M65 16.6666H0V22.2083H65V16.6666Z" fill="white"/>
<path d="M65 38.875H0V44.4167H65V38.875Z" fill="white"/>
<path d="M65 27.7916H0V33.3333H65V27.7916Z" fill="white"/>
<path d="M35 0H0V27.7917H35V0Z" fill="#2A66B7"/>
<path d="M6.75 1.66663L7.9 3.70829L10.5 4.04163L8.6 5.66663L9.05 7.91663L6.75 6.83329L4.45 7.91663L4.9 5.66663L3 4.04163L5.6 3.70829L6.75 1.66663Z" fill="white"/>
<path d="M17 1.66663L18.15 3.70829L20.75 4.04163L18.9 5.66663L19.3 7.91663L17 6.83329L14.7 7.91663L15.1 5.66663L13.25 4.04163L15.85 3.70829L17 1.66663Z" fill="white"/>
<path d="M27.25 1.66663L28.4 3.70829L31 4.04163L29.1 5.66663L29.55 7.91663L27.25 6.83329L24.95 7.91663L25.4 5.66663L23.5 4.04163L26.1 3.70829L27.25 1.66663Z" fill="white"/>
<path d="M12 10L13.15 12.0417L15.75 12.375L13.9 14L14.3 16.25L12 15.1667L9.7 16.25L10.1 14L8.25 12.375L10.85 12.0417L12 10Z" fill="white"/>
<path d="M22.25 10L23.4 12.0417L26 12.375L24.1 14L24.55 16.25L22.25 15.1667L19.95 16.25L20.4 14L18.5 12.375L21.1 12.0417L22.25 10Z" fill="white"/>
<path d="M6.75 18.8334L7.9 20.875L10.5 21.2084L8.6 22.7917L9.05 25.0834L6.75 24L4.45 25.0834L4.9 22.7917L3 21.2084L5.6 20.875L6.75 18.8334Z" fill="white"/>
<path d="M17 18.8334L18.15 20.875L20.75 21.2084L18.9 22.7917L19.3 25.0834L17 24L14.7 25.0834L15.1 22.7917L13.25 21.2084L15.85 20.875L17 18.8334Z" fill="white"/>
<path d="M27.25 18.8334L28.4 20.875L31 21.2084L29.1 22.7917L29.55 25.0834L27.25 24L24.95 25.0834L25.4 22.7917L23.5 21.2084L26.1 20.875L27.25 18.8334Z" fill="white"/>
</g>
<defs>
<clipPath id="clip0_366_244">
<rect width="65" height="50" rx="8" fill="white"/>
</clipPath>
</defs>
</svg>
