<svg width="126" height="121" viewBox="0 0 126 121" fill="none" xmlns="http://www.w3.org/2000/svg">
<path fill-rule="evenodd" clip-rule="evenodd" d="M24.5 76L1.5 84.5L0 87.5V90.5L1.5 93.5L6 98L11.5 102.5L18 106L25.5 109L31.5 109.5L46.5 109L48.5 110.5L68.5 116L81 115.5L90 112L100.5 104.5L103.5 101.5L108.5 95.5L111 91.5L113 88.5L113.5 85H121.5L125 83L125.5 79.5L115.5 64L115 73.5L112.5 77.5L108 81.5L102.5 84H95.5L93.5 86.5L90 87.5L84 88L82 87L78.5 83.5L76 88.5L71.5 92.5L65 95.5H57L54.5 95L48 92L41 83L37.5 73.5L36.5 67L37.5 63L41.5 56.5L40 54V49L42 48.5L47 51.5L47.5 50.5C47 49.6667 46 47.9 46 47.5V44L48.5 42.5L55.5 47L69 55H76L80 53L85 48L88 40L90.5 29H93L95.5 34.5L99 30L102.5 33L103 37.5L110.098 42L106 28L101.5 13.5L99 9L94 4L88 0H80.5L74.5 3L67.5 9L62 12L57.5 13.5H33L26.5 16L21.5 19L17.5 23.5L15 28L14 33V40L19.5 58.5L24.5 76ZM101.5 91.5L92 98L92.5 100H95.5L98.5 99L101 96.5L102.5 94V92.5L101.5 91.5ZM79 102.5H84V104.5L80 107.5H75L72.5 106.5V105L79 102.5ZM95.5 102.5L84.5 107.5L86 109L90 109.5L93 108L95 106L96 104L95.5 102.5Z" fill="#57CC02"/>
<path fill-rule="evenodd" clip-rule="evenodd" d="M115.5 64L114 56L112 48.5L110.098 42L103 37.5L102.5 33L99 30L95.5 34.5L93 29H90.5L88 40L85 48L80 53L76 55H69L55.5 47L48.5 42.5L46 44V47.5C46 47.9 47 49.6667 47.5 50.5L47 51.5L42 48.5L40 49V54L41.5 56.5L37.5 63L36.5 67L37.5 73.5L41 83L48 92L54.5 95L57 95.5H65L71.5 92.5L76 88.5L78.5 83.5V79.5V77.5L80 75.5L82 73.5L84.5 72.5H88L90.5 73.5L92.5 75.5L94.5 78L95 79.5L95.5 84H102.5L108 81.5L112.5 77.5L115 73.5L115.5 64ZM95.5 68L92 71H91L90 68L89.5 65.5L88.5 62L88 59L88.5 55.5L89.5 51.5L91 49L91.6573 48.3427L93 47L95.5 45.5L98 45L100.5 44.5L103 45L105.5 46L107 47.5L108.5 50L109.5 52L111 59L107.5 60L104.5 61.5L101.5 63.5L98.5 65.5L95.5 68ZM50.5 80L47.5 81L45.5 77.5L44.5 75L44 71.5V68L45 65.5L47.5 63L50.5 61L54 60H57.5L61 61L64.5 62.5L67.5 65L69.5 67.5L71 71L72 74.5L72.5 77H69.5L66 77.5L62 78L58.5 78.5L58 78.5625L54.5 79L50.5 80Z" fill="#89E119"/>
<path d="M84 102.5H79L72.5 105V106.5L75 107.5H80L84 104.5V102.5Z" fill="#8AE119"/>
<path d="M92 98L101.5 91.5L102.5 92.5V94L101 96.5L98.5 99L95.5 100H92.5L92 98Z" fill="#8AE319"/>
<path d="M48.5 110.5L49 114.5L53.5 118L61 120.5L65 120L68.5 116L48.5 110.5Z" fill="#F48F01"/>
<path d="M100.5 104.5L99.5 106.5L98.5 108.5V111.5L100 115L102.5 116.5L106 117H109.5L115.5 113L119.5 108L120.5 105L120 101.5L116.5 98L114.5 97H112L109.5 98.5L107 100.5L105.5 102.5L103.5 103L100.5 104.5Z" fill="#F48F01"/>
<path d="M78.5 79.5V83.5L84.5 83L88.8113 82.0419L89 82L93 80.5L95 79.5L94.5 78L92.5 75.5L90.5 73.5L88 72.5H84.5L82 73.5L80 75.5L78.5 77.5V79.5Z" fill="url(#paint0_linear_601_474)"/>
<path d="M78.5 83.5L82 87L84 88L90 87.5L93.5 86.5L95.5 84L95 79.5L93 80.5L94 82V84L92.5 85.5H90.5L89 84L88.8113 82.0419L84.5 83L78.5 83.5Z" fill="#F48F00"/>
<path d="M93 80.5L89 82L88.8113 82.0419L89 84L90.5 85.5H92.5L94 84V82L93 80.5Z" fill="#B76904"/>
<path d="M84.5 107.5L95.5 102.5L96 104L95 106L93 108L90 109.5L86 109L84.5 107.5Z" fill="#8AE319"/>
<path d="M50.5 80L54.5 79L58 78.5625L58.5 76.5V74.5V72V71.5L58 69.5L57.5 68L57 66.5L56.5 65.5L55.5 64L54.5 63L53.5 62.5H50L49 63L50 64V66.5L49 68L47.5 69H46V71.5L47 74.5L48.5 78L50.5 80Z" fill="#4D4A4A"/>
<path d="M91.5 56.5H89.5V59L90 60.5L91 62.5L92.5 64L93.5 65H96L97.5 64.5L98.5 63.5L99.5 62.5L100 61.5L100.5 60.5V58V56.5L100 54.5L99.5 53L99 51.5L98 49.5L97.3484 48.3427L96.5 47H95.5H93L91.6573 48.3427L93 50L93.5 51V54V55L92.5 56L91.5 56.5Z" fill="#4D4A4A"/>
<path d="M47.5 81L50.5 80L48.5 78L47 74.5L46 71.5V69H47.5L49 68L50 66.5V64L49 63L50 62.5H53.5L54.5 63L55.5 64L56.5 65.5L57 66.5L57.5 68L58 69.5L58.5 71.5V72V74.5V76.5L58 78.5625L58.5 78.5L62 78L66 77.5L69.5 77H72.5L72 74.5L71 71L69.5 67.5L67.5 65L64.5 62.5L61 61L57.5 60H54L50.5 61L47.5 63L45 65.5L44 68V71.5L44.5 75L45.5 77.5L47.5 81Z" fill="white"/>
<path d="M92 71L95.5 68L98.5 65.5L101.5 63.5L104.5 61.5L107.5 60L111 59L109.5 52L108.5 50L107 47.5L105.5 46L103 45L100.5 44.5L98 45L95.5 45.5L93 47H95.5H96.5L97.3484 48.3427L98 49.5L99 51.5L99.5 53L100 54.5L100.5 56.5V58V60.5L100 61.5L99.5 62.5L98.5 63.5L97.5 64.5L96 65H93.5L92.5 64L91 62.5L90 60.5L89.5 59V56.5H91.5L92.5 56L93.5 55V54V51L93 50L91.6573 48.3427L91 49L89.5 51.5L88.5 55.5L88 59L88.5 62L89.5 65.5L90 68L91 71H92Z" fill="white"/>
<defs>
<linearGradient id="paint0_linear_601_474" x1="82.5" y1="74.5" x2="93" y2="80.5" gradientUnits="userSpaceOnUse">
<stop stop-color="#FFDF00"/>
<stop offset="1" stop-color="#FDC300"/>
</linearGradient>
</defs>
</svg>
