<svg width="82" height="129" viewBox="0 0 82 129" fill="none" xmlns="http://www.w3.org/2000/svg">
<path fill-rule="evenodd" clip-rule="evenodd" d="M75.4661 40.8963L74.4861 35.7842L73.1793 30.9917L71.9363 26.8382L67.2988 23.9627L66.9721 21.0871L64.6853 19.1701L62.3984 22.0456L60.7649 18.5311H59.1315L57.498 25.5602L55.5378 30.6722L52.2709 33.8672L49.6574 35.1452H45.0837L36.263 30.0332L31.6892 27.1577L30.0558 28.1162V30.3527C30.0558 30.6083 30.7092 31.7372 31.0359 32.2697L30.7092 32.9087L27.4422 30.9917L26.1355 31.3112V34.5062L27.1155 36.1037L24.502 40.2573L23.8486 42.8133L24.502 46.9668L26.7888 53.0373L31.3626 58.7884L35.6096 60.7054L37.243 61.0249H42.4701L46.7171 59.1079L49.6574 56.5519L51.2908 53.3568V50.8008V49.5228L52.2709 48.2448L53.5777 46.9668L55.2112 46.3278H57.498L59.1315 46.9668L60.4382 48.2448L61.745 49.8423L62.0717 50.8008L62.3984 53.6763H66.9721L70.5657 52.0788L73.506 49.5228L75.1394 46.9668L75.4661 40.8963ZM62.3984 43.4523L60.1116 45.3693H59.4582L58.8048 43.4523L58.4781 41.8548L57.8247 39.6183L57.498 37.7012L57.8247 35.4647L58.4781 32.9087L59.4582 31.3112L59.8876 30.8912L60.7649 30.0332L62.3984 29.0747L64.0319 28.7552L65.6653 28.4357L67.2988 28.7552L68.9323 29.3942L69.9124 30.3527L70.8924 31.9502L71.5458 33.2282L72.5259 37.7012L70.239 38.3403L68.2789 39.2988L66.3187 40.5768L64.3586 41.8548L62.3984 43.4523ZM32.996 51.1203L31.0359 51.7593L29.7291 49.5228L29.0757 47.9253L28.749 45.6888V43.4523L29.4024 41.8548L31.0359 40.2573L32.996 38.9793L35.2829 38.3403H37.5697L39.8566 38.9793L42.1434 39.9378L44.1036 41.5353L45.4104 43.1328L46.3904 45.3693L47.0438 47.6058L47.3705 49.2033H45.4104L43.1235 49.5228L40.51 49.8423L38.2231 50.1618L37.8964 50.2018L35.6096 50.4813L32.996 51.1203Z" fill="#3C4D55"/>
<path d="M54.8845 65.4979H51.6175L47.3705 67.0954V68.0539L49.004 68.6929H52.2709L54.8845 66.7759V65.4979Z" fill="#3C4D55"/>
<path d="M55.2112 68.6929L62.3984 65.4979L62.7251 66.4564L62.0717 67.7344L60.7649 69.0125L58.8048 69.971L56.1912 69.6515L55.2112 68.6929Z" fill="#3C4D55"/>
<path d="M60.1116 62.6224L66.3187 58.4689L66.9721 59.1079V60.0664L65.992 61.6639L64.3586 63.2614L62.3984 63.9004H60.4382L60.1116 62.6224Z" fill="#3C4D55"/>
<path d="M65.6653 66.7759L65.012 68.0539L64.3586 69.332V71.249L65.3386 73.4855L66.9721 74.444L69.259 74.7635H71.5458L75.4661 72.2075L78.0797 69.0125L78.7331 67.0954L78.4064 64.8589L76.1195 62.6224L74.8128 61.9834H73.1793L71.5458 62.9419L69.9124 64.2199L68.9323 65.4979L67.6255 65.8174L65.6653 66.7759Z" fill="#3C4D55"/>
<path d="M31.6892 70.61L32.0159 73.166L34.9562 75.4025L39.8566 77L42.4701 76.6805L44.757 74.1245L31.6892 70.61Z" fill="#3C4D55"/>
<path fill-rule="evenodd" clip-rule="evenodd" d="M16.008 48.5643L0.98008 53.9959L0 55.9129V57.8299L0.98008 59.7469L3.92032 62.6224L7.51394 65.4979L11.761 67.7344L16.6614 69.6515L20.5817 69.971L30.3825 69.6515L31.6892 70.61L44.757 74.1245L52.9243 73.805L58.8048 71.5685L65.6653 66.7759L67.6255 64.8589L70.8924 61.0249L72.5259 58.4689L73.8327 56.5519L74.1594 54.3154H79.3865L81.6733 53.0373L82 50.8008L75.4661 40.8963L75.1394 46.9668L73.506 49.5228L70.5657 52.0788L66.9721 53.6763H62.3984L61.0916 55.2739L58.8048 55.9129L54.8845 56.2324L53.5777 55.5934L51.2908 53.3568L49.6574 56.5519L46.7171 59.1079L42.4701 61.0249H37.243L35.6096 60.7054L31.3626 58.7884L26.7888 53.0373L24.502 46.9668L23.8486 42.8133L24.502 40.2573L27.1155 36.1037L26.1355 34.5062V31.3112L27.4422 30.9917L30.7092 32.9087L31.0359 32.2697C30.7092 31.7372 30.0558 30.6083 30.0558 30.3527V28.1162L31.6892 27.1577L36.263 30.0332L45.0837 35.1452H49.6574L52.2709 33.8672L55.5378 30.6722L57.498 25.5602L59.1315 18.5311H60.7649L62.3984 22.0456L64.6853 19.1701L66.9721 21.0871L67.2988 23.9627L71.9363 26.8382L69.259 17.8921L66.3187 8.62656L64.6853 5.75104L61.4183 2.55602L57.498 0H52.5976L48.6773 1.91701L44.1036 5.75104L40.51 7.66805L37.5697 8.62656H21.5618L17.3147 10.2241L14.0478 12.1411L11.4343 15.0166L9.8008 17.8921L9.14741 21.0871V25.5602L12.741 37.3817L16.008 48.5643ZM66.3187 58.4689L60.1116 62.6224L60.4382 63.9004H62.3984L64.3586 63.2614L65.992 61.6639L66.9721 60.0664V59.1079L66.3187 58.4689ZM51.6175 65.4979H54.8845V66.7759L52.2709 68.6929H49.004L47.3705 68.0539V67.0954L51.6175 65.4979ZM62.3984 65.4979L55.2112 68.6929L56.1912 69.6515L58.8048 69.971L60.7649 69.0125L62.0717 67.7344L62.7251 66.4564L62.3984 65.4979Z" fill="#2C3D45"/>
<path d="M31.0359 51.7593L32.996 51.1203L31.6892 49.8423L30.7092 47.6058L30.0558 45.6888V44.0913H31.0359L32.0159 43.4523L32.6693 42.4938V40.8963L32.0159 40.2573L32.6693 39.9378H34.9562L35.6096 40.2573L36.263 40.8963L36.9163 41.8548L37.243 42.4938L37.5697 43.4523L37.8964 44.4108L38.2231 45.6888V46.0083V47.6058V48.8838L37.8964 50.2018L38.2231 50.1618L40.51 49.8423L43.1235 49.5228L45.4104 49.2033H47.3705L47.0438 47.6058L46.3904 45.3693L45.4104 43.1328L44.1036 41.5353L42.1434 39.9378L39.8566 38.9793L37.5697 38.3403H35.2829L32.996 38.9793L31.0359 40.2573L29.4024 41.8548L28.749 43.4523V45.6888L29.0757 47.9253L29.7291 49.5228L31.0359 51.7593Z" fill="#495A62"/>
<path d="M60.1116 45.3693L62.3984 43.4523L64.3586 41.8548L66.3187 40.5768L68.2789 39.2988L70.239 38.3403L72.5259 37.7012L71.5458 33.2282L70.8924 31.9502L69.9124 30.3527L68.9323 29.3942L67.2988 28.7552L65.6653 28.4357L64.0319 28.7552L62.3984 29.0747L60.7649 30.0332H62.3984H63.0518L63.6061 30.8912L64.0319 31.6307L64.6853 32.9087L65.012 33.8672L65.3386 34.8257L65.6653 36.1037V37.0622V38.6598L65.3386 39.2988L65.012 39.9378L64.3586 40.5768L63.7052 41.2158L62.7251 41.5353H61.0916L60.4382 40.8963L59.4582 39.9378L58.8048 38.6598L58.4781 37.7012V36.1037H59.7849L60.4382 35.7842L61.0916 35.1452V34.5062V32.5892L60.7649 31.9502L59.8876 30.8912L59.4582 31.3112L58.4781 32.9087L57.8247 35.4647L57.498 37.7012L57.8247 39.6183L58.4781 41.8548L58.8048 43.4523L59.4582 45.3693H60.1116Z" fill="#495A62"/>
<path d="M32.996 51.1203L35.6096 50.4813L37.8964 50.2018L38.2231 48.8838V47.6058V46.0083V45.6888L37.8964 44.4108L37.5697 43.4523L37.243 42.4938L36.9163 41.8548L36.263 40.8963L35.6096 40.2573L34.9562 39.9378H32.6693L32.0159 40.2573L32.6693 40.8963V42.4938L32.0159 43.4523L31.0359 44.0913H30.0558V45.6888L30.7092 47.6058L31.6892 49.8423L32.996 51.1203Z" fill="#131E24"/>
<path d="M59.7849 36.1037H58.4781V37.7012L58.8048 38.6598L59.4582 39.9378L60.4382 40.8963L61.0916 41.5353H62.7251L63.7052 41.2158L64.3586 40.5768L65.012 39.9378L65.3386 39.2988L65.6653 38.6598V37.0622V36.1037L65.3386 34.8257L65.012 33.8672L64.6853 32.9087L64.0319 31.6307L63.6061 30.8912L63.0518 30.0332H62.3984H60.7649L59.8876 30.8912L60.7649 31.9502L61.0916 32.5892V34.5062V35.1452L60.4382 35.7842L59.7849 36.1037Z" fill="#131E24"/>
<path d="M51.2908 50.8008V53.3568L55.2112 53.0373L58.0281 52.4251L58.1514 52.3983L60.7649 51.4398L62.0717 50.8008L61.745 49.8423L60.4382 48.2448L59.1315 46.9668L57.498 46.3278H55.2112L53.5777 46.9668L52.2709 48.2448L51.2908 49.5228V50.8008Z" fill="#41535D"/>
<path d="M51.2908 53.3568L53.5777 55.5934L54.8845 56.2324L58.8048 55.9129L61.0916 55.2739L62.3984 53.6763L62.0717 50.8008L60.7649 51.4398L61.4183 52.3983V53.6763L60.4382 54.6349H59.1315L58.1514 53.6763L58.0281 52.4251L55.2112 53.0373L51.2908 53.3568Z" fill="#3D4E56"/>
<path d="M60.7649 51.4398L58.1514 52.3983L58.0281 52.4251L58.1514 53.6763L59.1315 54.6349H60.4382L61.4183 53.6763V52.3983L60.7649 51.4398Z" fill="#2D3E46"/>
<path d="M21.5286 101.332C22.6449 100.357 24.3967 100.893 24.7771 102.325L25.5342 105.176C25.668 105.68 25.9934 106.112 26.441 106.379L28.9728 107.893C30.2449 108.653 30.2769 110.485 29.0321 111.289L26.5546 112.89C26.1166 113.173 25.8065 113.616 25.6904 114.125L25.0333 117C24.7031 118.445 22.9711 119.042 21.8214 118.106L19.5332 116.245C19.1287 115.916 18.6116 115.758 18.0923 115.804L15.1543 116.068C13.6782 116.2 12.5757 114.737 13.11 113.355L14.1733 110.604C14.3612 110.117 14.3518 109.577 14.147 109.097L12.9883 106.384C12.4061 105.021 13.4568 103.521 14.9367 103.602L17.8821 103.763C18.4028 103.791 18.914 103.615 19.3067 103.272L21.5286 101.332Z" fill="#38464F"/>
<path d="M64.364 102.439C64.7413 100.972 66.5194 100.411 67.6267 101.409L69.6834 103.263C70.0705 103.611 70.5803 103.791 71.1025 103.761L73.9094 103.603C75.3665 103.521 76.3912 104.996 75.826 106.361L74.6913 109.103C74.4941 109.579 74.484 110.111 74.6631 110.59L75.6862 113.322C76.2075 114.714 75.0859 116.195 73.613 116.058L70.9119 115.808C70.3833 115.759 69.8542 115.926 69.4425 116.272L67.3387 118.038C66.1916 119.001 64.4595 118.421 64.1373 116.966L63.5051 114.11C63.3944 113.61 63.0977 113.175 62.676 112.894L60.2499 111.276C59.0412 110.47 59.0915 108.656 60.344 107.883L62.7568 106.394C63.2057 106.117 63.5313 105.675 63.6632 105.162L64.364 102.439Z" fill="#38464F"/>
<path d="M42.9458 109.844C43.7233 108.553 45.5945 108.553 46.372 109.844L47.8064 112.224C48.0778 112.675 48.5159 113 49.0256 113.13L51.7573 113.826C53.1741 114.188 53.7373 115.897 52.8123 117.03L50.9386 119.324C50.6165 119.718 50.4569 120.22 50.4925 120.728L50.6974 123.658C50.8013 125.145 49.3021 126.219 47.9283 125.642L45.4328 124.595C44.9378 124.387 44.38 124.387 43.885 124.595L41.3895 125.642C40.0157 126.219 38.5165 125.145 38.6204 123.658L38.8254 120.728C38.8609 120.22 38.7013 119.718 38.3792 119.324L36.5055 117.03C35.5806 115.897 36.1437 114.188 37.5606 113.826L40.2922 113.13C40.802 113 41.24 112.675 41.5114 112.224L42.9458 109.844Z" fill="#38464F"/>
</svg>
