<svg width="102" height="127" viewBox="0 0 102 127" fill="none" xmlns="http://www.w3.org/2000/svg">
<path fill-rule="evenodd" clip-rule="evenodd" d="M17.5 36V41.5L13 40.5V46L9.5 51V57.5L11.5 62L17 72L21.5 76.5L25 78H30L34.5 77L39 74L42.5 70.5L43.5 67L44 63L41 63.5V60.5L42 57L43.5 55L46 54L49 53.5L51.5 54L54.5 55.5L55 57L54 57.5V60.5L58.5 62H64L69 60.5L72.5 58L75 54.5L76.5 50.5V44.5L74 38.5L70.5 31.5L66.5 27L63.5 25L59.5 24.5L56.5 21L54.5 20.5L53.5 25L50 21H48L43.5 35.5L41.5 38.5L39 40L36 41L32.5 41.5L25.5 38.5L19 36H17.5ZM58.5 50.5L56.5 54H56L53 50.5L48.5 41.5V37L50.5 33.5L53.5 30.5L57 29H61.5L64 30L66.5 32L68.5 34.5L70.5 38.5L65 43L62 46L58.5 50.5ZM39 59V63L34.7191 62H25H19.5L17.5 63L15.5 58.5V54L17 50L19.5 47.5L22.5 46H29.5L34.5 50L39 59Z" fill="#8EE000"/>
<path d="M45.5 85L54.5 80.5L55.5 81V84L53 86.5L50.5 87.5L47 87L45.5 85Z" fill="#8EE000"/>
<path d="M56 88.5L66 83.5L66.5 84.5V87.5L65 89L62 91H59.5L57.5 90.5L56 88.5Z" fill="#8EE000"/>
<path d="M60 77.5L70 72.5L70.5 74.5L70 77.5L67.5 79.5L64.5 80L62 79.5L60 77.5Z" fill="#8EE000"/>
<path fill-rule="evenodd" clip-rule="evenodd" d="M12 71.5L0.5 48L0 45V41.5L1 38.5L3.5 35L7.5 32L12 31H17.5L25.5 30L30.5 29L35 27L40 23L45 17.5L50.5 11.5L55 9H62L67 12.5L70.5 17L72.5 22L83.5 1L85.5 0H88.5L90.5 2L95.5 8.5L99.5 15.5L101 21L102 24V34L101.5 38L100 43L97.5 48.5L94.5 54L90 59.5L91 63V67V72L89.5 80L87.5 85L85.5 89L82.5 93L78.5 97L72.5 101L66.5 104L60.5 106L56.5 106.5H48.5L45 106L39.5 104L33.5 101L30.5 103.5L26 107L17.5 110.5L10.5 112L7.5 111.5L4.5 109V103.5L7.5 92L12 71.5ZM54.5 80.5L45.5 85L47 87L50.5 87.5L53 86.5L55.5 84V81L54.5 80.5ZM70 72.5L60 77.5L62 79.5L64.5 80L67.5 79.5L70 77.5L70.5 74.5L70 72.5ZM66 83.5L56 88.5L57.5 90.5L59.5 91H62L65 89L66.5 87.5V84.5L66 83.5ZM17.5 41.5V36H19L25.5 38.5L32.5 41.5L36 41L39 40L41.5 38.5L43.5 35.5L48 21H50L53.5 25L54.5 20.5L56.5 21L59.5 24.5L63.5 25L66.5 27L70.5 31.5L74 38.5L76.5 44.5V50.5L75 54.5L72.5 58L69 60.5L64 62H58.5L54 60.5L53.5 62.5L52.5 64L51.5 65.5L49 66H47L45 65L44 63L43.5 67L42.5 70.5L39 74L34.5 77L30 78H25L21.5 76.5L17 72L11.5 62L9.5 57.5V51L13 46V40.5L17.5 41.5Z" fill="#77C801"/>
<path d="M39 63V59L34.5 50L29.5 46H22.5L19.5 47.5L17 50L15.5 54V58.5L17.5 63L19.5 62H25V60.5L22.5 56L23 53.5L26 51L28.5 50.5V53L29.5 54.5H33L34.7191 59V62L39 63Z" fill="white"/>
<path d="M56.5 54L58.5 50.5L55.5 47.5L55 45.5L53 42V39L55.5 36.5L58 36V39L60 40.5H62L62.5 39.5L63.5 40L65 43L70.5 38.5L68.5 34.5L66.5 32L64 30L61.5 29H57L53.5 30.5L50.5 33.5L48.5 37V41.5L53 50.5L56 54H56.5Z" fill="white"/>
<path d="M58.5 50.5L62 46L65 43L63.5 40L62.5 39.5L62 40.5H60L58 39V36L55.5 36.5L53 39V42L55 45.5L55.5 47.5L58.5 50.5Z" fill="#4B4B4B"/>
<path d="M25 62H34.7191V59L33 54.5H29.5L28.5 53V50.5L26 51L23 53.5L22.5 56L25 60.5V62Z" fill="#4B4B4B"/>
<path d="M48.5 111H59L62.5 114V118L59 121H48.5L45 118V114L48.5 111Z" fill="#F38F02"/>
<path d="M78 108.5H82L85.5 111H89.5L92.5 114.5V118.5L89.5 121H82.5L75 116V111.5L78 108.5Z" fill="#F38F02"/>
<path d="M54 60.5V57.5L52 59L50 60.5L47 62L44 63L45 65L47 66H49L51.5 65.5L52.5 64L53.5 62.5L54 60.5Z" fill="#F58E01"/>
<path d="M54 57.5L55 57L54.5 55.5L51.5 54L49 53.5L46 54L43.5 55L42 57L41 60.5V63.5L44 63L47 62L50 60.5L52 59L54 57.5Z" fill="url(#paint0_linear_711_514)"/>
<path d="M59 121H48.5H30.5L28.5 122.5V125L30.5 127H99L101 125.5V123.5L99 121H89.5H82.5H59Z" fill="#253535"/>
<defs>
<linearGradient id="paint0_linear_711_514" x1="42" y1="57.2025" x2="53.4792" y2="67.1451" gradientUnits="userSpaceOnUse">
<stop stop-color="#FEDA00"/>
<stop offset="1" stop-color="#F58E01"/>
</linearGradient>
</defs>
</svg>
