<svg width="105" height="110" viewBox="0 0 105 110" fill="none" xmlns="http://www.w3.org/2000/svg">
<path fill-rule="evenodd" clip-rule="evenodd" d="M37.5 19L37 24L33.5 19.5H31.5L30 23.5L29.5 27L26.5 29.5L24.5 32.5L23 35.5L22.5 38V52L24.5 57L28 61L32 63.5L37 64.5L42.5 64L48.5 60.5L51 57L49.5 55.5V53.5L52 51L54.5 49.5H59L60.5 50.5L63 52.5L64.5 54.5V56L63 57.5V58.5L65 62.5L68.5 65.5L73 67.5H80.5L86.5 65L90.5 60.5L92.5 54.5L94 49V45V41L93.5 38L91 34.5L89 32.5L89.5 29L89 26.5L88 24H86.5L82.5 27.5L82 22L81 20H79.5L70 29L65 32.5L61 34L56 33.5L51 30.5L41 17.5L39 17L37.5 19ZM27.5 50.5L28 37.5L31 33L34 31L37 30.5H41.5L45 32.5L47.5 35.5L49 39L48.5 51.5L47.5 54L45 57L41.5 59H35L31.5 57L29 54.5L27.5 50.5ZM66 54L67 41L68.5 38.5L70 37L72.5 35L75 34H80.5L84 35.5L86.5 38L88.5 41.5L87.5 53.5L86 57L83.5 60L79.5 62H73.5L71 60.5L68 57.875L66 54Z" fill="#8EE000"/>
<path d="M40.5 76L52 78.5L51.5 80L49 81L46 81.5L43 81L40.5 79V76Z" fill="#8EE000"/>
<path d="M48.5 84L59.5 84.5V86.5L57 87.5L54 88L51.5 87.5L49.5 86L48.5 84Z" fill="#8EE000"/>
<path d="M58 79L69 78.5V80.5L67.5 82L65 83H61L58 81.5V79Z" fill="#8EE000"/>
<path fill-rule="evenodd" clip-rule="evenodd" d="M21 15.5L18 48L1.5 54L0 56V59.5L3 65L9.5 71L18.5 75L24 75.5L27 80.5L32 84.5L44 92L48 93L52.5 94L57 94.5L61 94L65.5 93L77.5 88L84 83L88.5 85L96.5 84.5L102 82L104.5 79.5V77.5L95.5 60L97.5 41L99 21L97 14L93.5 8.5L88 4.5L80 3.5L70 6H58.5L52 4.5L42 0H35.5L32.5 1L27 4.5L23 10L21 15.5ZM37 24L37.5 19L39 17L41 17.5L51 30.5L56 33.5L61 34L65 32.5L70 29L79.5 20H81L82 22L82.5 27.5L86.5 24H88L89 26.5L89.5 29L89 32.5L91 34.5L93.5 38L94 41V45V49L92.5 54.5L90.5 60.5L86.5 65L80.5 67.5H73L68.5 65.5L65 62.5L63 58.5V57.5L62 64.5L60.5 67L58 68.5H55L52.5 67L51 64.5V57L48.5 60.5L42.5 64L37 64.5L32 63.5L28 61L24.5 57L22.5 52V38L23 35.5L24.5 32.5L26.5 29.5L29.5 27L30 23.5L31.5 19.5H33.5L37 24ZM52 78.5L40.5 76V79L43 81L46 81.5L49 81L51.5 80L52 78.5ZM69 78.5L58 79V81.5L61 83H65L67.5 82L69 80.5V78.5ZM59.5 84.5L48.5 84L49.5 86L51.5 87.5L54 88L57 87.5L59.5 86.5V84.5Z" fill="#57CC02"/>
<path fill-rule="evenodd" clip-rule="evenodd" d="M28 37.5L27.5 50.5L29 54.5L31.5 57L35 59H41.5L45 57L47.5 54L48.5 51.5L49 39L47.5 35.5L45 32.5L41.5 30.5H37L34 31L31 33L28 37.5ZM39.5 38L38.5 37L39 36.5H43L46 39.5V49.5L42.5 52.5H39L35 49V42.5H37.5L39.5 40V38Z" fill="white"/>
<path fill-rule="evenodd" clip-rule="evenodd" d="M67 41L66 54L68 57.875L71 60.5L73.5 62H79.5L83.5 60L86 57L87.5 53.5L88.5 41.5L86.5 38L84 35.5L80.5 34H75L72.5 35L70 37L68.5 38.5L67 41ZM73 40.5V39H77.5L80.5 42.5V46L79.5 52.5L76 55.5H73L71 54.5L69 51.5V45H72L74 43.5V41L73 40.5Z" fill="white"/>
<path d="M96.5 84.5L88.5 85L84 83L77.5 88L77 92L74.5 94.5L71.5 95.5H68L65.5 93L61 94L57 94.5L52.5 94L48 93L44 92L41.5 95L38 96.5H35.5L34 95.5L31.5 94L30 91V88L32 84.5L27 80.5L24 75.5L18.5 75L9.5 71L9 76L10.5 82L14 90.5L21 98L32 105L43 108.5L53 109.5L60.5 109L71.5 106.5L80.5 102.5L88.5 96.5L94.5 89L96.5 84.5Z" fill="#4B4B4B"/>
<path d="M38.5 37L39.5 38V40L37.5 42.5H35V49L39 52.5H42.5L46 49.5V39.5L43 36.5H39L38.5 37Z" fill="#4B4B4B"/>
<path d="M73 39V40.5L74 41V43.5L72 45H69V51.5L71 54.5L73 55.5H76L79.5 52.5L80.5 46V42.5L77.5 39H73Z" fill="#4B4B4B"/>
<path d="M77 92L77.5 88L65.5 93L68 95.5H71.5L74.5 94.5L77 92Z" fill="#F48F00"/>
<path d="M32 84.5L30 88V91L31.5 94L34 95.5L35.5 96.5H38L41.5 95L44 92L32 84.5Z" fill="#F48F00"/>
<path d="M51 57V64.5L52.5 67L55 68.5H58L60.5 67L62 64.5L63 57.5L61.5 57.875L60.5 63L58 65.5H55L53 63.5V62V57.5L51 57Z" fill="#F18F06"/>
<path d="M57 59L53 57.5V62L55 61.5H57.5L59.5 62.5L60.5 63L61.5 57.875L57 59Z" fill="#AB6704"/>
<path d="M55 61.5L53 62V63.5L55 65.5H58L60.5 63L59.5 62.5L57.5 61.5H55Z" fill="#FFC9FF"/>
<path d="M63 57.5L64.5 56V54.5L63 52.5L60.5 50.5L59 49.5H54.5L52 51L49.5 53.5V55.5L51 57L53 57.5L57 59L61.5 57.875L63 57.5Z" fill="url(#paint0_linear_711_515)"/>
<defs>
<linearGradient id="paint0_linear_711_515" x1="55.5" y1="49" x2="59.5" y2="59" gradientUnits="userSpaceOnUse">
<stop stop-color="#FFE002"/>
<stop offset="1" stop-color="#F18F06"/>
</linearGradient>
</defs>
</svg>
