<svg width="31" height="30" viewBox="0 0 31 30" fill="none" xmlns="http://www.w3.org/2000/svg">
<path d="M21 22.2057L20.5 23.1148L19 24.5902L16.5 25.5738H11.5L14.5 27.0492H18.5L22.5 23.1148V3.98619L21 3.44262V8.36066V15.2832V22.2057Z" fill="#141F25"/>
<path d="M9.5 6.39344L6.09932 13.8266L10.2632 9.83607L11.7881 8.37455L11 6.39344H9.5Z" fill="#141F25"/>
<path d="M12.216 16.7607L14.3228 14.7459L11.7881 8.37455L10.2632 9.83607L11.5 14.2623H8.5L10.2632 9.83607L6.09932 13.8266L5 16.2295V18.6885H7L8 16.2295H12L12.216 16.7607Z" fill="#141F25"/>
<path d="M14.5 18.6885L15.5 17.7049L14.3228 14.7459L12.216 16.7607L13 18.6885H14.5Z" fill="#141F25"/>
<path d="M17.5 0H2.5L1 0.983607L0 2.45902V19.6721L6.09932 13.8266L9.5 6.39344H11L11.7881 8.37455L19.5 0.983607L17.5 0Z" fill="#82D7FF"/>
<path d="M3 25.5738H10.5L21 15.2832V8.36066L14.3228 14.7459L15.5 17.7049L14.5 18.6885H13L12.216 16.7607L3 25.5738Z" fill="#82D7FF"/>
<path d="M21 3.44262L19.5 0.983607L11.7881 8.37455L14.3228 14.7459L21 8.36066V3.44262Z" fill="#639FBB"/>
<path d="M1 24.5902L3 25.5738L12.216 16.7607L12 16.2295H8L7 18.6885H5V16.2295L6.09932 13.8266L0 19.6721V22.623L1 24.5902Z" fill="#639FBB"/>
<path d="M8.5 14.2623H11.5L10.2632 9.83607L8.5 14.2623Z" fill="#639FBB"/>
<path d="M20.5 23.1148L21 22.2057V15.2832L10.5 25.5738H11.5H16.5L19 24.5902L20.5 23.1148Z" fill="#639FBB"/>
<path d="M31 9.34426L30.5 6.88525L22.5 3.98619V23.1148L18.5 27.0492H14.5L20.5 30L23.5 29.0164L31 9.34426Z" fill="#1DB0F6"/>
</svg>
