<svg width="94" height="107" viewBox="0 0 94 107" fill="none" xmlns="http://www.w3.org/2000/svg">
<path d="M39.5 25.7406L38 20.6934L31 27.7594L29 31.2925L28 35.3302L27.5 40.3774L28 44.4151L28.9768 48.4528L36.0426 57.6579L38.5 56.0236L46 55.5189L50 57.5377L51.5 59.0519L55 58.5472L58 56.5283L49 56.0236L43.5 52.9953L39.5 48.9575L37 42.3962L37.5 33.3113L39 29.2736L40.5 26.75L39.5 25.7406Z" fill="#FDB8E4"/>
<path d="M51 76.717L50 75.7075V72.6792L48.5 74.1934L42.5 71.6698L43 68.1368H38.5V70.2999H32L31 71.1651L27.5 72.1745L23.5 75.2028L21 78.7359L25.5 83.2783L26.5 81.7642L28.5 80.25L31 79.2406H33.5L35.8311 80.25L38 85.2972L39.5 82.2689L41.5 80.25L43.5 79.2406H47L50.5 79.7453L54 82.2689L54.5 81.2594L51 76.717Z" fill="#FDB8E4"/>
<path d="M30 65.1085L32 62.5849L27 57.6579L22.5 57.033L19 56.0236L15 54.0047L13 61.0708L14 66.6226L17 69.6509L22.5 69.1462L26 68.1368L30 65.1085Z" fill="#FDB8E4"/>
<path d="M0.5 13.6274V15.6462L18.5 17.1604L26 1.00943L23.5 0L17 15.1415L0.5 13.6274Z" fill="#FDB8E4"/>
<path d="M58.5 16.6557L50.5 15.1415L42.375 18.1698L43.5 19.684H47L50 18.6745L54.5 18.1698L59 18.6745L63.5 20.6934L68.5 26.2453L70 28.7689L72 32.8066L72.5 36.8443L71.5 45.9292L69.25 49.7146L67 53.5L63.5 56.5283L58.5 59.5566L53 60.566L54 63.5943L61 60.566L65 58.5472L69 54.5094L72 49.4623L74 44.4151L74.5 38.8632L74 31.7972L71 25.7406L65 19.684L58.5 16.6557Z" fill="#FDB8E4"/>
<path d="M37.5 59.5566H43.5L49.8638 61.5332L49 59.0519L46 57.5377H40.5L37.4161 59.4473L37.5 59.5566Z" fill="#FDB8E4"/>
<path d="M0.5 15.6462L2.5 20.1887L3.5 22.7123L4.5 21.7028L6.5 19.684L9 18.6745L12 18.1698L13.5 19.684V22.2075L10 24.2264L9.5 25.7406L10.5 25.2358L12 24.7311L14 24.2264L15.5 24.7311L17.5 26.2453L34 16.1509L34.5 13.6274L26 1.00943L18.5 17.1604L0.5 15.6462Z" fill="#FFE0FB"/>
<path d="M23.5 0L0.5 13.6274L17 15.1415L23.5 0Z" fill="#FFE0FB"/>
<path d="M50 72.6792L43 68.1368L42.5 71.6698L48.5 74.1934L50 72.6792Z" fill="#E67ECD"/>
<path d="M38.5 68.1368H34.5L32 70.2999H38.5V68.1368Z" fill="#E67ECD"/>
<path d="M50 61.5755L52 63.5943H54L53 60.566L58.5 59.5566L63.5 56.5283L67 53.5L69.25 49.7146L58 56.5283L55 58.5472L51.5 59.0519L50 57.5377L46 55.5189L38.5 56.0236L36.0426 57.6579L37.4161 59.4473L40.5 57.5377H46L49 59.0519L49.8638 61.5332L50 61.5755Z" fill="#E67ECD"/>
<path d="M89 49.4623L88.5 47.9481L84.5 43.4927L80 41.8915H76.5L69.5 64.0991V66.6226H71L72.5 64.6038L72 62.0802V60.0613L74 57.5377L75 56.5283L73.5 56.0236V53.5L76.5 52.9953H79.5L83.5 55.0142L88 50.9764L89 49.4623Z" fill="#A986F7"/>
<path d="M87.5 41.8915L91.5 37.8538L94 39.8726L90 44.9198L87.5 41.8915Z" fill="#A986F7"/>
<path d="M74.5 9.08491L73 11.6085V15.6462L76.5 19.684L79.5 22.2075V25.7406L78.5 29.7783L79 30.283L81.5 29.2736L82 26.2453V21.1981L79 17.6651L76 15.1415V12.6179L77 11.1038L76.5 9.58962L74.5 9.08491Z" fill="#FDB8E4"/>
<path d="M84.5 39.3679L85 35.8349L87.5 32.8066L92 31.7972V29.7783H88.5L85.5 31.2925L83.5 34.3208L82 37.3491V39.3679H84.5Z" fill="#FDB8E4"/>
<path d="M85 17.1604L89.5 12.1132L92.5 13.6274L88 20.1887L85 17.1604Z" fill="#F476C6"/>
<path d="M85.5 25.2358L86 23.7217L87 22.7123H89L90 23.7217L90.5 25.2358V26.75L89 27.7594H87L86 26.75L85.5 25.2358Z" fill="#FFDCF2"/>
<path d="M68 32.3019H64L65.5 33.816L66.5 35.3302L66 37.8538H68.5L70 38.8632L71.5 37.3491L71 34.8255L68 32.3019Z" fill="white"/>
<path d="M53 28.7689L46.5 29.2736L45.5 30.7877L44.5 32.3019V34.1525H48L48.5 31.7972L51 30.283L53 30.7877L54 31.7972V34.8255L53 36.3396L55 37.8538H57.5L58.5 36.8443V33.3113L55 29.2736L53 28.7689Z" fill="white"/>
<path fill-rule="evenodd" clip-rule="evenodd" d="M55 85.8019L58.5 82.2689H64L67 85.2972V98.4198L64 101.448H58.5L55 98.4198V85.8019ZM62.5 85.2972H59.5L59 86.8113V97.4104L60 98.4198H62L63 97.4104V86.8113L62.5 85.2972Z" fill="white"/>
<path fill-rule="evenodd" clip-rule="evenodd" d="M40 85.8019L43.5 82.2689H49L52 85.2972V98.4198L49 101.448H43.5L40 98.4198V85.8019ZM47.5 85.2972H44.5L44 86.8113V97.4104L45 98.4198H47L48 97.4104V86.8113L47.5 85.2972Z" fill="white"/>
<path d="M25.5 85.8019L31 82.2689H33.5L34.5 83.783V99.934L34 101.448H31.5L30.5 100.439V87.316L28.5 88.3255H26.5L25.5 87.316V85.8019Z" fill="white"/>
<path d="M54 63.5943L64 70.6604L69.5 64.0991L76.5 41.8915L74.5 38.8632L74 44.4151L72 49.4623L69 54.5094L65 58.5472L61 60.566L54 63.5943Z" fill="white"/>
<path d="M80.5 67.6321H76.5L76 69.1462L66 78.2311H61.5L54 72.1745L53 74.6981L51 76.717L54.5 81.2594L57.5 79.7453L60 79.2406H64.5L67 80.7547L68.5 82.7736L76 75.7075L81 69.1462L80.5 67.6321Z" fill="white"/>
<path d="M31 71.1651L29.5 68.6415L30 65.1085L26 68.1368L22.5 69.1462L17 69.6509L14 66.6226L13 61.0708L15 54.0047L19 56.0236L22.5 57.033L27 57.6579L14.5 45.3404L12.5 47.9481L10.5 50.9764L9.5 55.0142V60.0613L10.5 64.0991L14 69.6509L21 78.7359L23.5 75.2028L27.5 72.1745L31 71.1651Z" fill="white"/>
<path d="M31 27.7594L20.4536 37.3491L28.9768 48.4528L28 44.4151L27.5 40.3774L28 35.3302L29 31.2925L31 27.7594Z" fill="white"/>
<path d="M44.5 15.1415L40.5 15.6462L42.375 18.1698L50.5 15.1415H44.5Z" fill="#A986F7"/>
<path d="M9.5 40.3774L11 41.8915L14.5 45.3404L27 57.6579L32 62.5849L30 65.1085L29.5 68.6415L31 71.1651L32 70.2999L34.5 68.1368H38.5H43L50 72.6792V75.7075L51 76.717L53 74.6981L54 72.1745V67.6321L53.5 65.6132L52 63.5943L50 61.5755L49.8638 61.5332L43.5 59.5566H37.5L37.4161 59.4473L36.0426 57.6579L28.9768 48.4528L20.4536 37.3491L18 34.1525L17 35.8349L15 37.8538L12.5 39.3679L9.5 40.3774Z" fill="#1DAFF8"/>
<path d="M54 63.5943H52L53.5 65.6132L54 67.6321V72.1745L61.5 78.2311H66L76 69.1462L76.5 67.6321L72.5 64.6038L71 66.6226H69.5V64.0991L64 70.6604L54 63.5943Z" fill="#0191D8"/>
<path fill-rule="evenodd" clip-rule="evenodd" d="M71.5 45.9292L72.5 36.8443L72 32.8066L70 28.7689L68.5 26.2453L65 25.2358L60 25.7406L57 26.75L53 28.7689L55 29.2736L58.5 33.3113V36.8443L57.5 37.8538H55L53 36.3396L52 35.3302L50 34.3208L48 34.1525H44.5V32.3019L45.5 30.7877L46.5 29.2736L41.5 27.7594L40.5 26.75L39 29.2736L37.5 33.3113L37 42.3962L39.5 48.9575L43.5 52.9953L49 56.0236L58 56.5283L69.25 49.7146L71.5 45.9292ZM60.5 36.8443L61 34.3208L64 32.3019H68L71 34.8255L71.5 37.3491L70 38.8632L68.5 37.8538H66L64 38.3585L62.5 39.3679L61.5 40.3774L60 40.8821L59 39.8726V38.3585L59.5 37.3491L60.5 36.8443ZM61.5 42.3962C60.3333 42.3962 57.5 41.9925 55.5 40.3774L54.5 44.0113L53 49.4623L54 50.4717H56.5L61.5 42.3962Z" fill="#E18D71"/>
<path d="M5.5 39.3679L9.5 40.3774L12.5 39.3679L15 37.8538L17 35.8349L18 34.1525L18.5 33.3113L19 28.7689L17.5 26.2453L15.5 24.7311L14 24.2264L12 24.7311L10.5 25.2358L9.5 25.7406L10 24.2264L13.5 22.2075V19.684L12 18.1698L9 18.6745L6.5 19.684L4.5 21.7028L3.5 22.7123L2.5 20.1887L1.5 20.6934L0.5 22.2075V23.7217L1.5 25.7406L0 27.2547V30.7877L0.5 33.816L2.5 37.3491L5.5 39.3679Z" fill="#E18D71"/>
<path d="M85.5 57.5377L83.5 55.0142L79.5 52.9953H76.5L73.5 53.5V56.0236L75 56.5283L74 57.5377L72 60.0613V62.0802L72.5 64.6038L76.5 67.6321H80.5L83 66.6226L85 64.0991L85.5 57.5377Z" fill="#E18D71"/>
<path d="M40.5 15.6462L38 16.6557V20.6934L39.5 25.7406L40.5 26.75L41.5 27.7594L46.5 29.2736L53 28.7689L57 26.75L60 25.7406L65 25.2358L68.5 26.2453L63.5 20.6934L59 18.6745L54.5 18.1698L50 18.6745L47 19.684H43.5L42.375 18.1698L40.5 15.6462Z" fill="#3D3D3D"/>
<path d="M61 34.3208L60.5 36.8443L62.5 39.3679L64 38.3585L66 37.8538L66.5 35.3302L65.5 33.816L64 32.3019L61 34.3208Z" fill="#3D3D3D"/>
<path d="M48 34.1525L50 34.3208L52 35.3302L53 36.3396L54 34.8255V31.7972L53 30.7877L51 30.283L48.5 31.7972L48 34.1525Z" fill="#3D3D3D"/>
<path d="M62.5 39.3679L60.5 36.8443L59.5 37.3491L59 38.3585V39.8726L60 40.8821L61.5 40.3774L62.5 39.3679Z" fill="#AB573D"/>
<path d="M61.5 42.3962C60.3333 42.3962 57.5 41.9925 55.5 40.3774L54.5 44.0113L58.0355 47.9917L61.5 42.3962Z" fill="#81152C"/>
<path d="M56.5 50.4717L58.0355 47.9917L54.5 44.0113L53 49.4623L54 50.4717H56.5Z" fill="#D72322"/>
<path d="M76.5 41.8915H80L84.5 43.4927L74 31.7972L74.5 38.8632L76.5 41.8915Z" fill="#F8D5CF"/>
<path d="M89 53.5L88 50.9764L83.5 55.0142L85.5 57.5377L85 64.0991L83 66.6226L80.5 67.6321L81 69.1462L76 75.7075L68.5 82.7736L70 84.2877L70.5 87.316L71 90.8491L83 77.2217L86.5 71.6698L89 65.6132V53.5Z" fill="url(#paint0_linear_611_287)"/>
<path fill-rule="evenodd" clip-rule="evenodd" d="M71 98.4198V90.8491L70.5 87.316L70 84.2877L68.5 82.7736L67 80.7547L64.5 79.2406H60L57.5 79.7453L54.5 81.2594L54 82.2689L50.5 79.7453L47 79.2406H43.5L41.5 80.25L39.5 82.2689L38 85.2972L35.8311 80.25L33.5 79.2406H31L28.5 80.25L26.5 81.7642L25.5 83.2783L21 78.7359L14 69.6509L10.5 64.0991L9.5 60.0613V55.0142L10.5 50.9764L12.5 47.9481L14.5 45.3404L11 41.8915L5 50.4717V64.6038L5.5 68.6415L8 73.184L14 80.7547L22.5 90.3443L24.5 93.3726L27.5 94.8868V103.972L30.5 107H33.5L35 106.495L36.5 104.476L37.5 101.448L40 104.476L43.5 107H48.5L51.5 105.991L53.5 102.962L57.5 107H63L65.5 106.495L68.5 103.972L71 98.4198ZM31 82.2689L25.5 85.8019V87.316L26.5 88.3255H28.5L30.5 87.316V100.439L31.5 101.448H34L34.5 99.934V83.783L33.5 82.2689H31ZM43.5 82.2689L40 85.8019V98.4198L43.5 101.448H49L52 98.4198V85.2972L49 82.2689H43.5ZM58.5 82.2689L55 85.8019V98.4198L58.5 101.448H64L67 98.4198V85.2972L64 82.2689H58.5Z" fill="url(#paint1_linear_611_287)"/>
<path d="M25 26.75L18.5 33.3113L18 34.1525L20.4536 37.3491L31 27.7594L38 20.6934V16.6557L30 22.2075L25 26.75Z" fill="url(#paint2_linear_611_287)"/>
<path d="M44.5 85.2972H47.5L48 86.8113V97.4104L47 98.4198H45L44 97.4104V86.8113L44.5 85.2972Z" fill="#94BFF8"/>
<path d="M59.5 85.2972H62.5L63 86.8113V97.4104L62 98.4198H60L59 97.4104V86.8113L59.5 85.2972Z" fill="#5FE0EC"/>
<defs>
<linearGradient id="paint0_linear_611_287" x1="87" y1="50.9764" x2="71.7584" y2="87.2144" gradientUnits="userSpaceOnUse">
<stop stop-color="#FBE9B7"/>
<stop offset="1" stop-color="#FCC3E3"/>
</linearGradient>
<linearGradient id="paint1_linear_611_287" x1="47" y1="78.7358" x2="68.2531" y2="106.808" gradientUnits="userSpaceOnUse">
<stop stop-color="#A2B6FB"/>
<stop offset="1" stop-color="#38F9E4"/>
</linearGradient>
<linearGradient id="paint2_linear_611_287" x1="37.5" y1="19.684" x2="19.3458" y2="36.1698" gradientUnits="userSpaceOnUse">
<stop stop-color="#A986F7"/>
<stop offset="1" stop-color="#79D1F5"/>
</linearGradient>
</defs>
</svg>
